  0
SECTION
  2
HEADER
  9
$ACADVER
  1
AC1015
  9
$ACADMAINTVER
 70
     6
  9
$DWGCODEPAGE
  3
ANSI_1252
  9
$INSBASE
 10
0.0
 20
0.0
 30
0.0
  9
$EXTMIN
 10
-165.4013272924
 20
-451.1145880929
 30
0.0
  9
$EXTMAX
 10
165.4013272924
 20
742.2564485795
 30
0.0
  9
$LIMMIN
 10
0.0
 20
0.0
  9
$LIMMAX
 10
420.0
 20
297.0
  9
$ORTHOMODE
 70
     0
  9
$REGENMODE
 70
     1
  9
$FILLMODE
 70
     1
  9
$QTEXTMODE
 70
     0
  9
$MIRRTEXT
 70
     1
  9
$LTSCALE
 40
1.0
  9
$ATTMODE
 70
     1
  9
$TEXTSIZE
 40
3.175
  9
$TRACEWID
 40
1.0
  9
$TEXTSTYLE
  7
Standard
  9
$CLAYER
  8
0
  9
$CELTYPE
  6
ByLayer
  9
$CECOLOR
 62
   256
  9
$CELTSCALE
 40
1.0
  9
$DISPSILH
 70
     0
  9
$DIMSCALE
 40
1.0
  9
$DIMASZ
 40
3.302
  9
$DIMEXO
 40
0.0
  9
$DIMDLI
 40
3.75
  9
$DIMRND
 40
0.0
  9
$DIMDLE
 40
0.0
  9
$DIMEXE
 40
3.175
  9
$DIMTP
 40
0.0
  9
$DIMTM
 40
0.0
  9
$DIMTXT
 40
3.175
  9
$DIMCEN
 40
2.5
  9
$DIMTSZ
 40
0.0
  9
$DIMTOL
 70
     0
  9
$DIMLIM
 70
     0
  9
$DIMTIH
 70
     1
  9
$DIMTOH
 70
     1
  9
$DIMSE1
 70
     0
  9
$DIMSE2
 70
     0
  9
$DIMTAD
 70
     0
  9
$DIMZIN
 70
     1
  9
$DIMBLK
  1

  9
$DIMASO
 70
     1
  9
$DIMSHO
 70
     1
  9
$DIMPOST
  1

  9
$DIMAPOST
  1

  9
$DIMALT
 70
     0
  9
$DIMALTD
 70
     3
  9
$DIMALTF
 40
0.0393700787
  9
$DIMLFAC
 40
1.0
  9
$DIMTOFL
 70
     1
  9
$DIMTVP
 40
0.0
  9
$DIMTIX
 70
     0
  9
$DIMSOXD
 70
     0
  9
$DIMSAH
 70
     0
  9
$DIMBLK1
  1

  9
$DIMBLK2
  1

  9
$DIMSTYLE
  2
ISO-25
  9
$DIMCLRD
 70
     0
  9
$DIMCLRE
 70
     0
  9
$DIMCLRT
 70
     0
  9
$DIMTFAC
 40
1.0
  9
$DIMGAP
 40
1.524
  9
$DIMJUST
 70
     0
  9
$DIMSD1
 70
     0
  9
$DIMSD2
 70
     0
  9
$DIMTOLJ
 70
     0
  9
$DIMTZIN
 70
     1
  9
$DIMALTZ
 70
     0
  9
$DIMALTTZ
 70
     0
  9
$DIMUPT
 70
     0
  9
$DIMDEC
 70
     2
  9
$DIMTDEC
 70
     2
  9
$DIMALTU
 70
     2
  9
$DIMALTTD
 70
     3
  9
$DIMTXSTY
  7
Standard
  9
$DIMAUNIT
 70
     0
  9
$DIMADEC
 70
     2
  9
$DIMALTRND
 40
0.0
  9
$DIMAZIN
 70
     0
  9
$DIMDSEP
 70
    44
  9
$DIMATFIT
 70
     3
  9
$DIMFRAC
 70
     0
  9
$DIMLDRBLK
  1

  9
$DIMLUNIT
 70
     2
  9
$DIMLWD
 70
    -2
  9
$DIMLWE
 70
    -2
  9
$DIMTMOVE
 70
     0
  9
$LUNITS
 70
     2
  9
$LUPREC
 70
     6
  9
$SKETCHINC
 40
1.0
  9
$FILLETRAD
 40
0.0
  9
$AUNITS
 70
     0
  9
$AUPREC
 70
     2
  9
$MENU
  1
.
  9
$ELEVATION
 40
0.0
  9
$PELEVATION
 40
0.0
  9
$THICKNESS
 40
0.0
  9
$LIMCHECK
 70
     0
  9
$CHAMFERA
 40
0.0
  9
$CHAMFERB
 40
0.0
  9
$CHAMFERC
 40
0.0
  9
$CHAMFERD
 40
0.0
  9
$SKPOLY
 70
     0
  9
$TDCREATE
 40
2460322.600911632
  9
$TDUCREATE
 40
2460322.809244965
  9
$TDUPDATE
 40
2460322.601132524
  9
$TDUUPDATE
 40
2460322.809465857
  9
$TDINDWG
 40
0.0000000116
  9
$TDUSRTIMER
 40
0.0000000116
  9
$USRTIMER
 70
     1
  9
$ANGBASE
 50
0.0
  9
$ANGDIR
 70
     0
  9
$PDMODE
 70
     0
  9
$PDSIZE
 40
-1.0
  9
$PLINEWID
 40
0.0
  9
$SPLFRAME
 70
     0
  9
$SPLINETYPE
 70
     6
  9
$SPLINESEGS
 70
     8
  9
$HANDSEED
  5
630
  9
$SURFTAB1
 70
     6
  9
$SURFTAB2
 70
     6
  9
$SURFTYPE
 70
     6
  9
$SURFU
 70
     6
  9
$SURFV
 70
     6
  9
$UCSBASE
  2

  9
$UCSNAME
  2

  9
$UCSORG
 10
0.0
 20
0.0
 30
0.0
  9
$UCSXDIR
 10
1.0
 20
0.0
 30
0.0
  9
$UCSYDIR
 10
0.0
 20
1.0
 30
0.0
  9
$UCSORTHOREF
  2

  9
$UCSORTHOVIEW
 70
     0
  9
$UCSORGTOP
 10
0.0
 20
0.0
 30
0.0
  9
$UCSORGBOTTOM
 10
0.0
 20
0.0
 30
0.0
  9
$UCSORGLEFT
 10
0.0
 20
0.0
 30
0.0
  9
$UCSORGRIGHT
 10
0.0
 20
0.0
 30
0.0
  9
$UCSORGFRONT
 10
0.0
 20
0.0
 30
0.0
  9
$UCSORGBACK
 10
0.0
 20
0.0
 30
0.0
  9
$PUCSBASE
  2

  9
$PUCSNAME
  2

  9
$PUCSORG
 10
0.0
 20
0.0
 30
0.0
  9
$PUCSXDIR
 10
1.0
 20
0.0
 30
0.0
  9
$PUCSYDIR
 10
0.0
 20
1.0
 30
0.0
  9
$PUCSORTHOREF
  2

  9
$PUCSORTHOVIEW
 70
     0
  9
$PUCSORGTOP
 10
0.0
 20
0.0
 30
0.0
  9
$PUCSORGBOTTOM
 10
0.0
 20
0.0
 30
0.0
  9
$PUCSORGLEFT
 10
0.0
 20
0.0
 30
0.0
  9
$PUCSORGRIGHT
 10
0.0
 20
0.0
 30
0.0
  9
$PUCSORGFRONT
 10
0.0
 20
0.0
 30
0.0
  9
$PUCSORGBACK
 10
0.0
 20
0.0
 30
0.0
  9
$USERI1
 70
     0
  9
$USERI2
 70
     0
  9
$USERI3
 70
     0
  9
$USERI4
 70
     0
  9
$USERI5
 70
     0
  9
$USERR1
 40
0.0
  9
$USERR2
 40
0.0
  9
$USERR3
 40
0.0
  9
$USERR4
 40
0.0
  9
$USERR5
 40
0.0
  9
$WORLDVIEW
 70
     1
  9
$SHADEDGE
 70
     3
  9
$SHADEDIF
 70
    70
  9
$TILEMODE
 70
     1
  9
$MAXACTVP
 70
    64
  9
$PINSBASE
 10
0.0
 20
0.0
 30
0.0
  9
$PLIMCHECK
 70
     0
  9
$PEXTMIN
 10
-165.4013272924
 20
-38.144226198
 30
0.0
  9
$PEXTMAX
 10
165.4013272924
 20
571.5356113118
 30
0.0
  9
$PLIMMIN
 10
-227.932592678
 20
-61.5934507176
  9
$PLIMMAX
 10
700.6566982985
 20
594.9848358314
  9
$UNITMODE
 70
     0
  9
$VISRETAIN
 70
     1
  9
$PLINEGEN
 70
     0
  9
$PSLTSCALE
 70
     1
  9
$TREEDEPTH
 70
  3020
  9
$CMLSTYLE
  2
Standard
  9
$CMLJUST
 70
     0
  9
$CMLSCALE
 40
20.0
  9
$PROXYGRAPHICS
 70
     1
  9
$MEASUREMENT
 70
     1
  9
$CELWEIGHT
370
    -1
  9
$ENDCAPS
280
     0
  9
$JOINSTYLE
280
     0
  9
$LWDISPLAY
290
     1
  9
$INSUNITS
 70
     4
  9
$HYPERLINKBASE
  1

  9
$STYLESHEET
  1

  9
$XEDIT
290
     1
  9
$CEPSNTYPE
380
     0
  9
$PSTYLEMODE
290
     1
  9
$FINGERPRINTGUID
  2
{f438412e-9d1a-484b-8d8d-9ab3498375db}
  9
$VERSIONGUID
  2
{FAEB1C32-E019-11D5-929B-00C0DF256EC4}
  9
$EXTNAMES
290
     1
  9
$PSVPSCALE
 40
0.0
  9
$OLESTARTUP
290
     0
  0
ENDSEC
  0
SECTION
  2
CLASSES
  0
CLASS
  1
ACDBDICTIONARYWDFLT
  2
AcDbDictionaryWithDefault
  3
ObjectDBX Classes
 90
        0
280
     0
281
     0
  0
CLASS
  1
VISUALSTYLE
  2
AcDbVisualStyle
  3
ObjectDBX Classes
 90
     4095
280
     0
281
     0
  0
CLASS
  1
MATERIAL
  2
AcDbMaterial
  3
ObjectDBX Classes
 90
     1153
280
     0
281
     0
  0
CLASS
  1
SCALE
  2
AcDbScale
  3
ObjectDBX Classes
 90
     1153
280
     0
281
     0
  0
CLASS
  1
TABLESTYLE
  2
AcDbTableStyle
  3
ObjectDBX Classes
 90
     4095
280
     0
281
     0
  0
CLASS
  1
MLEADERSTYLE
  2
AcDbMLeaderStyle
  3
ACDB_MLEADERSTYLE_CLASS
 90
     4095
280
     0
281
     0
  0
CLASS
  1
SUN
  2
AcDbSun
  3
SCENEOE
 90
     1153
280
     0
281
     0
  0
CLASS
  1
ACDBPLACEHOLDER
  2
AcDbPlaceHolder
  3
ObjectDBX Classes
 90
        0
280
     0
281
     0
  0
CLASS
  1
LAYOUT
  2
AcDbLayout
  3
ObjectDBX Classes
 90
        0
280
     0
281
     0
  0
ENDSEC
  0
SECTION
  2
TABLES
  0
TABLE
  2
VPORT
  5
8
330
0
100
AcDbSymbolTable
 70
     1
  0
VPORT
  5
29
330
8
100
AcDbSymbolTableRecord
100
AcDbViewportTableRecord
  2
*Active
 70
     0
 10
0.0
 20
0.0
 11
1.0
 21
1.0
 12
0.0
 22
145.5709302433
 13
0.0
 23
0.0
 14
10.0
 24
10.0
 15
10.0
 25
10.0
 16
0.0
 26
0.0
 36
1.0
 17
0.0
 27
0.0
 37
0.0
 40
1217.2384574058
 41
0.2772001703
 42
50.0
 43
0.0
 44
0.0
 50
0.0
 51
0.0
 71
     0
 72
   100
 73
     1
 74
     3
 75
     0
 76
     0
 77
     0
 78
     0
281
     0
 65
     1
110
0.0
120
0.0
130
0.0
111
1.0
121
0.0
131
0.0
112
0.0
122
1.0
132
0.0
 79
     0
146
0.0
  0
ENDTAB
  0
TABLE
  2
LTYPE
  5
5
330
0
100
AcDbSymbolTable
 70
     6
  0
LTYPE
  5
14
330
5
100
AcDbSymbolTableRecord
100
AcDbLinetypeTableRecord
  2
ByBlock
 70
     0
  3

 72
    65
 73
     0
 40
0.0
  0
LTYPE
  5
15
330
5
100
AcDbSymbolTableRecord
100
AcDbLinetypeTableRecord
  2
ByLayer
 70
     0
  3

 72
    65
 73
     0
 40
0.0
  0
LTYPE
  5
16
330
5
100
AcDbSymbolTableRecord
100
AcDbLinetypeTableRecord
  2
Continuous
 70
     0
  3
Solid line
 72
    65
 73
     0
 40
0.0
  0
LTYPE
  5
5E
330
5
100
AcDbSymbolTableRecord
100
AcDbLinetypeTableRecord
  2
HIDDEN
 70
     0
  3
Hidden __ __ __ __ __ __ __ __ __ __ __ __ __ __
 72
    65
 73
     2
 40
1.905
 49
1.27
 74
     0
 49
-0.635
 74
     0
  0
LTYPE
  5
5F
330
5
100
AcDbSymbolTableRecord
100
AcDbLinetypeTableRecord
  2
PHANTOM
 70
     0
  3
Phantom ______  __  __  ______  __  __  ______
 72
    65
 73
     6
 40
12.7
 49
6.35
 74
     0
 49
-1.27
 74
     0
 49
1.27
 74
     0
 49
-1.27
 74
     0
 49
1.27
 74
     0
 49
-1.27
 74
     0
  0
LTYPE
  5
60
330
5
100
AcDbSymbolTableRecord
100
AcDbLinetypeTableRecord
  2
CENTER
 70
     0
  3
Center ____ _ ____ _ ____ _ ____ _ ____ _ ____
 72
    65
 73
     4
 40
10.16
 49
6.35
 74
     0
 49
-1.27
 74
     0
 49
1.27
 74
     0
 49
-1.27
 74
     0
  0
LTYPE
  5
61
330
5
100
AcDbSymbolTableRecord
100
AcDbLinetypeTableRecord
  2
CENTERX2
 70
     0
  3
Center (2x) ________  __  ________  __  _____
 72
    65
 73
     4
 40
20.32
 49
12.7
 74
     0
 49
-2.54
 74
     0
 49
2.54
 74
     0
 49
-2.54
 74
     0
  0
LTYPE
  5
62
330
5
100
AcDbSymbolTableRecord
100
AcDbLinetypeTableRecord
  2
DOT2
 70
     0
  3
Dot (.5x) ........................................
 72
    65
 73
     2
 40
0.635
 49
0.0
 74
     0
 49
-0.635
 74
     0
  0
ENDTAB
  0
TABLE
  2
LAYER
  5
2
330
0
100
AcDbSymbolTable
 70
     1
  0
LAYER
  5
10
330
2
100
AcDbSymbolTableRecord
100
AcDbLayerTableRecord
  2
0
 70
     0
 62
     7
  6
Continuous
370
    -3
390
F
  0
ENDTAB
  0
TABLE
  2
STYLE
  5
3
330
0
100
AcDbSymbolTable
 70
     2
  0
STYLE
  5
11
330
3
100
AcDbSymbolTableRecord
100
AcDbTextStyleTableRecord
  2
Standard
 70
     0
 40
0.0
 41
1.0
 50
0.0
 71
     0
 42
3.175
  3
txt
  4

  0
STYLE
  5
624
330
3
100
AcDbSymbolTableRecord
100
AcDbTextStyleTableRecord
  2
SLDTEXTSTYLE0
 70
     0
 40
0.0
 41
0.7
 50
0.0
 71
     0
 42
3.175
  3
TXT
  4

  0
ENDTAB
  0
TABLE
  2
VIEW
  5
6
330
0
100
AcDbSymbolTable
 70
     0
  0
ENDTAB
  0
TABLE
  2
UCS
  5
7
330
0
100
AcDbSymbolTable
 70
     0
  0
ENDTAB
  0
TABLE
  2
APPID
  5
9
330
0
100
AcDbSymbolTable
 70
     1
  0
APPID
  5
12
330
9
100
AcDbSymbolTableRecord
100
AcDbRegAppTableRecord
  2
ACAD
 70
     0
  0
ENDTAB
  0
TABLE
  2
DIMSTYLE
  5
A
330
0
100
AcDbSymbolTable
 70
     1
100
AcDbDimStyleTable
  0
DIMSTYLE
105
27
330
A
100
AcDbSymbolTableRecord
100
AcDbDimStyleTableRecord
  2
ISO-25
 70
     0
 41
2.5
 42
0.625
 43
3.75
 44
1.25
 73
     0
 74
     0
 77
     1
 78
     8
140
2.5
141
2.5
143
0.0393700787
147
0.625
171
     3
172
     1
178
     0
271
     2
272
     2
274
     3
278
    44
283
     0
284
     8
340
11
  0
ENDTAB
  0
TABLE
  2
BLOCK_RECORD
  5
1
330
0
100
AcDbSymbolTable
 70
     3
  0
BLOCK_RECORD
  5
1F
330
1
100
AcDbSymbolTableRecord
100
AcDbBlockTableRecord
  2
*Model_Space
340
22
  0
BLOCK_RECORD
  5
1B
330
1
100
AcDbSymbolTableRecord
100
AcDbBlockTableRecord
  2
*Paper_Space
340
1E
  0
BLOCK_RECORD
  5
23
330
1
100
AcDbSymbolTableRecord
100
AcDbBlockTableRecord
  2
*Paper_Space0
340
26
  0
BLOCK_RECORD
  5
2F5
330
1
100
AcDbSymbolTableRecord
100
AcDbBlockTableRecord
  2
*Paper_Space1
340
2F6
  0
BLOCK_RECORD
  5
442
330
1
100
AcDbSymbolTableRecord
100
AcDbBlockTableRecord
  2
*Paper_Space2
340
443
  0
ENDTAB
  0
ENDSEC
  0
SECTION
  2
BLOCKS
  0
BLOCK
  5
20
330
1F
100
AcDbEntity
  8
0
100
AcDbBlockBegin
  2
*Model_Space
 70
     0
 10
0.0
 20
0.0
 30
0.0
  3
*Model_Space
  1

  0
ENDBLK
  5
21
330
1F
100
AcDbEntity
  8
0
100
AcDbBlockEnd
  0
BLOCK
  5
1C
330
1B
100
AcDbEntity
 67
     1
  8
0
100
AcDbBlockBegin
  2
*Paper_Space
 70
     0
 10
0.0
 20
0.0
 30
0.0
  3
*Paper_Space
  1

  0
ENDBLK
  5
1D
330
1B
100
AcDbEntity
 67
     1
  8
0
100
AcDbBlockEnd
  0
BLOCK
  5
24
330
23
100
AcDbEntity
  8
0
100
AcDbBlockBegin
  2
*Paper_Space0
 70
     0
 10
0.0
 20
0.0
 30
0.0
  3
*Paper_Space0
  1

  0
CIRCLE
  5
29E
330
23
100
AcDbEntity
  8
0
  6
Continuous
 62
     7
370
    25
100
AcDbCircle
 10
-288.9096464368
 20
58.1
 30
0.0
 40
15.87500000000006
  0
LWPOLYLINE
  5
2AE
330
23
100
AcDbEntity
  8
0
  6
Continuous
 62
     7
370
    25
100
AcDbPolyline
 90
       17
 70
   128
 43
0.0
 10
345.244248697
 20
448.6352928302
 10
349.3458791302
 20
444.5721965896
 10
353.5246224001
 20
440.6170269101
 10
357.7631532998
 20
436.7861820551
 10
362.043898741
 20
433.0955448333
 10
366.3491106124
 20
429.5604167477
 10
370.660939364
 20
426.1954545558
 10
374.9615080123
 20
423.0146095012
 10
379.2329862582
 20
420.031069472
 10
383.4576644126
 20
417.2572043234
 10
387.6180268211
 20
414.7045145912
 10
391.6968244845
 20
412.3835838111
 10
395.6771465735
 20
410.3040346383
 10
399.542490542
 20
408.474488952
 10
403.2768305469
 20
406.9025321088
 10
406.8646838919
 20
405.5946814933
 10
410.2911752191
 20
404.5563594972
  0
LWPOLYLINE
  5
2B0
330
23
100
AcDbEntity
  8
0
  6
Continuous
 62
     7
370
    25
100
AcDbPolyline
 90
        9
 70
   128
 43
0.0
 10
410.2911752191
 20
404.5563594972
 10
408.8209657399
 20
400.5167330625
 10
407.3495700452
 20
396.4738245726
 10
405.8880106475
 20
392.4579202446
 10
404.4472363737
 20
388.4991040021
 10
403.0380403453
 20
384.6270321111
 10
401.670979125
 20
380.8707110181
 10
400.3562936355
 20
377.2582800582
 10
399.1038324424
 20
373.8168006574
  0
LINE
  5
2BD
330
23
100
AcDbEntity
  8
0
  6
Continuous
 62
     7
370
    25
100
AcDbLine
 10
325.7582421426
 20
467.4732021262
 30
0.0
 11
341.915138278
 21
439.4886371271
 31
0.0
  0
LINE
  5
2BE
330
23
100
AcDbEntity
  8
0
  6
Continuous
 62
     7
370
    25
100
AcDbLine
 10
451.1531194317
 20
402.6829036527
 30
0.0
 11
353.6531194317
 21
571.5578573906
 31
0.0
  0
LINE
  5
2BF
330
23
100
AcDbEntity
  8
0
  6
Continuous
 62
     7
370
    25
100
AcDbLine
 10
-12.7
 20
38.1
 30
0.0
 11
12.7
 21
38.1
 31
0.0
  0
LINE
  5
2C0
330
23
100
AcDbEntity
  8
0
  6
Continuous
 62
     7
370
    25
100
AcDbLine
 10
12.7
 20
38.1
 30
0.0
 11
12.7
 21
38.0767375704
 31
0.0
  0
LINE
  5
2C1
330
23
100
AcDbEntity
  8
0
  6
Continuous
 62
     7
370
    25
100
AcDbLine
 10
-12.7
 20
38.0738676509
 30
0.0
 11
-12.7
 21
38.1
 31
0.0
  0
LINE
  5
2C2
330
23
100
AcDbEntity
  8
0
  6
Continuous
 62
     7
370
    25
100
AcDbLine
 10
-216.6096464368
 20
-38.1165695875
 30
0.0
 11
-216.6096464368
 21
-38.1221124837
 31
0.0
  0
LINE
  5
2C3
330
23
100
AcDbEntity
  8
0
  6
Continuous
 62
     7
370
    25
100
AcDbLine
 10
-191.2096464368
 20
38.0778875163
 30
0.0
 11
-199.9830329157
 21
38.0778875163
 31
0.0
  0
LINE
  5
2C4
330
23
100
AcDbEntity
  8
0
  6
Continuous
 62
     7
370
    25
100
AcDbLine
 10
-191.2096464368
 20
38.0723446201
 30
0.0
 11
-191.2096464368
 21
38.0778875163
 31
0.0
  0
LINE
  5
2C5
330
23
100
AcDbEntity
  8
0
  6
Continuous
 62
     7
370
    25
100
AcDbLine
 10
-216.6096464368
 20
-38.1221124837
 30
0.0
 11
-207.8362599575
 21
-38.1221124837
 31
0.0
  0
LINE
  5
2C6
330
23
100
AcDbEntity
  8
0
  6
Continuous
 62
     7
370
    25
100
AcDbLine
 10
331.0539429065
 20
546.9001839962
 30
0.0
 11
-306.0858757173
 21
399.8048665764
 31
0.0
  0
LINE
  5
2C7
330
23
100
AcDbEntity
  8
0
  6
Continuous
 62
     7
370
    25
100
AcDbLine
 10
283.7059188426
 20
457.7646583133
 30
0.0
 11
266.5646485016
 21
532.01165725
 31
0.0
  0
LINE
  5
2C8
330
23
100
AcDbEntity
  8
0
  6
Continuous
 62
     7
370
    25
100
AcDbLine
 10
349.4572984439
 20
472.9445603859
 30
0.0
 11
-250.8096464368
 21
334.3620166288
 31
0.0
  0
LINE
  5
2C9
330
23
100
AcDbEntity
  8
0
  6
Continuous
 62
     7
370
    25
100
AcDbLine
 10
-181.214326526
 20
428.6337352613
 30
0.0
 11
-164.073056185
 21
354.3867363246
 31
0.0
  0
LINE
  5
2CA
330
23
100
AcDbEntity
  8
0
  6
Continuous
 62
     7
370
    25
100
AcDbLine
 10
-234.073056185
 20
338.2259629459
 30
0.0
 11
-251.214326526
 21
412.4729618825
 31
0.0
  0
LINE
  5
2CB
330
23
100
AcDbEntity
  8
0
  6
Continuous
 62
     7
370
    25
100
AcDbLine
 10
-327.0096464368
 20
-38.1
 30
0.0
 11
-242.8362599575
 21
-38.1
 31
0.0
  0
LINE
  5
2CC
330
23
100
AcDbEntity
  8
0
  6
Continuous
 62
     7
370
    25
100
AcDbLine
 10
-250.8096464368
 20
38.1
 30
0.0
 11
-234.9830329162
 21
38.1
 31
0.0
  0
LINE
  5
2CD
330
23
100
AcDbEntity
  8
0
  6
Continuous
 62
     7
370
    25
100
AcDbLine
 10
-242.8144772298
 20
38.1
 30
0.0
 11
-242.8362599575
 21
-38.1
 31
0.0
  0
LINE
  5
2CE
330
23
100
AcDbEntity
  8
0
  6
Continuous
 62
     7
370
    25
100
AcDbLine
 10
-327.0096464368
 20
-38.1
 30
0.0
 11
-250.8096464368
 21
38.1
 31
0.0
  0
LINE
  5
2CF
330
23
100
AcDbEntity
  8
0
  6
Continuous
 62
     7
370
    25
100
AcDbLine
 10
-242.8144772298
 20
38.1
 30
0.0
 11
-172.816425061
 21
38.0557762632
 31
0.0
  0
LINE
  5
2D0
330
23
100
AcDbEntity
  8
0
  6
Continuous
 62
     7
370
    25
100
AcDbLine
 10
-172.8343121489
 20
-38.144226198
 30
0.0
 11
-172.816425061
 21
38.0557762632
 31
0.0
  0
LINE
  5
2D1
330
23
100
AcDbEntity
  8
0
  6
Continuous
 62
     7
370
    25
100
AcDbLine
 10
-242.8362599575
 20
-38.1
 30
0.0
 11
-172.8343121489
 21
-38.144226198
 31
0.0
  0
LINE
  5
2D2
330
23
100
AcDbEntity
  8
0
  6
Continuous
 62
     7
370
    25
100
AcDbLine
 10
-165.0028678126
 20
-38.144226198
 30
0.0
 11
-172.8343121489
 21
-38.144226198
 31
0.0
  0
LINE
  5
2D3
330
23
100
AcDbEntity
  8
0
  6
Continuous
 62
     7
370
    25
100
AcDbLine
 10
-234.9830329162
 20
38.1
 30
0.0
 11
-166.1730813995
 21
38.0565268877
 31
0.0
  0
LINE
  5
2D4
330
23
100
AcDbEntity
  8
0
  6
Continuous
 62
     7
370
    25
100
AcDbLine
 10
-172.8343121489
 20
-38.144226198
 30
0.0
 11
249.178694457
 21
-38.0965433889
 31
0.0
  0
LINE
  5
2D5
330
23
100
AcDbEntity
  8
0
  6
Continuous
 62
     7
370
    25
100
AcDbLine
 10
-172.816425061
 20
38.0557762632
 30
0.0
 11
195.8206859272
 21
38.0974281856
 31
0.0
  0
LINE
  5
2D6
330
23
100
AcDbEntity
  8
0
  6
Continuous
 62
     7
370
    25
100
AcDbLine
 10
195.8206859272
 20
38.0974281856
 30
0.0
 11
249.1793140728
 21
-38.0974281856
 31
0.0
  0
LINE
  5
2D7
330
23
100
AcDbEntity
  8
0
  6
Continuous
 62
     7
370
    25
100
AcDbLine
 10
-165.0028678126
 20
-38.144226198
 30
0.0
 11
249.1793140728
 21
-38.0974281856
 31
0.0
  0
LINE
  5
2D8
330
23
100
AcDbEntity
  8
0
  6
Continuous
 62
     7
370
    25
100
AcDbLine
 10
249.178694457
 20
-38.0965433889
 30
0.0
 11
410.2911752191
 21
404.5563594972
 31
0.0
  0
LINE
  5
2D9
330
23
100
AcDbEntity
  8
0
  6
Continuous
 62
     7
370
    25
100
AcDbLine
 10
195.8206859272
 20
38.0974281856
 30
0.0
 11
345.244248697
 21
448.6352928302
 31
0.0
  0
LINE
  5
2DA
330
23
100
AcDbEntity
  8
0
  6
Continuous
 62
     7
370
    25
100
AcDbLine
 10
283.9819878197
 20
280.318614405
 30
0.0
 11
355.5868830311
 21
254.2575519636
 31
0.0
  0
LINE
  5
2DB
330
23
100
AcDbEntity
  8
0
  6
Continuous
 62
     7
370
    25
100
AcDbLine
 10
249.1793140728
 20
-38.0974281856
 30
0.0
 11
399.1038324424
 21
373.8168006574
 31
0.0
  0
LINE
  5
2DC
330
23
100
AcDbEntity
  8
0
  6
Continuous
 62
     7
370
    25
100
AcDbLine
 10
355.5868830311
 20
254.2575519636
 30
0.0
 11
352.5492924427
 21
245.9092532351
 31
0.0
  0
LINE
  5
2DD
330
23
100
AcDbEntity
  8
0
  6
Continuous
 62
     7
370
    25
100
AcDbLine
 10
235.2
 20
-38.1
 30
0.0
 11
235.2
 21
-38.0990076937
 31
0.0
  0
LINE
  5
2DE
330
23
100
AcDbEntity
  8
0
  6
Continuous
 62
     7
370
    25
100
AcDbLine
 10
226.4176700491
 20
-38.1
 30
0.0
 11
235.2
 21
-38.1
 31
0.0
  0
LINE
  5
2DF
330
23
100
AcDbEntity
  8
0
  6
Continuous
 62
     7
370
    25
100
AcDbLine
 10
-252.9886219525
 20
346.7076128117
 30
0.0
 11
-306.870158679
 21
400.5891495381
 31
0.0
  0
LINE
  5
2E0
330
23
100
AcDbEntity
  8
0
  6
Continuous
 62
     7
370
    25
100
AcDbLine
 10
-250.8096464368
 20
334.3620166288
 30
0.0
 11
-258.899365242
 21
340.7968695222
 31
0.0
  0
LINE
  5
2E1
330
23
100
AcDbEntity
  8
0
  6
Continuous
 62
     7
370
    25
100
AcDbLine
 10
-270.9491341947
 20
328.7471005696
 30
0.0
 11
-252.9886219525
 21
346.7076128117
 31
0.0
  0
LINE
  5
2E2
330
23
100
AcDbEntity
  8
0
  6
Continuous
 62
     7
370
    25
100
AcDbLine
 10
-306.870158679
 20
400.5891495381
 30
0.0
 11
-327.0096464368
 21
380.4496617803
 31
0.0
  0
LINE
  5
2E3
330
23
100
AcDbEntity
  8
0
  6
Continuous
 62
     7
370
    25
100
AcDbLine
 10
-324.8306709211
 20
382.628637296
 30
0.0
 11
-270.9491341947
 21
328.7471005696
 31
0.0
  0
LINE
  5
2E4
330
23
100
AcDbEntity
  8
0
  6
Continuous
 62
     7
370
    25
100
AcDbLine
 10
-320.520147983
 20
382.628637296
 30
0.0
 11
-270.9491341947
 21
333.0576235077
 31
0.0
  0
LINE
  5
2E5
330
23
100
AcDbEntity
  8
0
  6
Continuous
 62
     7
370
    25
100
AcDbLine
 10
-270.9491341947
 20
333.0576235077
 30
0.0
 11
-257.2991448907
 21
346.7076128117
 31
0.0
  0
LINE
  5
2E6
330
23
100
AcDbEntity
  8
0
  6
Continuous
 62
     7
370
    25
100
AcDbLine
 10
-257.2991448907
 20
346.7076128117
 30
0.0
 11
-306.870158679
 21
396.2786266
 31
0.0
  0
LINE
  5
2E7
330
23
100
AcDbEntity
  8
0
  6
Continuous
 62
     7
370
    25
100
AcDbLine
 10
-306.870158679
 20
396.2786266
 30
0.0
 11
-320.520147983
 21
382.628637296
 31
0.0
  0
LINE
  5
2E8
330
23
100
AcDbEntity
  8
0
  6
Continuous
 62
     7
370
    25
100
AcDbLine
 10
-250.8096464368
 20
334.3620166288
 30
0.0
 11
-250.8096464368
 21
38.1
 31
0.0
  0
LINE
  5
2E9
330
23
100
AcDbEntity
  8
0
  6
Continuous
 62
     7
370
    25
100
AcDbLine
 10
-327.0096464368
 20
380.4496617803
 30
0.0
 11
-327.0096464368
 21
-38.1
 31
0.0
  0
LINE
  5
2EA
330
23
100
AcDbEntity
  8
0
  6
Continuous
 62
     7
370
    25
100
AcDbLine
 10
-24.4721676803
 20
386.6161409332
 30
0.0
 11
238.769536212
 21
156.0984246699
 31
0.0
  0
LINE
  5
2EB
330
23
100
AcDbEntity
  8
0
  6
Continuous
 62
     7
370
    25
100
AcDbLine
 10
-116.0053874075
 20
365.4840320669
 30
0.0
 11
210.8142355157
 21
79.2918672527
 31
0.0
  0
LINE
  5
2EC
330
23
100
AcDbEntity
  8
0
  6
Continuous
 62
     7
370
    25
100
AcDbLine
 10
353.6531194317
 20
571.5578573906
 30
0.0
 11
297.5456217574
 21
539.1641785048
 31
0.0
  0
LINE
  5
2ED
330
23
100
AcDbEntity
  8
0
  6
Continuous
 62
     7
370
    25
100
AcDbLine
 10
451.1531194317
 20
402.6829036527
 30
0.0
 11
398.5579810811
 21
372.3170863679
 31
0.0
  0
LINE
  5
2EE
330
23
100
AcDbEntity
  8
0
  6
Continuous
 62
     7
370
    25
100
AcDbLine
 10
-742.2564485795
 20
517.0956696446
 30
0.0
 11
-735.6824448339
 21
541.6301856324
 31
0.0
  0
LINE
  5
2EF
330
23
100
AcDbEntity
  8
0
  6
Continuous
 62
     7
370
    25
100
AcDbLine
 10
-742.2564485795
 20
517.0956696446
 30
0.0
 11
-305.245387151
 21
399.9989086514
 31
0.0
  0
LINE
  5
2F0
330
23
100
AcDbEntity
  8
0
  6
Continuous
 62
     7
370
    25
100
AcDbLine
 10
-735.6824448339
 20
541.6301856324
 30
0.0
 11
-252.5286698728
 21
412.1695218115
 31
0.0
  0
LINE
  5
2F1
330
23
100
AcDbEntity
  8
0
  6
Continuous
 62
     7
370
    25
100
AcDbLine
 10
-494.4106091518
 20
450.6855771226
 30
0.0
 11
-487.8366054062
 21
475.2200931103
 31
0.0
  0
LINE
  5
2F2
330
23
100
AcDbEntity
  8
0
  6
Continuous
 62
     7
370
    25
100
AcDbLine
 10
-422.1987216982
 20
431.3364601954
 30
0.0
 11
-327.0096464368
 21
327.6518164027
 31
0.0
  0
LINE
  5
2F3
330
23
100
AcDbEntity
  8
0
  6
Continuous
 62
     7
370
    25
100
AcDbLine
 10
-467.9289082164
 20
443.5898267427
 30
0.0
 11
-327.0096464368
 21
290.0936043976
 31
0.0
  0
ARC
  5
2F4
330
23
100
AcDbEntity
  8
0
  6
Continuous
 62
     7
370
    25
100
AcDbCircle
 10
1295.087852375
 20
747.5258995603
 30
0.0
 40
984.6888119354101
100
AcDbArc
 50
191.7560598528
 51
196.1916334566
  0
VIEWPORT
  5
61E
330
23
100
AcDbEntity
  8
0
100
AcDbViewport
 10
0.0
 20
0.0
 30
0.0
 40
205.6
 41
156.0
 68
     1
 69
     1
 12
0.0
 22
145.5709302433
 13
0.0
 23
0.0
 14
10.0
 24
10.0
 15
10.0
 25
10.0
 16
0.0
 26
0.0
 36
1.0
 17
0.0
 27
0.0
 37
0.0
 42
50.0
 43
0.0
 44
0.0
 45
1217.2384574058
 50
0.0
 51
0.0
 72
   100
 90
   557152
  1

281
     0
 71
     1
 74
     0
110
0.0
120
0.0
130
0.0
111
1.0
121
0.0
131
0.0
112
0.0
122
1.0
132
0.0
 79
     0
146
0.0
  0
MTEXT
  5
629
330
23
100
AcDbEntity
  8
0
  6
Continuous
 62
     7
100
AcDbMText
 10
-742.2564485795
 20
-39.1637925897
 30
0.0
 40
4.83362
 41
0.0
 71
     1
 72
     1
  1
SOLIDWORKS Educational Product.
  7
SLDTEXTSTYLE0
 73
     1
 44
1.0
  0
MTEXT
  5
62A
330
23
100
AcDbEntity
  8
0
  6
Continuous
 62
     7
100
AcDbMText
 10
-742.2564485795
 20
-46.4142225897
 30
0.0
 40
4.83362
 41
0.0
 71
     1
 72
     1
  1
For Instructional Use Only.
  7
SLDTEXTSTYLE0
 73
     1
 44
1.0
  0
ENDBLK
  5
25
330
23
100
AcDbEntity
  8
0
100
AcDbBlockEnd
  0
BLOCK
  5
2F7
330
2F5
100
AcDbEntity
  8
0
100
AcDbBlockBegin
  2
*Paper_Space1
 70
     0
 10
0.0
 20
0.0
 30
0.0
  3
*Paper_Space1
  1

  0
LWPOLYLINE
  5
36A
330
2F5
100
AcDbEntity
  8
0
  6
Continuous
 62
     7
370
    25
100
AcDbPolyline
 90
       48
 70
   128
 43
0.0
 10
-31.2780278866
 20
541.6301856324
 10
-31.3556852905
 20
541.6862239654
 10
-33.2981820431
 20
543.2498733684
 10
-34.9297826416
 20
544.8999620737
 10
-36.2352532708
 20
546.6210836478
 10
-37.2024051034
 20
548.3971684422
 10
-37.8222081031
 20
550.2116336318
 10
-38.0888753365
 20
552.0475380439
 10
-37.9999170032
 20
553.8877403337
 10
-37.5561636835
 20
555.7150590283
 10
-36.7617585824
 20
557.5124329453
 10
-35.6241188463
 20
559.2630804888
 10
-34.153866311
 20
560.9506563343
 10
-32.3647283281
 20
562.5594040409
 10
-30.2734095971
 20
564.0743031646
 10
-27.8994361974
 20
565.4812095005
 10
-25.264973279
 20
566.7669871433
 10
-22.3946181123
 20
567.9196311335
 10
-19.3151704303
 20
568.9283795447
 10
-16.0553822061
 20
569.7838139648
 10
-12.6456892042
 20
570.4779474332
 10
-9.1179268094
 20
571.0042990126
 10
-5.5050327886
 20
571.3579543002
 10
-1.8407397599
 20
571.5356113118
 10
1.8407397599
 20
571.5356113118
 10
5.5050327886
 20
571.3579543002
 10
9.1179268094
 20
571.0042990126
 10
12.6456892042
 20
570.4779474332
 10
16.0553822061
 20
569.7838139648
 10
19.3151704303
 20
568.9283795447
 10
22.3946181123
 20
567.9196311335
 10
25.264973279
 20
566.7669871433
 10
27.8994361974
 20
565.4812095005
 10
30.2734095971
 20
564.0743031646
 10
32.3647283281
 20
562.5594040409
 10
34.153866311
 20
560.9506563343
 10
35.6241188463
 20
559.2630804888
 10
36.7617585824
 20
557.5124329453
 10
37.5561636835
 20
555.7150590283
 10
37.9999170033
 20
553.8877403337
 10
38.0888753365
 20
552.0475380439
 10
37.8222081031
 20
550.2116336318
 10
37.2024051034
 20
548.3971684422
 10
36.2352532709
 20
546.6210836478
 10
34.9297826416
 20
544.8999620737
 10
33.2981820431
 20
543.2498733684
 10
31.3556852906
 20
541.6862239654
 10
31.2780278866
 20
541.6301856324
  0
LWPOLYLINE
  5
36D
330
2F5
100
AcDbEntity
  8
0
  6
Continuous
 62
     7
370
    25
100
AcDbPolyline
 90
        7
 70
   128
 43
0.0
 10
-38.1
 20
545.4418313461
 10
-38.0808689537
 20
545.1578537752
 10
-37.7821464743
 20
544.2865838456
 10
-37.1240270245
 20
543.4263030338
 10
-36.1127708661
 20
542.585194631
 10
-34.7579974209
 20
541.7712595542
 10
-34.4824898624
 20
541.6301856324
  0
LWPOLYLINE
  5
37E
330
2F5
100
AcDbEntity
  8
0
  6
Continuous
 62
     7
370
    25
100
AcDbPolyline
 90
        7
 70
   128
 43
0.0
 10
34.4824898624
 20
541.6301856324
 10
34.757997421
 20
541.7712595542
 10
36.1127708661
 20
542.585194631
 10
37.1240270245
 20
543.4263030338
 10
37.7821464744
 20
544.2865838456
 10
38.0808689537
 20
545.1578537752
 10
38.1
 20
545.4418313461
  0
LINE
  5
3B7
330
2F5
100
AcDbEntity
  8
0
  6
Continuous
 62
     7
370
    25
100
AcDbLine
 10
-38.1
 20
552.5078573906
 30
0.0
 11
-38.1
 21
545.4418313461
 31
0.0
  0
LINE
  5
3B8
330
2F5
100
AcDbEntity
  8
0
  6
Continuous
 62
     7
370
    25
100
AcDbLine
 10
-38.1
 20
439.3464284958
 30
0.0
 11
-38.1
 21
430.4077653493
 31
0.0
  0
LINE
  5
3B9
330
2F5
100
AcDbEntity
  8
0
  6
Continuous
 62
     7
370
    25
100
AcDbLine
 10
38.1
 20
430.4077653493
 30
0.0
 11
38.1
 21
439.3464284958
 31
0.0
  0
LINE
  5
3BA
330
2F5
100
AcDbEntity
  8
0
  6
Continuous
 62
     7
370
    25
100
AcDbLine
 10
38.1
 20
545.4418313461
 30
0.0
 11
38.1
 21
552.5078573906
 31
0.0
  0
LINE
  5
3BB
330
2F5
100
AcDbEntity
  8
0
  6
Continuous
 62
     7
370
    25
100
AcDbLine
 10
-152.7
 20
38.0734252638
 30
0.0
 11
-152.7
 21
38.1
 31
0.0
  0
LINE
  5
3BC
330
2F5
100
AcDbEntity
  8
0
  6
Continuous
 62
     7
370
    25
100
AcDbLine
 10
152.7
 20
38.0734252638
 30
0.0
 11
152.7
 21
38.1
 31
0.0
  0
LINE
  5
3BD
330
2F5
100
AcDbEntity
  8
0
  6
Continuous
 62
     7
370
    25
100
AcDbLine
 10
-152.7
 20
38.1
 30
0.0
 11
-117.7
 21
38.1
 31
0.0
  0
LINE
  5
3BE
330
2F5
100
AcDbEntity
  8
0
  6
Continuous
 62
     7
370
    25
100
AcDbLine
 10
-92.3
 20
38.1
 30
0.0
 11
92.3
 21
38.1
 31
0.0
  0
LINE
  5
3BF
330
2F5
100
AcDbEntity
  8
0
  6
Continuous
 62
     7
370
    25
100
AcDbLine
 10
117.7
 20
38.1
 30
0.0
 11
152.7
 21
38.1
 31
0.0
  0
LINE
  5
3C0
330
2F5
100
AcDbEntity
  8
0
  6
Continuous
 62
     7
370
    25
100
AcDbLine
 10
-139.9986727076
 20
209.9580914518
 30
0.0
 11
-117.7
 21
209.9580914518
 31
0.0
  0
LINE
  5
3C1
330
2F5
100
AcDbEntity
  8
0
  6
Continuous
 62
     7
370
    25
100
AcDbLine
 10
117.7
 20
209.9580914518
 30
0.0
 11
139.9986727076
 21
209.9580914518
 31
0.0
  0
LINE
  5
3C2
330
2F5
100
AcDbEntity
  8
0
  6
Continuous
 62
     7
370
    25
100
AcDbLine
 10
-139.9986727076
 20
236.0198750442
 30
0.0
 11
-140.0
 21
236.01987506
 31
0.0
  0
LINE
  5
3C3
330
2F5
100
AcDbEntity
  8
0
  6
Continuous
 62
     7
370
    25
100
AcDbLine
 10
-140.0
 20
236.0200263732
 30
0.0
 11
-117.7
 21
236.0200263732
 31
0.0
  0
LINE
  5
3C4
330
2F5
100
AcDbEntity
  8
0
  6
Continuous
 62
     7
370
    25
100
AcDbLine
 10
117.7
 20
236.0200263732
 30
0.0
 11
140.0
 21
236.0200263732
 31
0.0
  0
LINE
  5
3C5
330
2F5
100
AcDbEntity
  8
0
  6
Continuous
 62
     7
370
    25
100
AcDbLine
 10
140.0
 20
236.01987506
 30
0.0
 11
139.9986727076
 21
236.0198750442
 31
0.0
  0
LINE
  5
3C6
330
2F5
100
AcDbEntity
  8
0
  6
Continuous
 62
     7
370
    25
100
AcDbLine
 10
-140.0
 20
259.8882189412
 30
0.0
 11
-117.7
 21
259.8882189412
 31
0.0
  0
LINE
  5
3C7
330
2F5
100
AcDbEntity
  8
0
  6
Continuous
 62
     7
370
    25
100
AcDbLine
 10
117.7
 20
259.8882189412
 30
0.0
 11
140.0
 21
259.8882189412
 31
0.0
  0
LINE
  5
3C8
330
2F5
100
AcDbEntity
  8
0
  6
Continuous
 62
     7
370
    25
100
AcDbLine
 10
-92.3
 20
204.2723079889
 30
0.0
 11
92.3
 21
204.2723079889
 31
0.0
  0
LINE
  5
3C9
330
2F5
100
AcDbEntity
  8
0
  6
Continuous
 62
     7
370
    25
100
AcDbLine
 10
-92.3
 20
280.4723079889
 30
0.0
 11
-66.9
 21
280.4723079889
 31
0.0
  0
LINE
  5
3CA
330
2F5
100
AcDbEntity
  8
0
  6
Continuous
 62
     7
370
    25
100
AcDbLine
 10
-41.5
 20
280.4723079889
 30
0.0
 11
41.4999999998
 21
280.4723079889
 31
0.0
  0
LINE
  5
3CB
330
2F5
100
AcDbEntity
  8
0
  6
Continuous
 62
     7
370
    25
100
AcDbLine
 10
66.9
 20
280.4723079889
 30
0.0
 11
92.3
 21
280.4723079889
 31
0.0
  0
LINE
  5
3CC
330
2F5
100
AcDbEntity
  8
0
  6
Continuous
 62
     7
370
    25
100
AcDbLine
 10
-116.1500000001
 20
-38.1221124837
 30
0.0
 11
116.1500000003
 21
-38.1221124837
 31
0.0
  0
LINE
  5
3CD
330
2F5
100
AcDbEntity
  8
0
  6
Continuous
 62
     7
370
    25
100
AcDbLine
 10
-104.8349959175
 20
-38.1221124837
 30
0.0
 11
-104.8349938739
 21
-38.1116217966
 31
0.0
  0
LINE
  5
3CE
330
2F5
100
AcDbEntity
  8
0
  6
Continuous
 62
     7
370
    25
100
AcDbLine
 10
104.8349938739
 20
-38.1116217966
 30
0.0
 11
104.8349959175
 21
-38.1221124837
 31
0.0
  0
LINE
  5
3CF
330
2F5
100
AcDbEntity
  8
0
  6
Continuous
 62
     7
370
    25
100
AcDbLine
 10
-92.3
 20
38.0778875163
 30
0.0
 11
92.3
 21
38.0778875163
 31
0.0
  0
LINE
  5
3D0
330
2F5
100
AcDbEntity
  8
0
  6
Continuous
 62
     7
370
    25
100
AcDbLine
 10
-117.7
 20
412.4729618825
 30
0.0
 11
-165.4
 21
428.6337352613
 31
0.0
  0
LINE
  5
3D1
330
2F5
100
AcDbEntity
  8
0
  6
Continuous
 62
     7
370
    25
100
AcDbLine
 10
-117.7
 20
338.2259629459
 30
0.0
 11
-165.4
 21
354.3867363246
 31
0.0
  0
LINE
  5
3D2
330
2F5
100
AcDbEntity
  8
0
  6
Continuous
 62
     7
370
    25
100
AcDbLine
 10
-165.4
 20
532.01165725
 30
0.0
 11
-165.4
 21
79.2837235977
 31
0.0
  0
LINE
  5
3D3
330
2F5
100
AcDbEntity
  8
0
  6
Continuous
 62
     7
370
    25
100
AcDbLine
 10
-117.7
 20
422.8026333985
 30
0.0
 11
-140.0
 21
430.3578796532
 31
0.0
  0
LINE
  5
3D4
330
2F5
100
AcDbEntity
  8
0
  6
Continuous
 62
     7
370
    25
100
AcDbLine
 10
-140.0
 20
430.3578796532
 30
0.0
 11
-165.4000000001
 21
428.6337352613
 31
0.0
  0
LINE
  5
3D5
330
2F5
100
AcDbEntity
  8
0
  6
Continuous
 62
     7
370
    25
100
AcDbLine
 10
-140.0
 20
430.3578796532
 30
0.0
 11
-140.0
 21
528.5361023566
 31
0.0
  0
LINE
  5
3D6
330
2F5
100
AcDbEntity
  8
0
  6
Continuous
 62
     7
370
    25
100
AcDbLine
 10
-140.0
 20
528.5361023566
 30
0.0
 11
-165.4
 21
532.01165725
 31
0.0
  0
LINE
  5
3D7
330
2F5
100
AcDbEntity
  8
0
  6
Continuous
 62
     7
370
    25
100
AcDbLine
 10
140.0
 20
430.3578796532
 30
0.0
 11
165.4
 21
428.6337352613
 31
0.0
  0
LINE
  5
3D8
330
2F5
100
AcDbEntity
  8
0
  6
Continuous
 62
     7
370
    25
100
AcDbLine
 10
165.4000000001
 20
532.01165725
 30
0.0
 11
165.4
 21
79.2918672527
 31
0.0
  0
LINE
  5
3D9
330
2F5
100
AcDbEntity
  8
0
  6
Continuous
 62
     7
370
    25
100
AcDbLine
 10
140.0
 20
528.5361023566
 30
0.0
 11
140.0
 21
430.3578796532
 31
0.0
  0
LINE
  5
3DA
330
2F5
100
AcDbEntity
  8
0
  6
Continuous
 62
     7
370
    25
100
AcDbLine
 10
140.0
 20
528.5361023566
 30
0.0
 11
165.4000000001
 21
532.01165725
 31
0.0
  0
LINE
  5
3DB
330
2F5
100
AcDbEntity
  8
0
  6
Continuous
 62
     7
370
    25
100
AcDbLine
 10
140.0
 20
430.3578796532
 30
0.0
 11
117.7
 21
422.8026333985
 31
0.0
  0
LINE
  5
3DC
330
2F5
100
AcDbEntity
  8
0
  6
Continuous
 62
     7
370
    25
100
AcDbLine
 10
165.4
 20
428.6337352613
 30
0.0
 11
117.7
 21
412.4729618825
 31
0.0
  0
LINE
  5
3DD
330
2F5
100
AcDbEntity
  8
0
  6
Continuous
 62
     7
370
    25
100
AcDbLine
 10
165.4
 20
354.3867363246
 30
0.0
 11
117.7
 21
338.2259629459
 31
0.0
  0
LINE
  5
3DE
330
2F5
100
AcDbEntity
  8
0
  6
Continuous
 62
     7
370
    25
100
AcDbLine
 10
117.7
 20
-38.1
 30
0.0
 11
92.3
 21
-38.1
 31
0.0
  0
LINE
  5
3DF
330
2F5
100
AcDbEntity
  8
0
  6
Continuous
 62
     7
370
    25
100
AcDbLine
 10
92.3
 20
-38.1
 30
0.0
 11
140.0013273078
 21
-38.144226198
 31
0.0
  0
LINE
  5
3E0
330
2F5
100
AcDbEntity
  8
0
  6
Continuous
 62
     7
370
    25
100
AcDbLine
 10
117.7
 20
-38.1
 30
0.0
 11
165.4013272924
 21
-38.144226198
 31
0.0
  0
LINE
  5
3E1
330
2F5
100
AcDbEntity
  8
0
  6
Continuous
 62
     7
370
    25
100
AcDbLine
 10
140.0013273078
 20
-38.144226198
 30
0.0
 11
165.4013272924
 21
-38.144226198
 31
0.0
  0
LINE
  5
3E2
330
2F5
100
AcDbEntity
  8
0
  6
Continuous
 62
     7
370
    25
100
AcDbLine
 10
117.7
 20
38.1
 30
0.0
 11
165.3986726922
 21
38.0557762632
 31
0.0
  0
LINE
  5
3E3
330
2F5
100
AcDbEntity
  8
0
  6
Continuous
 62
     7
370
    25
100
AcDbLine
 10
165.4013272924
 20
-38.144226198
 30
0.0
 11
165.3986726922
 21
38.0557762632
 31
0.0
  0
LINE
  5
3E4
330
2F5
100
AcDbEntity
  8
0
  6
Continuous
 62
     7
370
    25
100
AcDbLine
 10
152.7
 20
38.0969858335
 30
0.0
 11
165.3986726922
 21
38.0974281856
 31
0.0
  0
LINE
  5
3E5
330
2F5
100
AcDbEntity
  8
0
  6
Continuous
 62
     7
370
    25
100
AcDbLine
 10
165.3986726922
 20
38.0557762632
 30
0.0
 11
165.3986726922
 21
79.29186722
 31
0.0
  0
LINE
  5
3E6
330
2F5
100
AcDbEntity
  8
0
  6
Continuous
 62
     7
370
    25
100
AcDbLine
 10
139.9986727076
 20
38.1
 30
0.0
 11
139.9986727076
 21
236.0198750442
 31
0.0
  0
LINE
  5
3E7
330
2F5
100
AcDbEntity
  8
0
  6
Continuous
 62
     7
370
    25
100
AcDbLine
 10
139.9986727076
 20
259.8882189412
 30
0.0
 11
139.9986727076
 21
271.9703156765
 31
0.0
  0
LINE
  5
3E8
330
2F5
100
AcDbEntity
  8
0
  6
Continuous
 62
     7
370
    25
100
AcDbLine
 10
140.0
 20
271.9707519219
 30
0.0
 11
139.9986727076
 21
271.9703156765
 31
0.0
  0
LINE
  5
3E9
330
2F5
100
AcDbEntity
  8
0
  6
Continuous
 62
     7
370
    25
100
AcDbLine
 10
165.4013272924
 20
-38.0965433889
 30
0.0
 11
165.4013272924
 21
254.2575519636
 31
0.0
  0
LINE
  5
3EA
330
2F5
100
AcDbEntity
  8
0
  6
Continuous
 62
     7
370
    25
100
AcDbLine
 10
165.4013272924
 20
254.2575519636
 30
0.0
 11
165.4
 21
267.2880074432
 31
0.0
  0
LINE
  5
3EB
330
2F5
100
AcDbEntity
  8
0
  6
Continuous
 62
     7
370
    25
100
AcDbLine
 10
-165.3986726922
 20
38.0974281856
 30
0.0
 11
-152.7
 21
38.0969858335
 31
0.0
  0
LINE
  5
3EC
330
2F5
100
AcDbEntity
  8
0
  6
Continuous
 62
     7
370
    25
100
AcDbLine
 10
-165.3986726922
 20
79.29186722
 30
0.0
 11
-165.3986726922
 21
38.0557762632
 31
0.0
  0
LINE
  5
3ED
330
2F5
100
AcDbEntity
  8
0
  6
Continuous
 62
     7
370
    25
100
AcDbLine
 10
-139.9986727076
 20
271.9703156765
 30
0.0
 11
-140.0
 21
271.9707519219
 31
0.0
  0
LINE
  5
3EE
330
2F5
100
AcDbEntity
  8
0
  6
Continuous
 62
     7
370
    25
100
AcDbLine
 10
-139.9986727076
 20
271.9703156765
 30
0.0
 11
-139.9986727076
 21
259.8882189412
 31
0.0
  0
LINE
  5
3EF
330
2F5
100
AcDbEntity
  8
0
  6
Continuous
 62
     7
370
    25
100
AcDbLine
 10
-139.9986727076
 20
236.0198750441
 30
0.0
 11
-139.9986727076
 21
38.1
 31
0.0
  0
LINE
  5
3F0
330
2F5
100
AcDbEntity
  8
0
  6
Continuous
 62
     7
370
    25
100
AcDbLine
 10
-165.4013272924
 20
254.2575519636
 30
0.0
 11
-165.4013272924
 21
-38.0965433889
 31
0.0
  0
LINE
  5
3F1
330
2F5
100
AcDbEntity
  8
0
  6
Continuous
 62
     7
370
    25
100
AcDbLine
 10
-165.4013272924
 20
254.2575519636
 30
0.0
 11
-165.4
 21
267.2880074524
 31
0.0
  0
LINE
  5
3F2
330
2F5
100
AcDbEntity
  8
0
  6
Continuous
 62
     7
370
    25
100
AcDbLine
 10
-140.0013273078
 20
-38.144226198
 30
0.0
 11
-165.4013272924
 21
-38.144226198
 31
0.0
  0
LINE
  5
3F3
330
2F5
100
AcDbEntity
  8
0
  6
Continuous
 62
     7
370
    25
100
AcDbLine
 10
-165.4013272924
 20
-38.144226198
 30
0.0
 11
-165.3986726922
 21
38.0557762632
 31
0.0
  0
LINE
  5
3F4
330
2F5
100
AcDbEntity
  8
0
  6
Continuous
 62
     7
370
    25
100
AcDbLine
 10
-140.0013273078
 20
-38.144226198
 30
0.0
 11
-92.3
 21
-38.1
 31
0.0
  0
LINE
  5
3F5
330
2F5
100
AcDbEntity
  8
0
  6
Continuous
 62
     7
370
    25
100
AcDbLine
 10
-165.4013272924
 20
-38.144226198
 30
0.0
 11
-117.7
 21
-38.1
 31
0.0
  0
LINE
  5
3F6
330
2F5
100
AcDbEntity
  8
0
  6
Continuous
 62
     7
370
    25
100
AcDbLine
 10
-165.3986726922
 20
38.0557762632
 30
0.0
 11
-117.7
 21
38.1
 31
0.0
  0
LINE
  5
3F7
330
2F5
100
AcDbEntity
  8
0
  6
Continuous
 62
     7
370
    25
100
AcDbLine
 10
-92.3
 20
-38.1
 30
0.0
 11
-117.7
 21
-38.1
 31
0.0
  0
LINE
  5
3F8
330
2F5
100
AcDbEntity
  8
0
  6
Continuous
 62
     7
370
    25
100
AcDbLine
 10
117.7
 20
382.628637296
 30
0.0
 11
66.9
 21
382.628637296
 31
0.0
  0
LINE
  5
3F9
330
2F5
100
AcDbEntity
  8
0
  6
Continuous
 62
     7
370
    25
100
AcDbLine
 10
41.5
 20
382.628637296
 30
0.0
 11
-41.5
 21
382.628637296
 31
0.0
  0
LINE
  5
3FA
330
2F5
100
AcDbEntity
  8
0
  6
Continuous
 62
     7
370
    25
100
AcDbLine
 10
-66.9
 20
382.628637296
 30
0.0
 11
-117.7
 21
382.628637296
 31
0.0
  0
LINE
  5
3FB
330
2F5
100
AcDbEntity
  8
0
  6
Continuous
 62
     7
370
    25
100
AcDbLine
 10
92.3
 20
328.7471005696
 30
0.0
 11
66.9
 21
328.7471005696
 31
0.0
  0
LINE
  5
3FC
330
2F5
100
AcDbEntity
  8
0
  6
Continuous
 62
     7
370
    25
100
AcDbLine
 10
41.4999999999
 20
328.7471005696
 30
0.0
 11
-41.5
 21
328.7471005696
 31
0.0
  0
LINE
  5
3FD
330
2F5
100
AcDbEntity
  8
0
  6
Continuous
 62
     7
370
    25
100
AcDbLine
 10
-66.9
 20
328.7471005696
 30
0.0
 11
-92.3
 21
328.7471005696
 31
0.0
  0
LINE
  5
3FE
330
2F5
100
AcDbEntity
  8
0
  6
Continuous
 62
     7
370
    25
100
AcDbLine
 10
92.3
 20
400.5891495381
 30
0.0
 11
66.9
 21
400.5891495381
 31
0.0
  0
LINE
  5
3FF
330
2F5
100
AcDbEntity
  8
0
  6
Continuous
 62
     7
370
    25
100
AcDbLine
 10
41.5
 20
400.5891495381
 30
0.0
 11
-41.5
 21
400.5891495381
 31
0.0
  0
LINE
  5
400
330
2F5
100
AcDbEntity
  8
0
  6
Continuous
 62
     7
370
    25
100
AcDbLine
 10
-66.9
 20
400.5891495381
 30
0.0
 11
-92.3
 21
400.5891495381
 31
0.0
  0
LINE
  5
401
330
2F5
100
AcDbEntity
  8
0
  6
Continuous
 62
     7
370
    25
100
AcDbLine
 10
-92.3
 20
-38.1
 30
0.0
 11
-92.3
 21
382.628637296
 31
0.0
  0
LINE
  5
402
330
2F5
100
AcDbEntity
  8
0
  6
Continuous
 62
     7
370
    25
100
AcDbLine
 10
-117.7
 20
380.4496617803
 30
0.0
 11
-92.3
 21
380.4496617803
 31
0.0
  0
LINE
  5
403
330
2F5
100
AcDbEntity
  8
0
  6
Continuous
 62
     7
370
    25
100
AcDbLine
 10
92.3
 20
382.628637296
 30
0.0
 11
92.3
 21
-38.1
 31
0.0
  0
LINE
  5
404
330
2F5
100
AcDbEntity
  8
0
  6
Continuous
 62
     7
370
    25
100
AcDbLine
 10
92.3
 20
380.4496617803
 30
0.0
 11
117.7
 21
380.4496617803
 31
0.0
  0
LINE
  5
405
330
2F5
100
AcDbEntity
  8
0
  6
Continuous
 62
     7
370
    25
100
AcDbLine
 10
140.0
 20
345.7812092005
 30
0.0
 11
140.0
 21
79.2912419539
 31
0.0
  0
LINE
  5
406
330
2F5
100
AcDbEntity
  8
0
  6
Continuous
 62
     7
370
    25
100
AcDbLine
 10
165.4
 20
79.2918672527
 30
0.0
 11
140.0
 21
79.2912419539
 31
0.0
  0
LINE
  5
407
330
2F5
100
AcDbEntity
  8
0
  6
Continuous
 62
     7
370
    25
100
AcDbLine
 10
-140.0
 20
345.7812092005
 30
0.0
 11
-140.0
 21
79.2912419539
 31
0.0
  0
LINE
  5
408
330
2F5
100
AcDbEntity
  8
0
  6
Continuous
 62
     7
370
    25
100
AcDbLine
 10
-140.0
 20
79.2912419539
 30
0.0
 11
-165.3986726922
 21
79.29186722
 31
0.0
  0
LINE
  5
409
330
2F5
100
AcDbEntity
  8
0
  6
Continuous
 62
     7
370
    25
100
AcDbLine
 10
-165.4
 20
79.2837235977
 30
0.0
 11
-165.3986730937
 21
79.2837236303
 31
0.0
  0
LINE
  5
40A
330
2F5
100
AcDbEntity
  8
0
  6
Continuous
 62
     7
370
    25
100
AcDbLine
 10
-165.4
 20
532.01165725
 30
0.0
 11
-38.1
 21
546.8410298885
 31
0.0
  0
LINE
  5
40B
330
2F5
100
AcDbEntity
  8
0
  6
Continuous
 62
     7
370
    25
100
AcDbLine
 10
-140.0
 20
528.5361023566
 30
0.0
 11
-76.323591105
 21
535.9538650886
 31
0.0
  0
LINE
  5
40C
330
2F5
100
AcDbEntity
  8
0
  6
Continuous
 62
     7
370
    25
100
AcDbLine
 10
-140.0
 20
454.28910342
 30
0.0
 11
-117.7
 21
456.8868646913
 31
0.0
  0
LINE
  5
40D
330
2F5
100
AcDbEntity
  8
0
  6
Continuous
 62
     7
370
    25
100
AcDbLine
 10
-0.0000000009
 20
437.0331672797
 30
0.0
 11
-30.9101294599
 21
400.5891495381
 31
0.0
  0
LINE
  5
40E
330
2F5
100
AcDbEntity
  8
0
  6
Continuous
 62
     7
370
    25
100
AcDbLine
 10
-91.8432310175
 20
328.7471005696
 30
0.0
 11
-92.3
 21
328.2085555296
 31
0.0
  0
LINE
  5
40F
330
2F5
100
AcDbEntity
  8
0
  6
Continuous
 62
     7
370
    25
100
AcDbLine
 10
-117.7
 20
298.261154246
 30
0.0
 11
-139.9986727076
 21
271.9703156765
 31
0.0
  0
LINE
  5
410
330
2F5
100
AcDbEntity
  8
0
  6
Continuous
 62
     7
370
    25
100
AcDbLine
 10
-30.5186395416
 20
439.3464284958
 30
0.0
 11
-41.5
 21
426.3990580908
 31
0.0
  0
LINE
  5
411
330
2F5
100
AcDbEntity
  8
0
  6
Continuous
 62
     7
370
    25
100
AcDbLine
 10
-117.7
 20
336.55685424
 30
0.0
 11
-140.0
 21
310.2644507508
 31
0.0
  0
LINE
  5
412
330
2F5
100
AcDbEntity
  8
0
  6
Continuous
 62
     7
370
    25
100
AcDbLine
 10
-69.7420983895
 20
328.7471005696
 30
0.0
 11
-92.3
 21
302.1506229457
 31
0.0
  0
LINE
  5
413
330
2F5
100
AcDbEntity
  8
0
  6
Continuous
 62
     7
370
    25
100
AcDbLine
 10
-117.7
 20
272.203221662
 30
0.0
 11
-128.1450154505
 21
259.8882189412
 31
0.0
  0
LINE
  5
414
330
2F5
100
AcDbEntity
  8
0
  6
Continuous
 62
     7
370
    25
100
AcDbLine
 10
117.7
 20
456.8868646913
 30
0.0
 11
140.0
 21
454.28910342
 31
0.0
  0
LINE
  5
415
330
2F5
100
AcDbEntity
  8
0
  6
Continuous
 62
     7
370
    25
100
AcDbLine
 10
76.323591105
 20
535.9538650886
 30
0.0
 11
140.0
 21
528.5361023566
 31
0.0
  0
LINE
  5
416
330
2F5
100
AcDbEntity
  8
0
  6
Continuous
 62
     7
370
    25
100
AcDbLine
 10
38.1
 20
546.8410298885
 30
0.0
 11
165.4
 21
532.01165725
 31
0.0
  0
LINE
  5
417
330
2F5
100
AcDbEntity
  8
0
  6
Continuous
 62
     7
370
    25
100
AcDbLine
 10
140.0
 20
310.2644507508
 30
0.0
 11
117.7
 21
336.55685424
 31
0.0
  0
LINE
  5
418
330
2F5
100
AcDbEntity
  8
0
  6
Continuous
 62
     7
370
    25
100
AcDbLine
 10
41.5
 20
426.3990580908
 30
0.0
 11
30.5186395416
 21
439.3464284958
 31
0.0
  0
LINE
  5
419
330
2F5
100
AcDbEntity
  8
0
  6
Continuous
 62
     7
370
    25
100
AcDbLine
 10
139.9986727076
 20
271.9703156765
 30
0.0
 11
117.7
 21
298.261154246
 31
0.0
  0
LINE
  5
41A
330
2F5
100
AcDbEntity
  8
0
  6
Continuous
 62
     7
370
    25
100
AcDbLine
 10
92.3
 20
328.2085555296
 30
0.0
 11
91.8432310175
 21
328.7471005696
 31
0.0
  0
LINE
  5
41B
330
2F5
100
AcDbEntity
  8
0
  6
Continuous
 62
     7
370
    25
100
AcDbLine
 10
30.9101294599
 20
400.5891495381
 30
0.0
 11
0.0
 21
437.0331672808
 31
0.0
  0
LINE
  5
41C
330
2F5
100
AcDbEntity
  8
0
  6
Continuous
 62
     7
370
    25
100
AcDbLine
 10
128.1450154505
 20
259.8882189412
 30
0.0
 11
117.7
 21
272.203221662
 31
0.0
  0
LINE
  5
41D
330
2F5
100
AcDbEntity
  8
0
  6
Continuous
 62
     7
370
    25
100
AcDbLine
 10
92.3
 20
302.1506229457
 30
0.0
 11
69.7420983895
 21
328.7471005696
 31
0.0
  0
LINE
  5
41E
330
2F5
100
AcDbEntity
  8
0
  6
Continuous
 62
     7
370
    25
100
AcDbLine
 10
-78.4397830263
 20
470.4549482292
 30
0.0
 11
78.4397830263
 21
470.4549482292
 31
0.0
  0
LINE
  5
41F
330
2F5
100
AcDbEntity
  8
0
  6
Continuous
 62
     7
370
    25
100
AcDbLine
 10
-92.3
 20
445.9204322414
 30
0.0
 11
92.3
 21
445.9204322414
 31
0.0
  0
LINE
  5
420
330
2F5
100
AcDbEntity
  8
0
  6
Continuous
 62
     7
370
    25
100
AcDbLine
 10
92.3
 20
450.1104263208
 30
0.0
 11
92.3
 21
400.4669958518
 31
0.0
  0
LINE
  5
421
330
2F5
100
AcDbEntity
  8
0
  6
Continuous
 62
     7
370
    25
100
AcDbLine
 10
-92.3
 20
439.3464284958
 30
0.0
 11
-66.9
 21
439.3464284958
 31
0.0
  0
LINE
  5
422
330
2F5
100
AcDbEntity
  8
0
  6
Continuous
 62
     7
370
    25
100
AcDbLine
 10
-41.5
 20
439.3464284958
 30
0.0
 11
41.5
 21
439.3464284958
 31
0.0
  0
LINE
  5
423
330
2F5
100
AcDbEntity
  8
0
  6
Continuous
 62
     7
370
    25
100
AcDbLine
 10
66.9
 20
439.3464284958
 30
0.0
 11
92.3
 21
439.3464284958
 31
0.0
  0
LINE
  5
424
330
2F5
100
AcDbEntity
  8
0
  6
Continuous
 62
     7
370
    25
100
AcDbLine
 10
-92.3
 20
400.4669958518
 30
0.0
 11
-92.3
 21
450.1104263208
 31
0.0
  0
LINE
  5
425
330
2F5
100
AcDbEntity
  8
0
  6
Continuous
 62
     7
370
    25
100
AcDbLine
 10
-117.7
 20
450.6855771226
 30
0.0
 11
-72.4564550424
 21
517.0956696446
 31
0.0
  0
LINE
  5
426
330
2F5
100
AcDbEntity
  8
0
  6
Continuous
 62
     7
370
    25
100
AcDbLine
 10
-117.7
 20
-38.1
 30
0.0
 11
-117.7
 21
475.2200931103
 31
0.0
  0
LINE
  5
427
330
2F5
100
AcDbEntity
  8
0
  6
Continuous
 62
     7
370
    25
100
AcDbLine
 10
-117.7
 20
475.2200931103
 30
0.0
 11
-72.4564550424
 21
541.6301856324
 31
0.0
  0
LINE
  5
428
330
2F5
100
AcDbEntity
  8
0
  6
Continuous
 62
     7
370
    25
100
AcDbLine
 10
-72.4564550424
 20
517.0956696446
 30
0.0
 11
-72.4564550424
 21
541.6301856324
 31
0.0
  0
LINE
  5
429
330
2F5
100
AcDbEntity
  8
0
  6
Continuous
 62
     7
370
    25
100
AcDbLine
 10
-92.3
 20
450.1104263208
 30
0.0
 11
-51.1433244105
 21
510.521665899
 31
0.0
  0
LINE
  5
42A
330
2F5
100
AcDbEntity
  8
0
  6
Continuous
 62
     7
370
    25
100
AcDbLine
 10
-92.3
 20
450.1104263208
 30
0.0
 11
-117.7
 21
450.6855771226
 31
0.0
  0
LINE
  5
42B
330
2F5
100
AcDbEntity
  8
0
  6
Continuous
 62
     7
370
    25
100
AcDbLine
 10
-72.4564550424
 20
517.0956696446
 30
0.0
 11
-51.1433244105
 21
510.521665899
 31
0.0
  0
LINE
  5
42C
330
2F5
100
AcDbEntity
  8
0
  6
Continuous
 62
     7
370
    25
100
AcDbLine
 10
-51.1433244105
 20
510.521665899
 30
0.0
 11
51.1433244105
 21
510.521665899
 31
0.0
  0
LINE
  5
42D
330
2F5
100
AcDbEntity
  8
0
  6
Continuous
 62
     7
370
    25
100
AcDbLine
 10
-72.4564550424
 20
517.0956696446
 30
0.0
 11
72.4564550424
 21
517.0956696446
 31
0.0
  0
LINE
  5
42E
330
2F5
100
AcDbEntity
  8
0
  6
Continuous
 62
     7
370
    25
100
AcDbLine
 10
72.4564550424
 20
517.0956696446
 30
0.0
 11
51.1433244105
 21
510.521665899
 31
0.0
  0
LINE
  5
42F
330
2F5
100
AcDbEntity
  8
0
  6
Continuous
 62
     7
370
    25
100
AcDbLine
 10
-72.4564550424
 20
541.6301856324
 30
0.0
 11
72.4564550424
 21
541.6301856324
 31
0.0
  0
LINE
  5
430
330
2F5
100
AcDbEntity
  8
0
  6
Continuous
 62
     7
370
    25
100
AcDbLine
 10
72.4564550424
 20
517.0956696446
 30
0.0
 11
72.4564550424
 21
541.6301856324
 31
0.0
  0
LINE
  5
431
330
2F5
100
AcDbEntity
  8
0
  6
Continuous
 62
     7
370
    25
100
AcDbLine
 10
51.1433244105
 20
510.521665899
 30
0.0
 11
92.3
 21
450.1104263208
 31
0.0
  0
LINE
  5
432
330
2F5
100
AcDbEntity
  8
0
  6
Continuous
 62
     7
370
    25
100
AcDbLine
 10
72.4564550424
 20
517.0956696446
 30
0.0
 11
117.7
 21
450.6855771226
 31
0.0
  0
LINE
  5
433
330
2F5
100
AcDbEntity
  8
0
  6
Continuous
 62
     7
370
    25
100
AcDbLine
 10
92.3
 20
450.1104263208
 30
0.0
 11
117.7
 21
450.6855771226
 31
0.0
  0
LINE
  5
434
330
2F5
100
AcDbEntity
  8
0
  6
Continuous
 62
     7
370
    25
100
AcDbLine
 10
72.4564550424
 20
541.6301856324
 30
0.0
 11
117.7
 21
475.2200931103
 31
0.0
  0
LINE
  5
435
330
2F5
100
AcDbEntity
  8
0
  6
Continuous
 62
     7
370
    25
100
AcDbLine
 10
117.7
 20
475.2200931103
 30
0.0
 11
117.7
 21
-38.1
 31
0.0
  0
LINE
  5
436
330
2F5
100
AcDbEntity
  8
0
  6
Continuous
 62
     7
370
    25
100
AcDbLine
 10
41.5
 20
443.5898267427
 30
0.0
 11
66.9
 21
443.5898267427
 31
0.0
  0
LINE
  5
437
330
2F5
100
AcDbEntity
  8
0
  6
Continuous
 62
     7
370
    25
100
AcDbLine
 10
66.9
 20
443.5898267427
 30
0.0
 11
66.9
 21
262.4266694568
 31
0.0
  0
LINE
  5
438
330
2F5
100
AcDbEntity
  8
0
  6
Continuous
 62
     7
370
    25
100
AcDbLine
 10
66.9
 20
262.4266694568
 30
0.0
 11
41.4999999998
 21
262.4266694568
 31
0.0
  0
LINE
  5
439
330
2F5
100
AcDbEntity
  8
0
  6
Continuous
 62
     7
370
    25
100
AcDbLine
 10
41.5
 20
443.5898267427
 30
0.0
 11
41.4999999998
 21
262.4266694568
 31
0.0
  0
LINE
  5
43A
330
2F5
100
AcDbEntity
  8
0
  6
Continuous
 62
     7
370
    25
100
AcDbLine
 10
-66.9
 20
443.5898267427
 30
0.0
 11
-41.5
 21
443.5898267427
 31
0.0
  0
LINE
  5
43B
330
2F5
100
AcDbEntity
  8
0
  6
Continuous
 62
     7
370
    25
100
AcDbLine
 10
-41.5
 20
443.5898267427
 30
0.0
 11
-41.5
 21
262.4266694568
 31
0.0
  0
LINE
  5
43C
330
2F5
100
AcDbEntity
  8
0
  6
Continuous
 62
     7
370
    25
100
AcDbLine
 10
-41.5
 20
262.4266694568
 30
0.0
 11
-66.9
 21
262.4266694568
 31
0.0
  0
LINE
  5
43D
330
2F5
100
AcDbEntity
  8
0
  6
Continuous
 62
     7
370
    25
100
AcDbLine
 10
-66.9
 20
443.5898267427
 30
0.0
 11
-66.9
 21
262.4266694568
 31
0.0
  0
ARC
  5
43E
330
2F5
100
AcDbEntity
  8
0
  6
Continuous
 62
     7
370
    25
100
AcDbCircle
 10
389.4354450831
 20
589.778836896
 30
0.0
 40
424.9653090026999
100
AcDbArc
 50
190.7487548051
 51
196.3070621533
  0
ARC
  5
43F
330
2F5
100
AcDbEntity
  8
0
  6
Continuous
 62
     7
370
    25
100
AcDbCircle
 10
493.7365995927
 20
143.9420234246
 30
0.0
 40
573.6335374884413
100
AcDbArc
 50
149.3972738374
 51
153.4226185643
  0
ARC
  5
440
330
2F5
100
AcDbEntity
  8
0
  6
Continuous
 62
     7
370
    25
100
AcDbCircle
 10
-398.907305734
 20
592.0577096361
 30
0.0
 40
434.696253188893
100
AcDbArc
 50
343.7551981259
 51
349.1889849158
  0
ARC
  5
441
330
2F5
100
AcDbEntity
  8
0
  6
Continuous
 62
     7
370
    25
100
AcDbCircle
 10
-493.7365995939
 20
143.942023424
 30
0.0
 40
573.6335374897217
100
AcDbArc
 50
26.5773814357
 51
30.6027261622
  0
VIEWPORT
  5
620
330
2F5
100
AcDbEntity
  8
0
100
AcDbViewport
 10
0.0
 20
0.0
 30
0.0
 40
205.6
 41
156.0
 68
     1
 69
     1
 12
0.0
 22
145.5709302433
 13
0.0
 23
0.0
 14
10.0
 24
10.0
 15
10.0
 25
10.0
 16
0.0
 26
0.0
 36
1.0
 17
0.0
 27
0.0
 37
0.0
 42
50.0
 43
0.0
 44
0.0
 45
1217.2384574058
 50
0.0
 51
0.0
 72
   100
 90
   557152
  1

281
     0
 71
     1
 74
     0
110
0.0
120
0.0
130
0.0
111
1.0
121
0.0
131
0.0
112
0.0
122
1.0
132
0.0
 79
     0
146
0.0
  0
MTEXT
  5
62B
330
2F5
100
AcDbEntity
  8
0
  6
Continuous
 62
     7
100
AcDbMText
 10
-165.4013272924
 20
-39.1637925897
 30
0.0
 40
4.83362
 41
0.0
 71
     1
 72
     1
  1
SOLIDWORKS Educational Product.
  7
SLDTEXTSTYLE0
 73
     1
 44
1.0
  0
MTEXT
  5
62C
330
2F5
100
AcDbEntity
  8
0
  6
Continuous
 62
     7
100
AcDbMText
 10
-165.4013272924
 20
-46.4142225897
 30
0.0
 40
4.83362
 41
0.0
 71
     1
 72
     1
  1
For Instructional Use Only.
  7
SLDTEXTSTYLE0
 73
     1
 44
1.0
  0
ENDBLK
  5
2F8
330
2F5
100
AcDbEntity
  8
0
100
AcDbBlockEnd
  0
BLOCK
  5
444
330
442
100
AcDbEntity
  8
0
100
AcDbBlockBegin
  2
*Paper_Space2
 70
     0
 10
0.0
 20
0.0
 30
0.0
  3
*Paper_Space2
  1

  0
LWPOLYLINE
  5
4DC
330
442
100
AcDbEntity
  8
0
  6
Continuous
 62
     7
370
    25
100
AcDbPolyline
 90
       43
 70
   128
 43
0.0
 10
298.7417584427
 20
123.8097326448
 10
298.6163808912
 20
125.6693268268
 10
298.2430489642
 20
127.342622908
 10
297.6301022799
 20
128.7922422191
 10
296.7912330545
 20
129.9858026599
 10
295.7451802402
 20
130.8966420626
 10
294.5153109283
 20
131.50441378
 10
293.129098367
 20
131.7955411963
 10
291.6175082543
 20
131.7635210061
 10
290.0143070154
 20
131.4090684875
 10
288.3553075168
 20
130.740101524
 10
286.6775690659
 20
129.7715637322
 10
285.0185695673
 20
128.5250906459
 10
283.4153683284
 20
127.0285264141
 10
281.9037782157
 20
125.3153018087
 10
280.5175656544
 20
123.4236874365
 10
279.2876963425
 20
121.3959388366
 10
278.2416435282
 20
119.2773525621
 10
277.4027743028
 20
117.1152543295
 10
276.7898276185
 20
114.9579418405
 10
276.4164956915
 20
112.8536058913
 10
276.29111814
 20
110.8492538696
 10
276.4164956915
 20
108.9896596876
 10
276.7898276185
 20
107.3163636064
 10
277.4027743028
 20
105.8667442954
 10
278.2416435282
 20
104.6731838545
 10
279.2876963425
 20
103.7623444518
 10
280.5175656544
 20
103.1545727344
 10
281.9037782157
 20
102.8634453181
 10
283.4153683284
 20
102.8954655083
 10
285.0185695673
 20
103.249918027
 10
286.6775690659
 20
103.9188849904
 10
288.3553075168
 20
104.8874227822
 10
290.0143070154
 20
106.1338958685
 10
291.6175082543
 20
107.6304601003
 10
293.129098367
 20
109.3436847057
 10
294.5153109283
 20
111.2352990779
 10
295.7451802402
 20
113.2630476778
 10
296.7912330545
 20
115.3816339523
 10
297.6301022799
 20
117.5437321849
 10
298.2430489642
 20
119.7010446739
 10
298.6163808912
 20
121.8053806232
 10
298.7417584427
 20
123.8097326448
  0
LWPOLYLINE
  5
4DE
330
442
100
AcDbEntity
  8
0
  6
Continuous
 62
     7
370
    25
100
AcDbPolyline
 90
        3
 70
   128
 43
0.0
 10
278.8638293778
 20
120.5924314468
 10
279.9399294671
 20
122.3872247355
 10
280.3637964319
 20
123.1907321254
  0
LWPOLYLINE
  5
4E1
330
442
100
AcDbEntity
  8
0
  6
Continuous
 62
     7
370
    25
100
AcDbPolyline
 90
       21
 70
   128
 43
0.0
 10
294.3021882398
 20
131.5728469915
 10
294.6359715854
 20
131.2300086223
 10
295.4748408109
 20
130.0364481815
 10
296.0877874952
 20
128.5868288705
 10
296.4611194222
 20
126.9135327892
 10
296.5864969736
 20
125.0539386072
 10
296.4611194222
 20
123.0495865856
 10
296.0877874952
 20
120.9452506363
 10
295.4748408109
 20
118.7879381473
 10
294.6359715854
 20
116.6258399147
 10
293.5899187711
 20
114.5072536402
 10
292.3600494593
 20
112.4795050403
 10
290.973836898
 20
110.5878906681
 10
289.4622467852
 20
108.8746660627
 10
287.8590455463
 20
107.3781018309
 10
286.2000460477
 20
106.1316287446
 10
284.5223075968
 20
105.1630909529
 10
282.8633080983
 20
104.4941239894
 10
281.2601068594
 20
104.1396714707
 10
279.7485167466
 20
104.1076512805
 10
278.5754268738
 20
104.3303454853
  0
LWPOLYLINE
  5
4FE
330
442
100
AcDbEntity
  8
0
  6
Continuous
 62
     7
370
    25
100
AcDbPolyline
 90
       66
 70
   128
 43
0.0
 10
-203.4077393379
 20
318.1653235177
 10
-200.9164996009
 20
316.6740226096
 10
-198.6663587983
 20
315.2161236566
 10
-196.6783258885
 20
313.8052386684
 10
-194.9709625993
 20
312.454540698
 10
-193.5602101216
 20
311.1766408483
 10
-192.4592402711
 20
309.9834705261
 10
-191.6783325068
 20
308.886170041
 10
-191.2247779541
 20
307.8949845921
 10
-191.1028113295
 20
307.0191686109
 10
-191.3135714026
 20
306.2668993552
 10
-191.8550903634
 20
305.6452005603
 10
-192.7223121952
 20
305.1598768604
 10
-193.9071398815
 20
304.8154595921
 10
-195.3985110054
 20
304.6151644867
 10
-197.1825010365
 20
304.5608616456
 10
-199.2424533406
 20
304.6530580797
 10
-201.5591346981
 20
304.8908929758
 10
-204.1109148792
 20
305.2721457337
 10
-206.8739686001
 20
305.7932566989
 10
-209.8224979725
 20
306.4493603988
 10
-212.9289733721
 20
307.23433097
 10
-216.1643904752
 20
308.1408393536
 10
-219.498541064
 20
309.1604217253
 10
-222.9002950728
 20
310.2835585191
 10
-226.3378912409
 20
311.4997633094
 10
-229.7792336592
 20
312.7976807196
 10
-233.1921914406
 20
314.1651924448
 10
-236.5448987181
 20
315.5895303963
 10
-239.8060521669
 20
317.0573959144
 10
-242.9452032762
 20
318.5550839344
 10
-245.9330426376
 20
320.0686109467
 10
-248.7416736003
 20
321.5838455573
 10
-251.3448727336
 20
323.0866404291
 10
-253.7183346686
 20
324.5629643711
 10
-255.8398990307
 20
325.9990333446
 10
-257.689757345
 20
327.3814391603
 10
-259.2506379831
 20
328.6972746678
 10
-260.5079674227
 20
329.9342542653
 10
-261.4500063178
 20
331.0808286077
 10
-262.067959105
 20
332.1262924393
 10
-262.3560561257
 20
333.0608845459
 10
-262.3116074955
 20
333.8758788929
 10
-261.9350282194
 20
334.5636660977
 10
-261.2298343166
 20
335.1178244763
 10
-260.2026099925
 20
335.5331800015
 10
-258.862946164
 20
335.8058546104
 10
-257.2233509111
 20
335.9333024138
 10
-255.2991326931
 20
335.9143334659
 10
-253.108257417
 20
335.7491248746
 10
-250.6711806949
 20
335.439219148
 10
-248.0106568555
 20
334.9875097924
 10
-245.1515264932
 20
334.3982142964
 10
-242.1204845376
 20
333.6768347532
 10
-238.945831011
 20
332.8301064892
 10
-235.657206798
 20
331.8659351781
 10
-232.2853168966
 20
330.7933230277
 10
-228.8616437345
 20
329.6222847286
 10
-225.4181532255
 20
328.3637539499
 10
-221.9869963127
 20
327.0294812543
 10
-218.6002087837
 20
325.6319243866
 10
-215.2894121611
 20
324.1841319586
 10
-212.0855184609
 20
322.6996216182
 10
-209.0184415755
 20
321.1922538384
 10
-206.1168179752
 20
319.6761025061
 10
-203.4077393379
 20
318.1653235177
  0
LWPOLYLINE
  5
4FF
330
442
100
AcDbEntity
  8
0
  6
Continuous
 62
     7
370
    25
100
AcDbPolyline
 90
       35
 70
   128
 43
0.0
 10
-260.1618694882
 20
128.7768966741
 10
-260.2564825683
 20
128.5737120714
 10
-260.7980015291
 20
127.9520132766
 10
-261.6652233609
 20
127.4666895767
 10
-262.8500510472
 20
127.1222723084
 10
-264.3414221711
 20
126.921977203
 10
-266.1254122022
 20
126.8676743618
 10
-268.1853645063
 20
126.959870796
 10
-270.5020458637
 20
127.1977056921
 10
-273.0538260449
 20
127.5789584499
 10
-275.8168797657
 20
128.1000694151
 10
-278.7654091382
 20
128.7561731151
 10
-281.8718845378
 20
129.5411436862
 10
-285.1073016409
 20
130.4476520699
 10
-288.4414522297
 20
131.4672344416
 10
-291.8432062385
 20
132.5903712354
 10
-295.2808024066
 20
133.8065760256
 10
-298.7221448249
 20
135.1044934359
 10
-302.1351026063
 20
136.472005161
 10
-305.4878098837
 20
137.8963431125
 10
-308.7489633326
 20
139.3642086307
 10
-311.8881144418
 20
140.8618966507
 10
-314.8759538033
 20
142.375423663
 10
-317.684584766
 20
143.8906582736
 10
-320.2877838993
 20
145.3934531454
 10
-322.6612458343
 20
146.8697770874
 10
-324.7828101964
 20
148.3058460608
 10
-326.6326685107
 20
149.6882518766
 10
-328.1935491487
 20
151.004087384
 10
-329.4508785884
 20
152.2410669816
 10
-330.3929174835
 20
153.387641324
 10
-331.0108702707
 20
154.4331051556
 10
-331.2989672914
 20
155.3676972622
 10
-331.2545186612
 20
156.1826916092
 10
-331.202211119
 20
156.3397314519
  0
LWPOLYLINE
  5
504
330
442
100
AcDbEntity
  8
0
  6
Continuous
 62
     7
370
    25
100
AcDbPolyline
 90
        8
 70
   128
 43
0.0
 10
-207.508786639
 20
296.0834684975
 10
-204.5485361224
 20
296.7362379655
 10
-201.8268104829
 20
297.5419685472
 10
-199.3694997253
 20
298.4929958521
 10
-197.1999786476
 20
299.5802733761
 10
-195.3388844919
 20
300.793458556
 10
-193.8039206356
 20
302.1210111506
 10
-192.609688191
 20
303.5503030161
  0
LWPOLYLINE
  5
508
330
442
100
AcDbEntity
  8
0
  6
Continuous
 62
     7
370
    25
100
AcDbPolyline
 90
       13
 70
   128
 43
0.0
 10
-263.3027652567
 20
147.3731855201
 10
-260.7693964208
 20
149.5559504212
 10
-258.2335692126
 20
152.0891145122
 10
-255.7057972549
 20
154.9621752115
 10
-253.1965607735
 20
158.163220715
 10
-250.7162631452
 20
161.6789793829
 10
-248.2751877654
 20
165.4948747642
 10
-245.883455413
 20
169.5950860314
 10
-243.5509822888
 20
173.9626135737
 10
-241.287438903
 20
178.5793494785
 10
-239.102209981
 20
183.4261526069
 10
-237.0043555536
 20
188.4829279541
 10
-236.3889161229
 20
190.0492129022
  0
LWPOLYLINE
  5
50C
330
442
100
AcDbEntity
  8
0
  6
Continuous
 62
     7
370
    25
100
AcDbPolyline
 90
        9
 70
   128
 43
0.0
 10
-259.9238035317
 20
129.4558854972
 10
-259.583864496
 20
131.0472317753
 10
-259.4640485695
 20
132.8544409239
 10
-259.5652533166
 20
134.8639747862
 10
-259.886720593
 20
137.0607795516
 10
-260.4260422243
 20
139.4283985265
 10
-261.179178047
 20
141.9490954147
 10
-262.1404861734
 20
144.6039871835
 10
-263.3027652567
 20
147.3731855201
  0
LINE
  5
54E
330
442
100
AcDbEntity
  8
0
  6
Continuous
 62
     7
370
    25
100
AcDbLine
 10
-262.2592999533
 20
334.0329187356
 30
0.0
 11
-331.202211119
 21
156.3397314519
 31
0.0
  0
LINE
  5
54F
330
442
100
AcDbEntity
  8
0
  6
Continuous
 62
     7
370
    25
100
AcDbLine
 10
-260.1618694882
 20
128.7768966741
 30
0.0
 11
-259.9064134009
 21
129.435308186
 31
0.0
  0
LINE
  5
550
330
442
100
AcDbEntity
  8
0
  6
Continuous
 62
     7
370
    25
100
AcDbLine
 10
-236.3889161229
 20
190.0492129022
 30
0.0
 11
-221.3041316076
 21
228.928677008
 31
0.0
  0
LINE
  5
551
330
442
100
AcDbEntity
  8
0
  6
Continuous
 62
     7
370
    25
100
AcDbLine
 10
-192.3770292765
 20
303.4852764493
 30
0.0
 11
-191.2189583225
 21
306.4700839579
 31
0.0
  0
LINE
  5
552
330
442
100
AcDbEntity
  8
0
  6
Continuous
 62
     7
370
    25
100
AcDbLine
 10
98.9949493661
 20
-36.4067459149
 30
0.0
 11
27.0376838832
 21
5.1332992437
 31
0.0
  0
LINE
  5
553
330
442
100
AcDbEntity
  8
0
  6
Continuous
 62
     7
370
    25
100
AcDbLine
 10
-29.1097204715
 20
37.5465058432
 30
0.0
 11
-116.9554616083
 21
88.2587727604
 31
0.0
  0
LINE
  5
554
330
442
100
AcDbEntity
  8
0
  6
Continuous
 62
     7
370
    25
100
AcDbLine
 10
98.9949493661
 20
-36.4067459149
 30
0.0
 11
98.9949493661
 21
-36.4261018652
 31
0.0
  0
LINE
  5
555
330
442
100
AcDbEntity
  8
0
  6
Continuous
 62
     7
370
    25
100
AcDbLine
 10
36.1344487406
 20
-62.3385611939
 30
0.0
 11
-1.6910775212
 21
-40.5023496798
 31
0.0
  0
LINE
  5
556
330
442
100
AcDbEntity
  8
0
  6
Continuous
 62
     7
370
    25
100
AcDbLine
 10
-57.838481876
 20
-8.0891430803
 30
0.0
 11
-64.7614345121
 21
-4.0926075921
 31
0.0
  0
LINE
  5
557
330
442
100
AcDbEntity
  8
0
  6
Continuous
 62
     7
370
    25
100
AcDbLine
 10
-116.9554616083
 20
88.2587727604
 30
0.0
 11
-116.9554616083
 21
88.2394168102
 31
0.0
  0
LINE
  5
558
330
442
100
AcDbEntity
  8
0
  6
Continuous
 62
     7
370
    25
100
AcDbLine
 10
116.9554616083
 20
-26.0383628947
 30
0.0
 11
98.9949493661
 21
-36.4067459149
 31
0.0
  0
LINE
  5
559
330
442
100
AcDbEntity
  8
0
  6
Continuous
 62
     7
370
    25
100
AcDbLine
 10
116.9554616083
 20
-26.0600622514
 30
0.0
 11
116.9554616083
 21
-26.0383628947
 31
0.0
  0
LINE
  5
55A
330
442
100
AcDbEntity
  8
0
  6
Continuous
 62
     7
370
    25
100
AcDbLine
 10
116.9554616083
 20
-26.0383628947
 30
0.0
 11
36.6123814005
 21
20.3427100603
 31
0.0
  0
LINE
  5
55B
330
442
100
AcDbEntity
  8
0
  6
Continuous
 62
     7
370
    25
100
AcDbLine
 10
-19.5350229542
 20
52.7559166597
 30
0.0
 11
-98.9949493661
 21
98.6271557806
 31
0.0
  0
LINE
  5
55C
330
442
100
AcDbEntity
  8
0
  6
Continuous
 62
     7
370
    25
100
AcDbLine
 10
-98.9949493661
 20
98.6271557806
 30
0.0
 11
-116.9554616083
 21
88.2587727604
 31
0.0
  0
LINE
  5
55D
330
442
100
AcDbEntity
  8
0
  6
Continuous
 62
     7
370
    25
100
AcDbLine
 10
-147.1845546436
 20
-8.3367460239
 30
0.0
 11
-345.1758070944
 21
105.9611711164
 31
0.0
  0
LINE
  5
55E
330
442
100
AcDbEntity
  8
0
  6
Continuous
 62
     7
370
    25
100
AcDbLine
 10
-345.1758070944
 20
105.9611711164
 30
0.0
 11
-310.745434524
 21
140.3064566428
 31
0.0
  0
LINE
  5
55F
330
442
100
AcDbEntity
  8
0
  6
Continuous
 62
     7
370
    25
100
AcDbLine
 10
-339.0329501231
 20
90.0180136253
 30
0.0
 11
-345.1758070944
 21
105.9611711164
 31
0.0
  0
LINE
  5
560
330
442
100
AcDbEntity
  8
0
  6
Continuous
 62
     7
370
    25
100
AcDbLine
 10
-141.0416976724
 20
-24.279903515
 30
0.0
 11
-339.0329501231
 21
90.0180136253
 31
0.0
  0
LINE
  5
561
330
442
100
AcDbEntity
  8
0
  6
Continuous
 62
     7
370
    25
100
AcDbLine
 10
178.2296645313
 20
351.6270867284
 30
0.0
 11
130.0437581211
 21
379.4442183947
 31
0.0
  0
LINE
  5
562
330
442
100
AcDbEntity
  8
0
  6
Continuous
 62
     7
370
    25
100
AcDbLine
 10
242.615157686
 20
252.2377228279
 30
0.0
 11
198.5940094958
 21
277.65059075
 31
0.0
  0
LINE
  5
563
330
442
100
AcDbEntity
  8
0
  6
Continuous
 62
     7
370
    25
100
AcDbLine
 10
130.0437581211
 20
336.6562245127
 30
0.0
 11
130.0437581211
 21
379.4442183947
 31
0.0
  0
LINE
  5
564
330
442
100
AcDbEntity
  8
0
  6
Continuous
 62
     7
370
    25
100
AcDbLine
 10
130.0437581211
 20
379.4442183947
 30
0.0
 11
135.118029173
 21
382.3735327208
 31
0.0
  0
LINE
  5
565
330
442
100
AcDbEntity
  8
0
  6
Continuous
 62
     7
370
    25
100
AcDbLine
 10
221.5634822838
 20
59.2913798279
 30
0.0
 11
221.5634830472
 21
59.2868533862
 31
0.0
  0
LINE
  5
566
330
442
100
AcDbEntity
  8
0
  6
Continuous
 62
     7
370
    25
100
AcDbLine
 10
180.3209981926
 20
20.879749244
 30
0.0
 11
75.1656717209
 21
81.5846270764
 31
0.0
  0
LINE
  5
567
330
442
100
AcDbEntity
  8
0
  6
Continuous
 62
     7
370
    25
100
AcDbLine
 10
221.5634822838
 20
59.2913798279
 30
0.0
 11
103.8944331253
 21
127.2202759999
 31
0.0
  0
LINE
  5
568
330
442
100
AcDbEntity
  8
0
  6
Continuous
 62
     7
370
    25
100
AcDbLine
 10
223.539811332
 20
65.3131332429
 30
0.0
 11
221.5634822838
 21
59.2913798279
 31
0.0
  0
LINE
  5
569
330
442
100
AcDbEntity
  8
0
  6
Continuous
 62
     7
370
    25
100
AcDbLine
 10
227.2828239256
 20
76.7264402172
 30
0.0
 11
113.4691306427
 21
142.4296868165
 31
0.0
  0
LINE
  5
56A
330
442
100
AcDbEntity
  8
0
  6
Continuous
 62
     7
370
    25
100
AcDbLine
 10
221.8520915343
 20
365.1801231415
 30
0.0
 11
245.093340743
 21
356.4524104212
 31
0.0
  0
LINE
  5
56B
330
442
100
AcDbEntity
  8
0
  6
Continuous
 62
     7
370
    25
100
AcDbLine
 10
232.9726322466
 20
288.8295695528
 30
0.0
 11
245.0933407429
 21
356.4524104213
 31
0.0
  0
LINE
  5
56C
330
442
100
AcDbEntity
  8
0
  6
Continuous
 62
     7
370
    25
100
AcDbLine
 10
260.8618219634
 20
391.3020967866
 30
0.0
 11
245.0933407429
 21
356.4524104213
 31
0.0
  0
LINE
  5
56D
330
442
100
AcDbEntity
  8
0
  6
Continuous
 62
     7
370
    25
100
AcDbLine
 10
260.8618219634
 20
391.3020967866
 30
0.0
 11
248.7411134671
 21
323.6792559181
 31
0.0
  0
LINE
  5
56E
330
442
100
AcDbEntity
  8
0
  6
Continuous
 62
     7
370
    25
100
AcDbLine
 10
248.7411134671
 20
323.6792559181
 30
0.0
 11
232.9726322466
 21
288.8295695528
 31
0.0
  0
LINE
  5
56F
330
442
100
AcDbEntity
  8
0
  6
Continuous
 62
     7
370
    25
100
AcDbLine
 10
237.6205727548
 20
400.0298095068
 30
0.0
 11
221.8520915343
 21
365.1801231415
 31
0.0
  0
LINE
  5
570
330
442
100
AcDbEntity
  8
0
  6
Continuous
 62
     7
370
    25
100
AcDbLine
 10
260.8618219634
 20
391.3020967866
 30
0.0
 11
237.6205727548
 21
400.0298095068
 31
0.0
  0
LINE
  5
571
330
442
100
AcDbEntity
  8
0
  6
Continuous
 62
     7
370
    25
100
AcDbLine
 10
245.093340743
 20
356.4524104212
 30
0.0
 11
-71.5342089719
 21
258.0795090149
 31
0.0
  0
LINE
  5
572
330
442
100
AcDbEntity
  8
0
  6
Continuous
 62
     7
370
    25
100
AcDbLine
 10
232.9726322466
 20
288.8295695528
 30
0.0
 11
-83.6549174681
 21
190.4566681464
 31
0.0
  0
LINE
  5
573
330
442
100
AcDbEntity
  8
0
  6
Continuous
 62
     7
370
    25
100
AcDbLine
 10
-83.6549174681
 20
190.4566681464
 30
0.0
 11
-71.5342089719
 21
258.0795090149
 31
0.0
  0
LINE
  5
574
330
442
100
AcDbEntity
  8
0
  6
Continuous
 62
     7
370
    25
100
AcDbLine
 10
-78.8497362054
 20
271.7551786614
 30
0.0
 11
-71.5342089719
 21
258.0795090149
 31
0.0
  0
LINE
  5
575
330
442
100
AcDbEntity
  8
0
  6
Continuous
 62
     7
370
    25
100
AcDbLine
 10
221.8520915343
 20
365.1801231415
 30
0.0
 11
-78.8497362054
 21
271.7551786614
 31
0.0
  0
LINE
  5
576
330
442
100
AcDbEntity
  8
0
  6
Continuous
 62
     7
370
    25
100
AcDbLine
 10
-305.4451321884
 20
393.1134107104
 30
0.0
 11
-317.5658406847
 21
325.4905698419
 31
0.0
  0
LINE
  5
577
330
442
100
AcDbEntity
  8
0
  6
Continuous
 62
     7
370
    25
100
AcDbLine
 10
-276.8396349377
 20
386.0523143166
 30
0.0
 11
-305.4451321884
 21
393.1134107104
 31
0.0
  0
LINE
  5
578
330
442
100
AcDbEntity
  8
0
  6
Continuous
 62
     7
370
    25
100
AcDbLine
 10
-276.8396349377
 20
386.0523143166
 30
0.0
 11
23.8621928021
 21
479.4772587967
 31
0.0
  0
LINE
  5
579
330
442
100
AcDbEntity
  8
0
  6
Continuous
 62
     7
370
    25
100
AcDbLine
 10
-305.4451321884
 20
393.1134107104
 30
0.0
 11
11.1824175264
 21
491.4863121168
 31
0.0
  0
LINE
  5
57A
330
442
100
AcDbEntity
  8
0
  6
Continuous
 62
     7
370
    25
100
AcDbLine
 10
23.8621928021
 20
479.4772587967
 30
0.0
 11
11.1824175264
 21
491.4863121168
 31
0.0
  0
LINE
  5
57B
330
442
100
AcDbEntity
  8
0
  6
Continuous
 62
     7
370
    25
100
AcDbLine
 10
-240.8993836381
 20
333.3615160444
 30
0.0
 11
11.7414843058
 21
411.8544179282
 31
0.0
  0
LINE
  5
57C
330
442
100
AcDbEntity
  8
0
  6
Continuous
 62
     7
370
    25
100
AcDbLine
 10
11.7414843058
 20
411.8544179282
 30
0.0
 11
23.8621928021
 21
479.4772587967
 31
0.0
  0
LINE
  5
57D
330
442
100
AcDbEntity
  8
0
  6
Continuous
 62
     7
370
    25
100
AcDbLine
 10
11.7414843058
 20
411.8544179282
 30
0.0
 11
90.7836662271
 21
407.9672156726
 31
0.0
  0
LINE
  5
57E
330
442
100
AcDbEntity
  8
0
  6
Continuous
 62
     7
370
    25
100
AcDbLine
 10
23.8621928021
 20
479.4772587967
 30
0.0
 11
107.0886609477
 21
475.3842782281
 31
0.0
  0
LINE
  5
57F
330
442
100
AcDbEntity
  8
0
  6
Continuous
 62
     7
370
    25
100
AcDbLine
 10
107.0886609477
 20
475.3842782281
 30
0.0
 11
103.0484247823
 21
452.8433312719
 31
0.0
  0
LINE
  5
580
330
442
100
AcDbEntity
  8
0
  6
Continuous
 62
     7
370
    25
100
AcDbLine
 10
11.1824175264
 20
491.4863121168
 30
0.0
 11
94.408885672
 21
487.3933315482
 31
0.0
  0
LINE
  5
581
330
442
100
AcDbEntity
  8
0
  6
Continuous
 62
     7
370
    25
100
AcDbLine
 10
94.408885672
 20
487.3933315482
 30
0.0
 11
107.0886609477
 21
475.3842782281
 31
0.0
  0
LINE
  5
582
330
442
100
AcDbEntity
  8
0
  6
Continuous
 62
     7
370
    25
100
AcDbLine
 10
165.9647826054
 20
140.0536934254
 30
0.0
 11
126.3681452079
 21
162.9197765865
 31
0.0
  0
LINE
  5
583
330
442
100
AcDbEntity
  8
0
  6
Continuous
 62
     7
370
    25
100
AcDbLine
 10
165.9647826054
 20
140.0536934254
 30
0.0
 11
141.7748502369
 21
126.089142713
 31
0.0
  0
LINE
  5
584
330
442
100
AcDbEntity
  8
0
  6
Continuous
 62
     7
370
    25
100
AcDbLine
 10
47.2324806765
 20
158.8161227471
 30
0.0
 11
17.6679878357
 21
155.5696587646
 31
0.0
  0
LINE
  5
585
330
442
100
AcDbEntity
  8
0
  6
Continuous
 62
     7
370
    25
100
AcDbLine
 10
17.6679878357
 20
155.5696587646
 30
0.0
 11
17.6755545943
 21
111.8649339034
 31
0.0
  0
LINE
  5
586
330
442
100
AcDbEntity
  8
0
  6
Continuous
 62
     7
370
    25
100
AcDbLine
 10
57.3288153004
 20
174.854154315
 30
0.0
 11
5.2451430011
 21
169.1348691202
 31
0.0
  0
LINE
  5
587
330
442
100
AcDbEntity
  8
0
  6
Continuous
 62
     7
370
    25
100
AcDbLine
 10
17.6679878357
 20
155.5696587646
 30
0.0
 11
5.2451430011
 21
169.1348691202
 31
0.0
  0
LINE
  5
588
330
442
100
AcDbEntity
  8
0
  6
Continuous
 62
     7
370
    25
100
AcDbLine
 10
-265.3069110701
 20
-53.6689799818
 30
0.0
 11
-275.1922706268
 21
-75.6750019551
 31
0.0
  0
LINE
  5
589
330
442
100
AcDbEntity
  8
0
  6
Continuous
 62
     7
370
    25
100
AcDbLine
 10
-241.5304473506
 20
-0.7396575775
 30
0.0
 11
-237.4605838789
 21
8.3203573337
 31
0.0
  0
LINE
  5
58A
330
442
100
AcDbEntity
  8
0
  6
Continuous
 62
     7
370
    25
100
AcDbLine
 10
-275.1922706268
 20
-75.6750019551
 30
0.0
 11
-293.1523447235
 21
-65.305643539
 31
0.0
  0
LINE
  5
58B
330
442
100
AcDbEntity
  8
0
  6
Continuous
 62
     7
370
    25
100
AcDbLine
 10
17.6679878357
 20
155.5696587646
 30
0.0
 11
-89.9946453864
 21
93.4313908881
 31
0.0
  0
LINE
  5
58C
330
442
100
AcDbEntity
  8
0
  6
Continuous
 62
     7
370
    25
100
AcDbLine
 10
-107.9742669497
 20
83.0543221913
 30
0.0
 11
-113.1192273496
 21
80.0848710644
 31
0.0
  0
LINE
  5
58D
330
442
100
AcDbEntity
  8
0
  6
Continuous
 62
     7
370
    25
100
AcDbLine
 10
-217.4845968062
 20
19.8496428312
 30
0.0
 11
-237.4605838789
 21
8.3203573337
 31
0.0
  0
LINE
  5
58E
330
442
100
AcDbEntity
  8
0
  6
Continuous
 62
     7
370
    25
100
AcDbLine
 10
-0.6259990917
 20
82.7929085902
 30
0.0
 11
-36.1001367715
 21
62.3187533158
 31
0.0
  0
LINE
  5
58F
330
442
100
AcDbEntity
  8
0
  6
Continuous
 62
     7
370
    25
100
AcDbLine
 10
-163.5900881913
 20
-11.2629947411
 30
0.0
 11
-193.4491771791
 21
-28.496384029
 31
0.0
  0
LINE
  5
590
330
442
100
AcDbEntity
  8
0
  6
Continuous
 62
     7
370
    25
100
AcDbLine
 10
-265.3070792647
 20
-69.9696922253
 30
0.0
 11
-275.1922706268
 21
-75.6750019551
 31
0.0
  0
LINE
  5
591
330
442
100
AcDbEntity
  8
0
  6
Continuous
 62
     7
370
    25
100
AcDbLine
 10
5.2451430011
 20
169.1348691202
 30
0.0
 11
-124.8976655598
 21
94.0220053666
 31
0.0
  0
LINE
  5
592
330
442
100
AcDbEntity
  8
0
  6
Continuous
 62
     7
370
    25
100
AcDbLine
 10
-235.4457349051
 20
30.2183871508
 30
0.0
 11
-243.9963712454
 21
25.2833255094
 31
0.0
  0
LINE
  5
593
330
442
100
AcDbEntity
  8
0
  6
Continuous
 62
     7
370
    25
100
AcDbLine
 10
-348.2858833032
 20
114.0319998431
 30
0.0
 11
-368.394296438
 21
129.9771526802
 31
0.0
  0
LINE
  5
594
330
442
100
AcDbEntity
  8
0
  6
Continuous
 62
     7
370
    25
100
AcDbLine
 10
-368.394296438
 20
129.9771526802
 30
0.0
 11
-324.4061381586
 21
173.8559030918
 31
0.0
  0
LINE
  5
595
330
442
100
AcDbEntity
  8
0
  6
Continuous
 62
     7
370
    25
100
AcDbLine
 10
-237.4605838789
 20
8.3203573337
 30
0.0
 11
-248.8876995096
 21
37.9782681432
 31
0.0
  0
LINE
  5
596
330
442
100
AcDbEntity
  8
0
  6
Continuous
 62
     7
370
    25
100
AcDbLine
 10
-275.1922706268
 20
-75.6750019551
 30
0.0
 11
-348.2858833032
 21
114.0319998431
 31
0.0
  0
LINE
  5
597
330
442
100
AcDbEntity
  8
0
  6
Continuous
 62
     7
370
    25
100
AcDbLine
 10
-293.1523447235
 20
-65.305643539
 30
0.0
 11
-368.394296438
 21
129.9771526802
 31
0.0
  0
LINE
  5
598
330
442
100
AcDbEntity
  8
0
  6
Continuous
 62
     7
370
    25
100
AcDbLine
 10
-134.4814961466
 20
-5.0578326276
 30
0.0
 11
-59.239544432
 21
-200.3406288467
 31
0.0
  0
LINE
  5
599
330
442
100
AcDbEntity
  8
0
  6
Continuous
 62
     7
370
    25
100
AcDbLine
 10
-83.8510662622
 20
45.4525807239
 30
0.0
 11
-134.4814961466
 21
-5.0578326276
 31
0.0
  0
LINE
  5
59A
330
442
100
AcDbEntity
  8
0
  6
Continuous
 62
     7
370
    25
100
AcDbLine
 10
-83.8510662622
 20
45.4525807239
 30
0.0
 11
-51.8810351627
 21
-37.522367773
 31
0.0
  0
LINE
  5
59B
330
442
100
AcDbEntity
  8
0
  6
Continuous
 62
     7
370
    25
100
AcDbLine
 10
-32.1131666322
 20
-88.8278503391
 30
0.0
 11
-21.5116118558
 21
-116.3431023207
 31
0.0
  0
LINE
  5
59C
330
442
100
AcDbEntity
  8
0
  6
Continuous
 62
     7
370
    25
100
AcDbLine
 10
-59.239544432
 20
-200.3406288467
 30
0.0
 11
-21.5116118558
 21
-116.3431023207
 31
0.0
  0
LINE
  5
59D
330
442
100
AcDbEntity
  8
0
  6
Continuous
 62
     7
370
    25
100
AcDbLine
 10
-150.2941074743
 20
-0.266219437
 30
0.0
 11
-134.4814961466
 21
-5.0578326276
 31
0.0
  0
LINE
  5
59E
330
442
100
AcDbEntity
  8
0
  6
Continuous
 62
     7
370
    25
100
AcDbLine
 10
-150.2941074743
 20
-0.266219437
 30
0.0
 11
-77.2004947978
 21
-189.9732212352
 31
0.0
  0
LINE
  5
59F
330
442
100
AcDbEntity
  8
0
  6
Continuous
 62
     7
370
    25
100
AcDbLine
 10
-77.2004947978
 20
-189.9732212352
 30
0.0
 11
-59.239544432
 21
-200.3406288467
 31
0.0
  0
LINE
  5
5A0
330
442
100
AcDbEntity
  8
0
  6
Continuous
 62
     7
370
    25
100
AcDbLine
 10
-265.3070792769
 20
-69.9708760377
 30
0.0
 11
-265.3064372758
 21
-7.7508367914
 31
0.0
  0
LINE
  5
5A1
330
442
100
AcDbEntity
  8
0
  6
Continuous
 62
     7
370
    25
100
AcDbLine
 10
-113.6856873502
 20
-95.2796326206
 30
0.0
 11
-265.3064372758
 21
-7.7508367914
 31
0.0
  0
LINE
  5
5A2
330
442
100
AcDbEntity
  8
0
  6
Continuous
 62
     7
370
    25
100
AcDbLine
 10
-82.8546587918
 20
-175.298416424
 30
0.0
 11
-265.3070792769
 21
-69.9708760377
 31
0.0
  0
LINE
  5
5A3
330
442
100
AcDbEntity
  8
0
  6
Continuous
 62
     7
370
    25
100
AcDbLine
 10
-265.3064372758
 20
-7.7508367914
 30
0.0
 11
-247.3453370724
 21
2.617206806
 31
0.0
  0
LINE
  5
5A4
330
442
100
AcDbEntity
  8
0
  6
Continuous
 62
     7
370
    25
100
AcDbLine
 10
-123.9610267023
 20
-68.6110394348
 30
0.0
 11
-247.3453370724
 21
2.617206806
 31
0.0
  0
LINE
  5
5A5
330
442
100
AcDbEntity
  8
0
  6
Continuous
 62
     7
370
    25
100
AcDbLine
 10
-59.239544432
 20
-200.3406288467
 30
0.0
 11
239.1687142879
 21
-28.1121428625
 31
0.0
  0
LINE
  5
5A6
330
442
100
AcDbEntity
  8
0
  6
Continuous
 62
     7
370
    25
100
AcDbLine
 10
-21.5116118558
 20
-116.3431023207
 30
0.0
 11
239.1541891209
 21
34.1020510496
 31
0.0
  0
LINE
  5
5A7
330
442
100
AcDbEntity
  8
0
  6
Continuous
 62
     7
370
    25
100
AcDbLine
 10
239.1687142879
 20
-28.1121428625
 30
0.0
 11
239.1541891209
 21
34.1020510496
 31
0.0
  0
LINE
  5
5A8
330
442
100
AcDbEntity
  8
0
  6
Continuous
 62
     7
370
    25
100
AcDbLine
 10
215.656009493
 20
41.2736067217
 30
0.0
 11
239.1541891209
 21
34.1020510496
 31
0.0
  0
LINE
  5
5A9
330
442
100
AcDbEntity
  8
0
  6
Continuous
 62
     7
370
    25
100
AcDbLine
 10
-28.0469437346
 20
-99.3813163167
 30
0.0
 11
90.0137547076
 21
-31.2417298516
 31
0.0
  0
LINE
  5
5AA
330
442
100
AcDbEntity
  8
0
  6
Continuous
 62
     7
370
    25
100
AcDbLine
 10
107.9933762709
 20
-20.8646611548
 30
0.0
 11
215.656009493
 21
41.2736067217
 31
0.0
  0
LINE
  5
5AB
330
442
100
AcDbEntity
  8
0
  6
Continuous
 62
     7
370
    25
100
AcDbLine
 10
239.1541891209
 20
34.1020510496
 30
0.0
 11
254.9222315651
 21
82.1824419913
 31
0.0
  0
LINE
  5
5AC
330
442
100
AcDbEntity
  8
0
  6
Continuous
 62
     7
370
    25
100
AcDbLine
 10
215.656009493
 20
41.2736067217
 30
0.0
 11
231.4240519423
 21
89.353997679
 31
0.0
  0
LINE
  5
5AD
330
442
100
AcDbEntity
  8
0
  6
Continuous
 62
     7
370
    25
100
AcDbLine
 10
254.9222315651
 20
82.1824419913
 30
0.0
 11
231.4240519423
 21
89.353997679
 31
0.0
  0
LINE
  5
5AE
330
442
100
AcDbEntity
  8
0
  6
Continuous
 62
     7
370
    25
100
AcDbLine
 10
239.1687142879
 20
-28.1121428625
 30
0.0
 11
254.9376342796
 21
19.9709239234
 31
0.0
  0
LINE
  5
5AF
330
442
100
AcDbEntity
  8
0
  6
Continuous
 62
     7
370
    25
100
AcDbLine
 10
254.9222315651
 20
82.1824419913
 30
0.0
 11
254.9376342796
 21
19.9709239234
 31
0.0
  0
LINE
  5
5B0
330
442
100
AcDbEntity
  8
0
  6
Continuous
 62
     7
370
    25
100
AcDbLine
 10
254.9222315651
 20
82.1824419913
 30
0.0
 11
260.5756699281
 21
85.4461024893
 31
0.0
  0
LINE
  5
5B1
330
442
100
AcDbEntity
  8
0
  6
Continuous
 62
     7
370
    25
100
AcDbLine
 10
231.4240519423
 20
89.353997679
 30
0.0
 11
242.615157686
 21
95.8144855094
 31
0.0
  0
LINE
  5
5B2
330
442
100
AcDbEntity
  8
0
  6
Continuous
 62
     7
370
    25
100
AcDbLine
 10
260.5756699281
 20
85.4461024893
 30
0.0
 11
242.615157686
 21
95.8144855094
 31
0.0
  0
LINE
  5
5B3
330
442
100
AcDbEntity
  8
0
  6
Continuous
 62
     7
370
    25
100
AcDbLine
 10
254.9376342796
 20
19.9709239234
 30
0.0
 11
314.4572066546
 21
54.330841684
 31
0.0
  0
LINE
  5
5B4
330
442
100
AcDbEntity
  8
0
  6
Continuous
 62
     7
370
    25
100
AcDbLine
 10
260.5756699281
 20
85.4461024893
 30
0.0
 11
314.4572066546
 21
54.330841684
 31
0.0
  0
LINE
  5
5B5
330
442
100
AcDbEntity
  8
0
  6
Continuous
 62
     7
370
    25
100
AcDbLine
 10
107.0886609477
 20
475.3842782281
 30
0.0
 11
151.1694424416
 21
489.0797206358
 31
0.0
  0
LINE
  5
5B6
330
442
100
AcDbEntity
  8
0
  6
Continuous
 62
     7
370
    25
100
AcDbLine
 10
151.1694424416
 20
489.0797206358
 30
0.0
 11
131.9085847465
 21
455.7189366086
 31
0.0
  0
LINE
  5
5B7
330
442
100
AcDbEntity
  8
0
  6
Continuous
 62
     7
370
    25
100
AcDbLine
 10
94.408885672
 20
487.3933315482
 30
0.0
 11
95.3382667654
 21
487.6820806313
 31
0.0
  0
LINE
  5
5B8
330
442
100
AcDbEntity
  8
0
  6
Continuous
 62
     7
370
    25
100
AcDbLine
 10
150.935605992
 20
489.2147115447
 30
0.0
 11
151.1694424416
 21
489.0797206358
 31
0.0
  0
LINE
  5
5B9
330
442
100
AcDbEntity
  8
0
  6
Continuous
 62
     7
370
    25
100
AcDbLine
 10
260.5756699281
 20
327.3561300783
 30
0.0
 11
266.2959649532
 21
335.9127061117
 31
0.0
  0
LINE
  5
5BA
330
442
100
AcDbEntity
  8
0
  6
Continuous
 62
     7
370
    25
100
AcDbLine
 10
260.5756699281
 20
327.3561300783
 30
0.0
 11
248.7411134671
 21
323.6792559181
 31
0.0
  0
LINE
  5
5BB
330
442
100
AcDbEntity
  8
0
  6
Continuous
 62
     7
370
    25
100
AcDbLine
 10
299.6618664908
 20
403.3568688944
 30
0.0
 11
260.8618219634
 21
391.3020967866
 31
0.0
  0
LINE
  5
5BC
330
442
100
AcDbEntity
  8
0
  6
Continuous
 62
     7
370
    25
100
AcDbLine
 10
300.2164382914
 20
404.3174154266
 30
0.0
 11
262.1164382914
 21
338.3262798519
 31
0.0
  0
LINE
  5
5BD
330
442
100
AcDbEntity
  8
0
  6
Continuous
 62
     7
370
    25
100
AcDbLine
 10
262.1164382914
 20
338.3262798519
 30
0.0
 11
274.8164382914
 21
330.9923425473
 31
0.0
  0
LINE
  5
5BE
330
442
100
AcDbEntity
  8
0
  6
Continuous
 62
     7
370
    25
100
AcDbLine
 10
243.8306908146
 20
401.9592288899
 30
0.0
 11
237.6205727548
 21
400.0298095068
 31
0.0
  0
LINE
  5
5BF
330
442
100
AcDbEntity
  8
0
  6
Continuous
 62
     7
370
    25
100
AcDbLine
 10
299.4280300412
 20
403.4918598034
 30
0.0
 11
299.6618664908
 21
403.3568688944
 31
0.0
  0
LINE
  5
5C0
330
442
100
AcDbEntity
  8
0
  6
Continuous
 62
     7
370
    25
100
AcDbLine
 10
274.8164382914
 20
330.9923425473
 30
0.0
 11
312.9164382914
 21
396.983478122
 31
0.0
  0
LINE
  5
5C1
330
442
100
AcDbEntity
  8
0
  6
Continuous
 62
     7
370
    25
100
AcDbLine
 10
314.4572066546
 20
396.0937223286
 30
0.0
 11
300.2164382914
 21
404.3174154266
 31
0.0
  0
LINE
  5
5C2
330
442
100
AcDbEntity
  8
0
  6
Continuous
 62
     7
370
    25
100
AcDbLine
 10
265.1644382914
 20
340.0858527984
 30
0.0
 11
274.8164382914
 21
334.5120604469
 31
0.0
  0
LINE
  5
5C3
330
442
100
AcDbEntity
  8
0
  6
Continuous
 62
     7
370
    25
100
AcDbLine
 10
274.8164382914
 20
334.5120604469
 30
0.0
 11
309.8684382914
 21
395.2239051756
 31
0.0
  0
LINE
  5
5C4
330
442
100
AcDbEntity
  8
0
  6
Continuous
 62
     7
370
    25
100
AcDbLine
 10
309.8684382914
 20
395.2239051756
 30
0.0
 11
300.2164382914
 21
400.7976975271
 31
0.0
  0
LINE
  5
5C5
330
442
100
AcDbEntity
  8
0
  6
Continuous
 62
     7
370
    25
100
AcDbLine
 10
300.2164382914
 20
400.7976975271
 30
0.0
 11
265.1644382914
 21
340.0858527984
 31
0.0
  0
LINE
  5
5C6
330
442
100
AcDbEntity
  8
0
  6
Continuous
 62
     7
370
    25
100
AcDbLine
 10
151.7240142422
 20
490.040267168
 30
0.0
 11
267.6757361473
 21
423.102762917
 31
0.0
  0
LINE
  5
5C7
330
442
100
AcDbEntity
  8
0
  6
Continuous
 62
     7
370
    25
100
AcDbLine
 10
300.2156539306
 20
400.7963389744
 30
0.0
 11
309.8684382914
 21
395.2239051756
 31
0.0
  0
LINE
  5
5C8
330
442
100
AcDbEntity
  8
0
  6
Continuous
 62
     7
370
    25
100
AcDbLine
 10
314.4572066546
 20
54.330841684
 30
0.0
 11
314.4572066546
 21
396.0937223286
 31
0.0
  0
LINE
  5
5C9
330
442
100
AcDbEntity
  8
0
  6
Continuous
 62
     7
370
    25
100
AcDbLine
 10
260.5756699281
 20
85.4461024893
 30
0.0
 11
260.5756699281
 21
327.3561300783
 31
0.0
  0
LINE
  5
5CA
330
442
100
AcDbEntity
  8
0
  6
Continuous
 62
     7
370
    25
100
AcDbLine
 10
296.4966944124
 20
123.3657275138
 30
0.0
 11
296.4966944124
 21
126.6384658704
 31
0.0
  0
LINE
  5
5CB
330
442
100
AcDbEntity
  8
0
  6
Continuous
 62
     7
370
    25
100
AcDbLine
 10
242.615157686
 20
95.8144855094
 30
0.0
 11
242.615157686
 21
310.1403719461
 31
0.0
  0
LINE
  5
5CC
330
442
100
AcDbEntity
  8
0
  6
Continuous
 62
     7
370
    25
100
AcDbLine
 10
165.9647826054
 20
225.8190508498
 30
0.0
 11
165.9647826054
 21
140.0536934254
 31
0.0
  0
LINE
  5
5CD
330
442
100
AcDbEntity
  8
0
  6
Continuous
 62
     7
370
    25
100
AcDbLine
 10
112.0832458789
 20
395.671230067
 30
0.0
 11
112.0832458789
 21
331.0760793182
 31
0.0
  0
LINE
  5
5CE
330
442
100
AcDbEntity
  8
0
  6
Continuous
 62
     7
370
    25
100
AcDbLine
 10
94.1227336368
 20
406.0396130872
 30
0.0
 11
94.1227336368
 21
325.4959341236
 31
0.0
  0
LINE
  5
5CF
330
442
100
AcDbEntity
  8
0
  6
Continuous
 62
     7
370
    25
100
AcDbLine
 10
94.1227336368
 20
245.6903436751
 30
0.0
 11
94.1227336368
 21
233.3013082345
 31
0.0
  0
LINE
  5
5D0
330
442
100
AcDbEntity
  8
0
  6
Continuous
 62
     7
370
    25
100
AcDbLine
 10
184.8273875445
 20
353.6769309573
 30
0.0
 11
47.725043373
 21
432.8244295456
 31
0.0
  0
LINE
  5
5D1
330
442
100
AcDbEntity
  8
0
  6
Continuous
 62
     7
370
    25
100
AcDbLine
 10
47.725043373
 20
432.8244295456
 30
0.0
 11
51.7652795385
 21
455.3653765017
 31
0.0
  0
LINE
  5
5D2
330
442
100
AcDbEntity
  8
0
  6
Continuous
 62
     7
370
    25
100
AcDbLine
 10
212.8386036139
 20
362.3797257682
 30
0.0
 11
51.7652795385
 21
455.3653765017
 31
0.0
  0
LINE
  5
5D3
330
442
100
AcDbEntity
  8
0
  6
Continuous
 62
     7
370
    25
100
AcDbLine
 10
51.7652795385
 20
455.3653765017
 30
0.0
 11
99.3498540417
 21
453.0252226643
 31
0.0
  0
LINE
  5
5D4
330
442
100
AcDbEntity
  8
0
  6
Continuous
 62
     7
370
    25
100
AcDbLine
 10
103.0484247823
 20
452.8433312719
 30
0.0
 11
125.049234679
 21
459.6787551154
 31
0.0
  0
LINE
  5
5D5
330
442
100
AcDbEntity
  8
0
  6
Continuous
 62
     7
370
    25
100
AcDbLine
 10
235.7058290741
 20
395.7980629099
 30
0.0
 11
125.049234679
 21
459.6787551154
 31
0.0
  0
LINE
  5
5D6
330
442
100
AcDbEntity
  8
0
  6
Continuous
 62
     7
370
    25
100
AcDbLine
 10
-81.6905136491
 20
382.8260635374
 30
0.0
 11
-140.7254652291
 21
289.0490194596
 31
0.0
  0
LINE
  5
5D7
330
442
100
AcDbEntity
  8
0
  6
Continuous
 62
     7
370
    25
100
AcDbLine
 10
-184.9662640705
 20
218.7724928944
 30
0.0
 11
-204.3303141252
 21
188.0126916767
 31
0.0
  0
LINE
  5
5D8
330
442
100
AcDbEntity
  8
0
  6
Continuous
 62
     7
370
    25
100
AcDbLine
 10
-112.1321606705
 20
373.3681589938
 30
0.0
 11
-161.5492333039
 21
294.8691194501
 31
0.0
  0
LINE
  5
5D9
330
442
100
AcDbEntity
  8
0
  6
Continuous
 62
     7
370
    25
100
AcDbLine
 10
-205.7900321453
 20
224.5925928849
 30
0.0
 11
-218.3641570268
 21
204.6185905069
 31
0.0
  0
LINE
  5
5DA
330
442
100
AcDbEntity
  8
0
  6
Continuous
 62
     7
370
    25
100
AcDbLine
 10
-16.9667532761
 20
402.9350657501
 30
0.0
 11
-96.450837973
 21
276.6745655784
 31
0.0
  0
LINE
  5
5DB
330
442
100
AcDbEntity
  8
0
  6
Continuous
 62
     7
370
    25
100
AcDbLine
 10
-140.6916368144
 20
206.3980390133
 30
0.0
 11
-174.4921426085
 21
152.7059221085
 31
0.0
  0
LINE
  5
5DC
330
442
100
AcDbEntity
  8
0
  6
Continuous
 62
     7
370
    25
100
AcDbLine
 10
-247.2948762035
 20
37.058750821
 30
0.0
 11
-248.0631771117
 21
35.8383045226
 31
0.0
  0
LINE
  5
5DD
330
442
100
AcDbEntity
  8
0
  6
Continuous
 62
     7
370
    25
100
AcDbLine
 10
103.8182503039
 20
248.7026403184
 30
0.0
 11
-61.1777793218
 21
-13.3936184019
 31
0.0
  0
LINE
  5
5DE
330
442
100
AcDbEntity
  8
0
  6
Continuous
 62
     7
370
    25
100
AcDbLine
 10
134.2598973253
 20
258.1605448621
 30
0.0
 11
-51.8866724812
 21
-37.5333553526
 31
0.0
  0
LINE
  5
5DF
330
442
100
AcDbEntity
  8
0
  6
Continuous
 62
     7
370
    25
100
AcDbLine
 10
-51.8876107193
 20
-37.5328136621
 30
0.0
 11
-51.8866724812
 21
-37.5333553526
 31
0.0
  0
LINE
  5
5E0
330
442
100
AcDbEntity
  8
0
  6
Continuous
 62
     7
370
    25
100
AcDbLine
 10
-51.8876107193
 20
-37.5328136621
 30
0.0
 11
-51.8810351627
 21
-37.522367773
 31
0.0
  0
LINE
  5
5E1
330
442
100
AcDbEntity
  8
0
  6
Continuous
 62
     7
370
    25
100
AcDbLine
 10
198.9836576983
 20
278.2695470748
 30
0.0
 11
-32.1192897888
 21
-88.8375769757
 31
0.0
  0
LINE
  5
5E2
330
442
100
AcDbEntity
  8
0
  6
Continuous
 62
     7
370
    25
100
AcDbLine
 10
-51.8866724812
 20
-37.5333553526
 30
0.0
 11
-32.1192897888
 21
-88.8375769757
 31
0.0
  0
LINE
  5
5E3
330
442
100
AcDbEntity
  8
0
  6
Continuous
 62
     7
370
    25
100
AcDbLine
 10
-51.8876107193
 20
-37.5328136621
 30
0.0
 11
-32.1202280269
 21
-88.8370352852
 31
0.0
  0
LINE
  5
5E4
330
442
100
AcDbEntity
  8
0
  6
Continuous
 62
     7
370
    25
100
AcDbLine
 10
-32.1192897888
 20
-88.8375769757
 30
0.0
 11
-32.1202280269
 21
-88.8370352852
 31
0.0
  0
LINE
  5
5E5
330
442
100
AcDbEntity
  8
0
  6
Continuous
 62
     7
370
    25
100
AcDbLine
 10
-83.6549174681
 20
190.4566681464
 30
0.0
 11
-222.2905802526
 21
229.2043826214
 31
0.0
  0
LINE
  5
5E6
330
442
100
AcDbEntity
  8
0
  6
Continuous
 62
     7
370
    25
100
AcDbLine
 10
-71.5342089719
 20
258.0795090149
 30
0.0
 11
-207.508786639
 21
296.0834684975
 31
0.0
  0
LINE
  5
5E7
330
442
100
AcDbEntity
  8
0
  6
Continuous
 62
     7
370
    25
100
AcDbLine
 10
-78.8497362054
 20
271.7551786614
 30
0.0
 11
-192.609688191
 21
303.5503030161
 31
0.0
  0
LINE
  5
5E8
330
442
100
AcDbEntity
  8
0
  6
Continuous
 62
     7
370
    25
100
AcDbLine
 10
-263.3027652567
 20
147.3731855201
 30
0.0
 11
-134.4814961466
 21
-5.0578326276
 31
0.0
  0
LINE
  5
5E9
330
442
100
AcDbEntity
  8
0
  6
Continuous
 62
     7
370
    25
100
AcDbLine
 10
-226.8433786557
 20
214.6518435165
 30
0.0
 11
-83.8510662622
 21
45.4525807239
 31
0.0
  0
LINE
  5
5EA
330
442
100
AcDbEntity
  8
0
  6
Continuous
 62
     7
370
    25
100
AcDbLine
 10
-259.9238035317
 20
129.4558854972
 30
0.0
 11
-150.2941074743
 21
-0.266219437
 31
0.0
  0
LINE
  5
5EB
330
442
100
AcDbEntity
  8
0
  6
Continuous
 62
     7
370
    25
100
AcDbLine
 10
-263.4682620808
 20
330.9169445169
 30
0.0
 11
-305.4451321884
 21
393.1134107104
 31
0.0
  0
LINE
  5
5EC
330
442
100
AcDbEntity
  8
0
  6
Continuous
 62
     7
370
    25
100
AcDbLine
 10
-284.5523248598
 20
276.5749642794
 30
0.0
 11
-317.5658406847
 21
325.4905698419
 31
0.0
  0
LINE
  5
5ED
330
442
100
AcDbEntity
  8
0
  6
Continuous
 62
     7
370
    25
100
AcDbLine
 10
-241.3594524429
 20
333.4818876645
 30
0.0
 11
-276.8396349377
 21
386.0523143166
 31
0.0
  0
LINE
  5
5EE
330
442
100
AcDbEntity
  8
0
  6
Continuous
 62
     7
370
    25
100
AcDbLine
 10
-368.394296438
 20
129.9771526802
 30
0.0
 11
-325.9572861354
 21
169.8579804152
 31
0.0
  0
LINE
  5
5EF
330
442
100
AcDbEntity
  8
0
  6
Continuous
 62
     7
370
    25
100
AcDbLine
 10
-348.2858833032
 20
114.0319998431
 30
0.0
 11
-316.9471051894
 21
143.4830945943
 31
0.0
  0
LINE
  5
5F0
330
442
100
AcDbEntity
  8
0
  6
Continuous
 62
     7
370
    25
100
AcDbLine
 10
243.8306908146
 20
401.9592288899
 30
0.0
 11
408.7007286384
 21
548.1504063922
 31
0.0
  0
LINE
  5
5F1
330
442
100
AcDbEntity
  8
0
  6
Continuous
 62
     7
370
    25
100
AcDbLine
 10
380.294985797
 20
522.962876574
 30
0.0
 11
249.76307399
 21
598.3173452953
 31
0.0
  0
LINE
  5
5F2
330
442
100
AcDbEntity
  8
0
  6
Continuous
 62
     7
370
    25
100
AcDbLine
 10
278.1688168313
 20
623.5048751134
 30
0.0
 11
113.2987790075
 21
477.3136976111
 31
0.0
  0
LINE
  5
5F3
330
442
100
AcDbEntity
  8
0
  6
Continuous
 62
     7
370
    25
100
AcDbLine
 10
397.6435084251
 20
538.3459078658
 30
0.0
 11
267.111596618
 21
613.7003765871
 31
0.0
  0
LINE
  5
5F4
330
442
100
AcDbEntity
  8
0
  6
Continuous
 62
     7
370
    25
100
AcDbLine
 10
370.2769317509
 20
514.0798124551
 30
0.0
 11
366.9829961829
 21
515.9813609829
 31
0.0
  0
LINE
  5
5F5
330
442
100
AcDbEntity
  8
0
  6
Continuous
 62
     7
370
    25
100
AcDbLine
 10
340.7123355421
 20
531.1470905592
 30
0.0
 11
290.3326211023
 21
560.2306806437
 31
0.0
  0
LINE
  5
5F6
330
442
100
AcDbEntity
  8
0
  6
Continuous
 62
     7
370
    25
100
AcDbLine
 10
264.0619604615
 20
575.39641022
 30
0.0
 11
254.411596618
 21
580.967446684
 31
0.0
  0
LINE
  5
5F7
330
442
100
AcDbEntity
  8
0
  6
Continuous
 62
     7
370
    25
100
AcDbLine
 10
254.411596618
 20
580.967446684
 30
0.0
 11
249.76307399
 21
598.3173452953
 31
0.0
  0
LINE
  5
5F8
330
442
100
AcDbEntity
  8
0
  6
Continuous
 62
     7
370
    25
100
AcDbLine
 10
428.1790399394
 20
539.1278642208
 30
0.0
 11
571.4404962432
 21
712.9946905368
 31
0.0
  0
LINE
  5
5F9
330
442
100
AcDbEntity
  8
0
  6
Continuous
 62
     7
370
    25
100
AcDbLine
 10
408.7007286384
 20
548.1504063922
 30
0.0
 11
428.1790399394
 21
539.1278642208
 31
0.0
  0
LINE
  5
5FA
330
442
100
AcDbEntity
  8
0
  6
Continuous
 62
     7
370
    25
100
AcDbLine
 10
408.7007286384
 20
548.1504063922
 30
0.0
 11
539.021314417
 21
706.3117656131
 31
0.0
  0
LINE
  5
5FB
330
442
100
AcDbEntity
  8
0
  6
Continuous
 62
     7
370
    25
100
AcDbLine
 10
539.021314417
 20
706.3117656131
 30
0.0
 11
571.4404962432
 21
712.9946905368
 31
0.0
  0
LINE
  5
5FC
330
442
100
AcDbEntity
  8
0
  6
Continuous
 62
     7
370
    25
100
AcDbLine
 10
432.8275625675
 20
521.7779656094
 30
0.0
 11
576.0890188712
 21
695.6447919254
 31
0.0
  0
LINE
  5
5FD
330
442
100
AcDbEntity
  8
0
  6
Continuous
 62
     7
370
    25
100
AcDbLine
 10
428.1790399394
 20
539.1278642208
 30
0.0
 11
432.8275625675
 21
521.7779656094
 31
0.0
  0
LINE
  5
5FE
330
442
100
AcDbEntity
  8
0
  6
Continuous
 62
     7
370
    25
100
AcDbLine
 10
571.4404962432
 20
712.9946905368
 30
0.0
 11
576.0890188712
 21
695.6447919254
 31
0.0
  0
LINE
  5
5FF
330
442
100
AcDbEntity
  8
0
  6
Continuous
 62
     7
370
    25
100
AcDbLine
 10
571.4404962432
 20
712.9946905368
 30
0.0
 11
468.9715948407
 21
772.1487281873
 31
0.0
  0
LINE
  5
600
330
442
100
AcDbEntity
  8
0
  6
Continuous
 62
     7
370
    25
100
AcDbLine
 10
539.021314417
 20
706.3117656131
 30
0.0
 11
466.6937314108
 21
748.0655905274
 31
0.0
  0
LINE
  5
601
330
442
100
AcDbEntity
  8
0
  6
Continuous
 62
     7
370
    25
100
AcDbLine
 10
468.9715948407
 20
772.1487281873
 30
0.0
 11
466.6937314108
 21
748.0655905274
 31
0.0
  0
LINE
  5
602
330
442
100
AcDbEntity
  8
0
  6
Continuous
 62
     7
370
    25
100
AcDbLine
 10
530.8320273159
 20
696.3729768084
 30
0.0
 11
471.3422540388
 21
730.7156919161
 31
0.0
  0
LINE
  5
603
330
442
100
AcDbEntity
  8
0
  6
Continuous
 62
     7
370
    25
100
AcDbLine
 10
471.3422540388
 20
730.7156919161
 30
0.0
 11
466.6937314108
 21
748.0655905274
 31
0.0
  0
LINE
  5
604
330
442
100
AcDbEntity
  8
0
  6
Continuous
 62
     7
370
    25
100
AcDbLine
 10
468.9715948407
 20
772.1487281873
 30
0.0
 11
261.7261036481
 21
635.2190989823
 31
0.0
  0
LINE
  5
605
330
442
100
AcDbEntity
  8
0
  6
Continuous
 62
     7
370
    25
100
AcDbLine
 10
466.6937314108
 20
748.0655905274
 30
0.0
 11
278.1688168313
 21
623.5048751134
 31
0.0
  0
LINE
  5
606
330
442
100
AcDbEntity
  8
0
  6
Continuous
 62
     7
370
    25
100
AcDbLine
 10
261.7261036481
 20
635.2190989823
 30
0.0
 11
278.1688168313
 21
623.5048751134
 31
0.0
  0
LINE
  5
607
330
442
100
AcDbEntity
  8
0
  6
Continuous
 62
     7
370
    25
100
AcDbLine
 10
471.3422540388
 20
730.7156919161
 30
0.0
 11
282.8173394594
 21
606.1549765021
 31
0.0
  0
LINE
  5
608
330
442
100
AcDbEntity
  8
0
  6
Continuous
 62
     7
370
    25
100
AcDbLine
 10
278.1688168313
 20
623.5048751134
 30
0.0
 11
282.8173394594
 21
606.1549765021
 31
0.0
  0
LINE
  5
609
330
442
100
AcDbEntity
  8
0
  6
Continuous
 62
     7
370
    25
100
AcDbLine
 10
294.7350441612
 20
557.6892159084
 30
0.0
 11
232.4703153131
 21
443.4264197634
 31
0.0
  0
LINE
  5
60A
330
442
100
AcDbEntity
  8
0
  6
Continuous
 62
     7
370
    25
100
AcDbLine
 10
286.7318036218
 20
573.6701802877
 30
0.0
 11
219.7577438555
 21
450.7652310549
 31
0.0
  0
LINE
  5
60B
330
442
100
AcDbEntity
  8
0
  6
Continuous
 62
     7
370
    25
100
AcDbLine
 10
286.7318036218
 20
573.6701802877
 30
0.0
 11
290.3326211023
 21
560.2306806437
 31
0.0
  0
LINE
  5
60C
330
442
100
AcDbEntity
  8
0
  6
Continuous
 62
     7
370
    25
100
AcDbLine
 10
268.7712913796
 20
584.0385633078
 30
0.0
 11
201.7972316133
 21
461.133614075
 31
0.0
  0
LINE
  5
60D
330
442
100
AcDbEntity
  8
0
  6
Continuous
 62
     7
370
    25
100
AcDbLine
 10
268.7712913796
 20
584.0385633078
 30
0.0
 11
286.7318036218
 21
573.6701802877
 31
0.0
  0
LINE
  5
60E
330
442
100
AcDbEntity
  8
0
  6
Continuous
 62
     7
370
    25
100
AcDbLine
 10
322.7322443536
 20
424.1558359634
 30
0.0
 11
309.1199977651
 21
399.1758290512
 31
0.0
  0
LINE
  5
60F
330
442
100
AcDbEntity
  8
0
  6
Continuous
 62
     7
370
    25
100
AcDbLine
 10
363.3821787024
 20
529.4208606269
 30
0.0
 11
340.7603928811
 21
487.907333634
 31
0.0
  0
LINE
  5
610
330
442
100
AcDbEntity
  8
0
  6
Continuous
 62
     7
370
    25
100
AcDbLine
 10
363.3821787024
 20
529.4208606269
 30
0.0
 11
366.9829961829
 21
515.9813609829
 31
0.0
  0
LINE
  5
611
330
442
100
AcDbEntity
  8
0
  6
Continuous
 62
     7
370
    25
100
AcDbLine
 10
345.4216664603
 20
539.789243647
 30
0.0
 11
295.0754289283
 21
447.3982225635
 31
0.0
  0
LINE
  5
612
330
442
100
AcDbEntity
  8
0
  6
Continuous
 62
     7
370
    25
100
AcDbLine
 10
345.4216664603
 20
539.789243647
 30
0.0
 11
363.3821787024
 21
529.4208606269
 31
0.0
  0
LINE
  5
613
330
442
100
AcDbEntity
  8
0
  6
Continuous
 62
     7
370
    25
100
AcDbLine
 10
299.0675513261
 20
403.1722213261
 30
0.0
 11
432.8275625675
 21
521.7779656094
 31
0.0
  0
LINE
  5
614
330
442
100
AcDbEntity
  8
0
  6
Continuous
 62
     7
370
    25
100
AcDbLine
 10
261.7912030567
 20
391.5908458697
 30
0.0
 11
428.1790399394
 21
539.1278642208
 31
0.0
  0
LINE
  5
615
330
442
100
AcDbEntity
  8
0
  6
Continuous
 62
     7
370
    25
100
AcDbLine
 10
261.7912030567
 20
391.5908458697
 30
0.0
 11
243.8306908146
 21
401.9592288899
 31
0.0
  0
LINE
  5
616
330
442
100
AcDbEntity
  8
0
  6
Continuous
 62
     7
370
    25
100
AcDbLine
 10
113.2987790075
 20
477.3136976111
 30
0.0
 11
95.3382667654
 21
487.6820806313
 31
0.0
  0
LINE
  5
617
330
442
100
AcDbEntity
  8
0
  6
Continuous
 62
     7
370
    25
100
AcDbLine
 10
261.7261036481
 20
635.2190989823
 30
0.0
 11
95.3382667654
 21
487.6820806313
 31
0.0
  0
LINE
  5
618
330
442
100
AcDbEntity
  8
0
  6
Continuous
 62
     7
370
    25
100
AcDbLine
 10
282.8173394594
 20
606.1549765021
 30
0.0
 11
281.7781732922
 21
605.2335420947
 31
0.0
  0
LINE
  5
619
330
442
100
AcDbEntity
  8
0
  6
Continuous
 62
     7
370
    25
100
AcDbLine
 10
254.411596618
 20
580.967446684
 30
0.0
 11
151.8104010144
 21
489.9903971459
 31
0.0
  0
LINE
  5
61A
330
442
100
AcDbEntity
  8
0
  6
Continuous
 62
     7
370
    25
100
AcDbLine
 10
151.5744071413
 20
489.7811400689
 30
0.0
 11
150.5751272769
 21
488.8950730675
 31
0.0
  0
ARC
  5
61B
330
442
100
AcDbEntity
  8
0
  6
Continuous
 62
     7
370
    25
100
AcDbCircle
 10
-572.2188380605
 20
341.619556409
 30
0.0
 40
367.5417757345453
100
AcDbArc
 50
342.1902778683
 51
352.8831306999
  0
VIEWPORT
  5
622
330
442
100
AcDbEntity
  8
0
100
AcDbViewport
 10
0.0
 20
0.0
 30
0.0
 40
205.6
 41
156.0
 68
     1
 69
     1
 12
0.0
 22
145.5709302433
 13
0.0
 23
0.0
 14
10.0
 24
10.0
 15
10.0
 25
10.0
 16
0.0
 26
0.0
 36
1.0
 17
0.0
 27
0.0
 37
0.0
 42
50.0
 43
0.0
 44
0.0
 45
1217.2384574058
 50
0.0
 51
0.0
 72
   100
 90
   557152
  1

281
     0
 71
     1
 74
     0
110
0.0
120
0.0
130
0.0
111
1.0
121
0.0
131
0.0
112
0.0
122
1.0
132
0.0
 79
     0
146
0.0
  0
MTEXT
  5
62D
330
442
100
AcDbEntity
  8
0
  6
Continuous
 62
     7
100
AcDbMText
 10
-368.394296438
 20
-201.3601952384
 30
0.0
 40
4.83362
 41
0.0
 71
     1
 72
     1
  1
SOLIDWORKS Educational Product.
  7
SLDTEXTSTYLE0
 73
     1
 44
1.0
  0
MTEXT
  5
62E
330
442
100
AcDbEntity
  8
0
  6
Continuous
 62
     7
100
AcDbMText
 10
-368.394296438
 20
-208.6106252384
 30
0.0
 40
4.83362
 41
0.0
 71
     1
 72
     1
  1
For Instructional Use Only.
  7
SLDTEXTSTYLE0
 73
     1
 44
1.0
  0
ENDBLK
  5
445
330
442
100
AcDbEntity
  8
0
100
AcDbBlockEnd
  0
ENDSEC
  0
SECTION
  2
ENTITIES
  0
LWPOLYLINE
  5
B4
330
1F
100
AcDbEntity
  8
0
  6
Continuous
 62
     7
370
    25
100
AcDbPolyline
 90
       66
 70
   128
 43
0.0
 10
0.0
 20
-287.6619836633
 10
3.6771803868
 20
-287.8160190269
 10
7.3200279312
 20
-288.2766869309
 10
10.894530347
 20
-289.0396862434
 10
14.3673134683
 20
-290.0978930452
 10
17.7059528549
 20
-291.4414271446
 10
20.8792765302
 20
-293.0577443257
 10
23.8576560262
 20
-294.9317534704
 10
26.613283016
 20
-297.0459574604
 10
29.1204289528
 20
-299.3806165426
 10
31.3556852905
 20
-301.9139326341
 10
33.2981820431
 20
-304.6222528453
 10
34.9297826416
 20
-307.4802903199
 10
36.2352532708
 20
-310.4613603322
 10
37.2024051034
 20
-313.5376294347
 10
37.8222081031
 20
-316.6803753316
 10
38.0888753365
 20
-319.8602550512
 10
37.9999170032
 20
-323.0475789134
 10
37.5561636835
 20
-326.212587734
 10
36.7617585824
 20
-329.3257306785
 10
35.6241188463
 20
-332.35794117
 10
34.153866311
 20
-335.280908276
 10
32.3647283281
 20
-338.0673410403
 10
30.2734095971
 20
-340.691223291
 10
27.8994361974
 20
-343.1280565463
 10
25.264973279
 20
-345.3550887508
 10
22.3946181123
 20
-347.3515267049
 10
19.3151704303
 20
-349.0987302051
 10
16.0553822061
 20
-350.5803860834
 10
12.6456892042
 20
-351.7826605178
 10
9.1179268094
 20
-352.694328196
 10
5.5050327886
 20
-353.3068771224
 10
1.8407397599
 20
-353.6145880929
 10
-1.8407397599
 20
-353.6145880929
 10
-5.5050327886
 20
-353.3068771224
 10
-9.1179268094
 20
-352.694328196
 10
-12.6456892042
 20
-351.7826605178
 10
-16.0553822061
 20
-350.5803860834
 10
-19.3151704303
 20
-349.0987302051
 10
-22.3946181123
 20
-347.3515267049
 10
-25.264973279
 20
-345.3550887508
 10
-27.8994361974
 20
-343.1280565463
 10
-30.2734095971
 20
-340.691223291
 10
-32.3647283281
 20
-338.0673410403
 10
-34.153866311
 20
-335.280908276
 10
-35.6241188463
 20
-332.35794117
 10
-36.7617585824
 20
-329.3257306785
 10
-37.5561636835
 20
-326.212587734
 10
-37.9999170033
 20
-323.0475789134
 10
-38.0888753365
 20
-319.8602550512
 10
-37.8222081031
 20
-316.6803753316
 10
-37.2024051034
 20
-313.5376294347
 10
-36.2352532709
 20
-310.4613603322
 10
-34.9297826416
 20
-307.4802903199
 10
-33.2981820431
 20
-304.6222528453
 10
-31.3556852906
 20
-301.9139326341
 10
-29.1204289528
 20
-299.3806165426
 10
-26.613283016
 20
-297.0459574604
 10
-23.8576560262
 20
-294.9317534704
 10
-20.8792765302
 20
-293.0577443257
 10
-17.7059528549
 20
-291.4414271446
 10
-14.3673134683
 20
-290.0978930452
 10
-10.894530347
 20
-289.0396862434
 10
-7.3200279312
 20
-288.2766869309
 10
-3.6771803868
 20
-287.8160190269
 10
0.0
 20
-287.6619836633
  0
LWPOLYLINE
  5
B5
330
1F
100
AcDbEntity
  8
0
  6
Continuous
 62
     7
370
    25
100
AcDbPolyline
 90
       34
 70
   128
 43
0.0
 10
38.1
 20
-418.1575515475
 10
37.9999170032
 20
-420.5475789134
 10
37.5561636835
 20
-423.712587734
 10
36.7617585824
 20
-426.8257306785
 10
35.6241188463
 20
-429.85794117
 10
34.153866311
 20
-432.780908276
 10
32.3647283281
 20
-435.5673410403
 10
30.2734095971
 20
-438.191223291
 10
27.8994361974
 20
-440.6280565463
 10
25.264973279
 20
-442.8550887508
 10
22.3946181123
 20
-444.8515267049
 10
19.3151704303
 20
-446.5987302051
 10
16.0553822061
 20
-448.0803860834
 10
12.6456892042
 20
-449.2826605178
 10
9.1179268093
 20
-450.194328196
 10
5.5050327886
 20
-450.8068771224
 10
1.8407397599
 20
-451.1145880929
 10
-1.8407397599
 20
-451.1145880929
 10
-5.5050327886
 20
-450.8068771224
 10
-9.1179268094
 20
-450.194328196
 10
-12.6456892042
 20
-449.2826605178
 10
-16.0553822061
 20
-448.0803860834
 10
-19.3151704303
 20
-446.5987302051
 10
-22.3946181123
 20
-444.8515267049
 10
-25.264973279
 20
-442.8550887508
 10
-27.8994361974
 20
-440.6280565463
 10
-30.2734095971
 20
-438.191223291
 10
-32.3647283281
 20
-435.5673410403
 10
-34.153866311
 20
-432.780908276
 10
-35.6241188463
 20
-429.85794117
 10
-36.7617585824
 20
-426.8257306785
 10
-37.5561636835
 20
-423.712587734
 10
-37.9999170033
 20
-420.5475789134
 10
-38.1
 20
-418.1575515475
  0
LWPOLYLINE
  5
B7
330
1F
100
AcDbEntity
  8
0
  6
Continuous
 62
     7
370
    25
100
AcDbPolyline
 90
        3
 70
   128
 43
0.0
 10
37.5922025299
 20
-331.0539429065
 10
38.0173529099
 20
-327.2926668578
 10
38.1
 20
-324.7371235864
  0
LWPOLYLINE
  5
BE
330
1F
100
AcDbEntity
  8
0
  6
Continuous
 62
     7
370
    25
100
AcDbPolyline
 90
        3
 70
   128
 43
0.0
 10
37.9248335827
 20
-410.2911752191
 10
38.0810668218
 20
-406.8646838919
 10
38.1
 20
-405.1275290154
  0
LWPOLYLINE
  5
C3
330
1F
100
AcDbEntity
  8
0
  6
Continuous
 62
     7
370
    25
100
AcDbPolyline
 90
        3
 70
   128
 43
0.0
 10
-38.1
 20
-324.7371235864
 10
-38.01735291
 20
-327.2926668578
 10
-37.59220253
 20
-331.0539429065
  0
LWPOLYLINE
  5
CB
330
1F
100
AcDbEntity
  8
0
  6
Continuous
 62
     7
370
    25
100
AcDbPolyline
 90
        3
 70
   128
 43
0.0
 10
-38.1
 20
-405.1275290154
 10
-38.0810668218
 20
-406.8646838919
 10
-37.9248335827
 20
-410.2911752191
  0
LINE
  5
F6
330
1F
100
AcDbEntity
  8
0
  6
Continuous
 62
     7
370
    25
100
AcDbLine
 10
-38.1
 20
-320.6575515475
 30
0.0
 11
-38.1
 21
-324.7371235864
 31
0.0
  0
LINE
  5
F7
330
1F
100
AcDbEntity
  8
0
  6
Continuous
 62
     7
370
    25
100
AcDbLine
 10
-38.1
 20
-335.3742905323
 30
0.0
 11
-38.1
 21
-405.1275290154
 31
0.0
  0
LINE
  5
F8
330
1F
100
AcDbEntity
  8
0
  6
Continuous
 62
     7
370
    25
100
AcDbLine
 10
-38.1
 20
-410.2160056361
 30
0.0
 11
-38.1
 21
-418.1575515475
 31
0.0
  0
LINE
  5
F9
330
1F
100
AcDbEntity
  8
0
  6
Continuous
 62
     7
370
    25
100
AcDbLine
 10
38.1
 20
-418.1575515475
 30
0.0
 11
38.1
 21
-410.2160056361
 31
0.0
  0
LINE
  5
FA
330
1F
100
AcDbEntity
  8
0
  6
Continuous
 62
     7
370
    25
100
AcDbLine
 10
38.1
 20
-405.1275290154
 30
0.0
 11
38.1
 21
-335.3742905323
 31
0.0
  0
LINE
  5
FB
330
1F
100
AcDbEntity
  8
0
  6
Continuous
 62
     7
370
    25
100
AcDbLine
 10
38.1
 20
-324.7371235864
 30
0.0
 11
38.1
 21
-320.6575515475
 31
0.0
  0
LINE
  5
FC
330
1F
100
AcDbEntity
  8
0
  6
Continuous
 62
     7
370
    25
100
AcDbLine
 10
140.0
 20
12.7
 30
0.0
 11
-140.0
 21
12.7
 31
0.0
  0
LINE
  5
FD
330
1F
100
AcDbEntity
  8
0
  6
Continuous
 62
     7
370
    25
100
AcDbLine
 10
140.0
 20
-12.7
 30
0.0
 11
-140.0
 21
-12.7
 31
0.0
  0
LINE
  5
FE
330
1F
100
AcDbEntity
  8
0
  6
Continuous
 62
     7
370
    25
100
AcDbLine
 10
107.5993584518
 20
-267.8590911592
 30
0.0
 11
-107.5993584518
 21
-267.8590911592
 31
0.0
  0
LINE
  5
FF
330
1F
100
AcDbEntity
  8
0
  6
Continuous
 62
     7
370
    25
100
AcDbLine
 10
90.3824517241
 20
-276.5464027997
 30
0.0
 11
-90.3824517241
 21
-276.5464027997
 31
0.0
  0
LINE
  5
100
330
1F
100
AcDbEntity
  8
0
  6
Continuous
 62
     7
370
    25
100
AcDbLine
 10
117.7986472072
 20
189.1855679305
 30
0.0
 11
140.0
 21
156.6049663477
 31
0.0
  0
LINE
  5
101
330
1F
100
AcDbEntity
  8
0
  6
Continuous
 62
     7
370
    25
100
AcDbLine
 10
92.3
 20
243.7462366887
 30
0.0
 11
140.0
 21
173.7462366887
 31
0.0
  0
LINE
  5
102
330
1F
100
AcDbEntity
  8
0
  6
Continuous
 62
     7
370
    25
100
AcDbLine
 10
117.7
 20
251.214326526
 30
0.0
 11
92.3
 21
243.7462366887
 31
0.0
  0
LINE
  5
103
330
1F
100
AcDbEntity
  8
0
  6
Continuous
 62
     7
370
    25
100
AcDbLine
 10
117.7
 20
251.214326526
 30
0.0
 11
165.4
 21
181.214326526
 31
0.0
  0
LINE
  5
104
330
1F
100
AcDbEntity
  8
0
  6
Continuous
 62
     7
370
    25
100
AcDbLine
 10
140.0
 20
173.7462366887
 30
0.0
 11
165.4000000001
 21
181.214326526
 31
0.0
  0
LINE
  5
105
330
1F
100
AcDbEntity
  8
0
  6
Continuous
 62
     7
370
    25
100
AcDbLine
 10
140.0
 20
173.7462366887
 30
0.0
 11
140.0
 21
-251.5103663313
 31
0.0
  0
LINE
  5
106
330
1F
100
AcDbEntity
  8
0
  6
Continuous
 62
     7
370
    25
100
AcDbLine
 10
140.0
 20
-251.5103663313
 30
0.0
 11
165.4
 21
-266.5646485016
 31
0.0
  0
LINE
  5
107
330
1F
100
AcDbEntity
  8
0
  6
Continuous
 62
     7
370
    25
100
AcDbLine
 10
165.4000000001
 20
181.214326526
 30
0.0
 11
165.4
 21
-283.7059188426
 31
0.0
  0
LINE
  5
108
330
1F
100
AcDbEntity
  8
0
  6
Continuous
 62
     7
370
    25
100
AcDbLine
 10
-140.0
 20
-251.5103663313
 30
0.0
 11
-140.0
 21
173.7462366887
 31
0.0
  0
LINE
  5
109
330
1F
100
AcDbEntity
  8
0
  6
Continuous
 62
     7
370
    25
100
AcDbLine
 10
-140.0
 20
-251.5103663313
 30
0.0
 11
-165.4000000001
 21
-266.5646485017
 31
0.0
  0
LINE
  5
10A
330
1F
100
AcDbEntity
  8
0
  6
Continuous
 62
     7
370
    25
100
AcDbLine
 10
-140.0
 20
173.7462366887
 30
0.0
 11
-165.4
 21
181.214326526
 31
0.0
  0
LINE
  5
10B
330
1F
100
AcDbEntity
  8
0
  6
Continuous
 62
     7
370
    25
100
AcDbLine
 10
-165.4
 20
-283.7059188426
 30
0.0
 11
-165.4
 21
181.214326526
 31
0.0
  0
LINE
  5
10C
330
1F
100
AcDbEntity
  8
0
  6
Continuous
 62
     7
370
    25
100
AcDbLine
 10
-140.0
 20
156.6049663477
 30
0.0
 11
-117.7986472072
 21
189.1855679305
 31
0.0
  0
LINE
  5
10D
330
1F
100
AcDbEntity
  8
0
  6
Continuous
 62
     7
370
    25
100
AcDbLine
 10
-140.0
 20
173.7462366887
 30
0.0
 11
-92.3
 21
243.7462366887
 31
0.0
  0
LINE
  5
10E
330
1F
100
AcDbEntity
  8
0
  6
Continuous
 62
     7
370
    25
100
AcDbLine
 10
-165.4
 20
181.214326526
 30
0.0
 11
-117.7
 21
251.214326526
 31
0.0
  0
LINE
  5
10F
330
1F
100
AcDbEntity
  8
0
  6
Continuous
 62
     7
370
    25
100
AcDbLine
 10
-92.3
 20
243.7462366887
 30
0.0
 11
-117.7
 21
251.214326526
 31
0.0
  0
LINE
  5
110
330
1F
100
AcDbEntity
  8
0
  6
Continuous
 62
     7
370
    25
100
AcDbLine
 10
-165.4
 20
172.8362599575
 30
0.0
 11
-165.4013272924
 21
172.8343121489
 31
0.0
  0
LINE
  5
111
330
1F
100
AcDbEntity
  8
0
  6
Continuous
 62
     7
370
    25
100
AcDbLine
 10
-165.4013272924
 20
172.8343121489
 30
0.0
 11
-165.4
 21
172.8253686569
 31
0.0
  0
LINE
  5
112
330
1F
100
AcDbEntity
  8
0
  6
Continuous
 62
     7
370
    25
100
AcDbLine
 10
-139.9986727076
 20
156.6069141562
 30
0.0
 11
-139.9986727076
 21
12.7
 31
0.0
  0
LINE
  5
113
330
1F
100
AcDbEntity
  8
0
  6
Continuous
 62
     7
370
    25
100
AcDbLine
 10
-139.9986727076
 20
-12.7
 30
0.0
 11
-139.9986727076
 21
-251.5110360569
 31
0.0
  0
LINE
  5
114
330
1F
100
AcDbEntity
  8
0
  6
Continuous
 62
     7
370
    25
100
AcDbLine
 10
-140.0
 20
-195.8213055106
 30
0.0
 11
-139.9986727076
 21
-195.821305543
 31
0.0
  0
LINE
  5
115
330
1F
100
AcDbEntity
  8
0
  6
Continuous
 62
     7
370
    25
100
AcDbLine
 10
-165.4013272924
 20
172.8343121489
 30
0.0
 11
-165.4013272924
 21
-355.5868830311
 31
0.0
  0
LINE
  5
116
330
1F
100
AcDbEntity
  8
0
  6
Continuous
 62
     7
370
    25
100
AcDbLine
 10
-165.4013272924
 20
-249.178694457
 30
0.0
 11
-165.4
 21
-222.4998450661
 31
0.0
  0
LINE
  5
117
330
1F
100
AcDbEntity
  8
0
  6
Continuous
 62
     7
370
    25
100
AcDbLine
 10
-165.3986726922
 20
-283.706588576
 30
0.0
 11
-165.3986726922
 21
-283.9819878197
 31
0.0
  0
LINE
  5
118
330
1F
100
AcDbEntity
  8
0
  6
Continuous
 62
     7
370
    25
100
AcDbLine
 10
-165.3986726922
 20
-283.9819878197
 30
0.0
 11
-164.9574482825
 21
-283.9292217128
 31
0.0
  0
LINE
  5
119
330
1F
100
AcDbEntity
  8
0
  6
Continuous
 62
     7
370
    25
100
AcDbLine
 10
-165.3986726922
 20
-283.9819878197
 30
0.0
 11
-165.4013272924
 21
-355.5868830311
 31
0.0
  0
LINE
  5
11A
330
1F
100
AcDbEntity
  8
0
  6
Continuous
 62
     7
370
    25
100
AcDbLine
 10
165.4013272924
 20
-355.5868830311
 30
0.0
 11
165.4013272924
 21
172.8343121489
 31
0.0
  0
LINE
  5
11B
330
1F
100
AcDbEntity
  8
0
  6
Continuous
 62
     7
370
    25
100
AcDbLine
 10
165.4013272924
 20
-355.5868830311
 30
0.0
 11
165.3986726922
 21
-283.9819878197
 31
0.0
  0
LINE
  5
11C
330
1F
100
AcDbEntity
  8
0
  6
Continuous
 62
     7
370
    25
100
AcDbLine
 10
165.3986726922
 20
-283.9819878197
 30
0.0
 11
165.3986726922
 21
-283.706588576
 31
0.0
  0
LINE
  5
11D
330
1F
100
AcDbEntity
  8
0
  6
Continuous
 62
     7
370
    25
100
AcDbLine
 10
165.4013272924
 20
-249.178694457
 30
0.0
 11
165.4
 21
-222.4998451004
 31
0.0
  0
LINE
  5
11E
330
1F
100
AcDbEntity
  8
0
  6
Continuous
 62
     7
370
    25
100
AcDbLine
 10
165.3986726922
 20
-283.9819878197
 30
0.0
 11
164.9574482825
 21
-283.9292217128
 31
0.0
  0
LINE
  5
11F
330
1F
100
AcDbEntity
  8
0
  6
Continuous
 62
     7
370
    25
100
AcDbLine
 10
139.9986727076
 20
-251.5110360569
 30
0.0
 11
139.9986727076
 21
-12.7
 31
0.0
  0
LINE
  5
120
330
1F
100
AcDbEntity
  8
0
  6
Continuous
 62
     7
370
    25
100
AcDbLine
 10
139.9986727076
 20
-195.821305543
 30
0.0
 11
139.9999999999
 21
-195.8213055106
 31
0.0
  0
LINE
  5
121
330
1F
100
AcDbEntity
  8
0
  6
Continuous
 62
     7
370
    25
100
AcDbLine
 10
139.9986727076
 20
-235.2
 30
0.0
 11
-139.9986727076
 21
-235.2
 31
0.0
  0
LINE
  5
122
330
1F
100
AcDbEntity
  8
0
  6
Continuous
 62
     7
370
    25
100
AcDbLine
 10
139.9986727076
 20
-209.8
 30
0.0
 11
-139.9986727076
 21
-209.8
 31
0.0
  0
LINE
  5
123
330
1F
100
AcDbEntity
  8
0
  6
Continuous
 62
     7
370
    25
100
AcDbLine
 10
139.9986727076
 20
12.7
 30
0.0
 11
139.9986727076
 21
156.6069141562
 31
0.0
  0
LINE
  5
124
330
1F
100
AcDbEntity
  8
0
  6
Continuous
 62
     7
370
    25
100
AcDbLine
 10
165.4
 20
172.825368657
 30
0.0
 11
165.4013272924
 21
172.8343121489
 31
0.0
  0
LINE
  5
125
330
1F
100
AcDbEntity
  8
0
  6
Continuous
 62
     7
370
    25
100
AcDbLine
 10
165.4013272924
 20
172.8343121489
 30
0.0
 11
165.4
 21
172.8362599574
 31
0.0
  0
LINE
  5
126
330
1F
100
AcDbEntity
  8
0
  6
Continuous
 62
     7
370
    25
100
AcDbLine
 10
-92.3
 20
306.870158679
 30
0.0
 11
92.3
 21
306.870158679
 31
0.0
  0
LINE
  5
127
330
1F
100
AcDbEntity
  8
0
  6
Continuous
 62
     7
370
    25
100
AcDbLine
 10
-92.3
 20
324.8306709211
 30
0.0
 11
92.3
 21
324.8306709211
 31
0.0
  0
LINE
  5
128
330
1F
100
AcDbEntity
  8
0
  6
Continuous
 62
     7
370
    25
100
AcDbLine
 10
94.4197802605
 20
234.9216912661
 30
0.0
 11
121.6921643275
 21
194.8993247108
 31
0.0
  0
LINE
  5
129
330
1F
100
AcDbEntity
  8
0
  6
Continuous
 62
     7
370
    25
100
AcDbLine
 10
121.6921643275
 20
194.8993247108
 30
0.0
 11
-121.6921643275
 21
194.8993247108
 31
0.0
  0
LINE
  5
12A
330
1F
100
AcDbEntity
  8
0
  6
Continuous
 62
     7
370
    25
100
AcDbLine
 10
-121.6921643275
 20
194.8993247108
 30
0.0
 11
-94.4197802605
 21
234.9216912661
 31
0.0
  0
LINE
  5
12B
330
1F
100
AcDbEntity
  8
0
  6
Continuous
 62
     7
370
    25
100
AcDbLine
 10
92.3
 20
269.1463236475
 30
0.0
 11
-92.3
 21
269.1463236475
 31
0.0
  0
LINE
  5
12C
330
1F
100
AcDbEntity
  8
0
  6
Continuous
 62
     7
370
    25
100
AcDbLine
 10
121.6921643275
 20
189.1855679305
 30
0.0
 11
-121.6921643275
 21
189.1855679305
 31
0.0
  0
LINE
  5
12D
330
1F
100
AcDbEntity
  8
0
  6
Continuous
 62
     7
370
    25
100
AcDbLine
 10
121.6921643275
 20
194.8993247108
 30
0.0
 11
121.6921643275
 21
189.1855679305
 31
0.0
  0
LINE
  5
12E
330
1F
100
AcDbEntity
  8
0
  6
Continuous
 62
     7
370
    25
100
AcDbLine
 10
-121.6921643275
 20
189.1855679305
 30
0.0
 11
-121.6921643275
 21
194.8993247108
 31
0.0
  0
LINE
  5
12F
330
1F
100
AcDbEntity
  8
0
  6
Continuous
 62
     7
370
    25
100
AcDbLine
 10
165.4
 20
-266.5646485016
 30
0.0
 11
37.5922025299
 21
-331.0539429065
 31
0.0
  0
LINE
  5
130
330
1F
100
AcDbEntity
  8
0
  6
Continuous
 62
     7
370
    25
100
AcDbLine
 10
140.0
 20
-251.5103663313
 30
0.0
 11
33.6451308101
 21
-305.174936149
 31
0.0
  0
LINE
  5
131
330
1F
100
AcDbEntity
  8
0
  6
Continuous
 62
     7
370
    25
100
AcDbLine
 10
165.4
 20
-283.7059188426
 30
0.0
 11
38.1
 21
-347.9389886572
 31
0.0
  0
LINE
  5
132
330
1F
100
AcDbEntity
  8
0
  6
Continuous
 62
     7
370
    25
100
AcDbLine
 10
37.9248335827
 20
-410.2911752191
 30
0.0
 11
165.4013272924
 21
-355.5868830311
 31
0.0
  0
LINE
  5
133
330
1F
100
AcDbEntity
  8
0
  6
Continuous
 62
     7
370
    25
100
AcDbLine
 10
161.748481384
 20
-285.5484031332
 30
0.0
 11
165.3986726922
 21
-283.9819878197
 31
0.0
  0
LINE
  5
134
330
1F
100
AcDbEntity
  8
0
  6
Continuous
 62
     7
370
    25
100
AcDbLine
 10
-33.6451308101
 20
-305.174936149
 30
0.0
 11
-140.0
 21
-251.5103663313
 31
0.0
  0
LINE
  5
135
330
1F
100
AcDbEntity
  8
0
  6
Continuous
 62
     7
370
    25
100
AcDbLine
 10
-37.59220253
 20
-331.0539429065
 30
0.0
 11
-165.4
 21
-266.5646485016
 31
0.0
  0
LINE
  5
136
330
1F
100
AcDbEntity
  8
0
  6
Continuous
 62
     7
370
    25
100
AcDbLine
 10
-38.1
 20
-347.9389886572
 30
0.0
 11
-165.4
 21
-283.7059188426
 31
0.0
  0
LINE
  5
137
330
1F
100
AcDbEntity
  8
0
  6
Continuous
 62
     7
370
    25
100
AcDbLine
 10
-165.3986726922
 20
-283.9819878197
 30
0.0
 11
-161.748481384
 21
-285.5484031332
 31
0.0
  0
LINE
  5
138
330
1F
100
AcDbEntity
  8
0
  6
Continuous
 62
     7
370
    25
100
AcDbLine
 10
-165.4013272924
 20
-355.5868830311
 30
0.0
 11
-37.9248335827
 21
-410.2911752191
 31
0.0
  0
LINE
  5
139
330
1F
100
AcDbEntity
  8
0
  6
Continuous
 62
     7
370
    25
100
AcDbLine
 10
92.3
 20
470.0528426044
 30
0.0
 11
-92.3
 21
470.0528426044
 31
0.0
  0
LINE
  5
13A
330
1F
100
AcDbEntity
  8
0
  6
Continuous
 62
     7
370
    25
100
AcDbLine
 10
92.3
 20
476.62684635
 30
0.0
 11
-92.3
 21
476.62684635
 31
0.0
  0
LINE
  5
13B
330
1F
100
AcDbEntity
  8
0
  6
Continuous
 62
     7
370
    25
100
AcDbLine
 10
92.3
 20
445.5183266166
 30
0.0
 11
-92.3
 21
445.5183266166
 31
0.0
  0
LINE
  5
13C
330
1F
100
AcDbEntity
  8
0
  6
Continuous
 62
     7
370
    25
100
AcDbLine
 10
92.3
 20
238.0324799084
 30
0.0
 11
92.3
 21
485.6901133921
 31
0.0
  0
LINE
  5
13D
330
1F
100
AcDbEntity
  8
0
  6
Continuous
 62
     7
370
    25
100
AcDbLine
 10
-92.3
 20
485.6901133921
 30
0.0
 11
-92.3
 21
238.0324799084
 31
0.0
  0
LINE
  5
13E
330
1F
100
AcDbEntity
  8
0
  6
Continuous
 62
     7
370
    25
100
AcDbLine
 10
72.4564550424
 20
735.6824448339
 30
0.0
 11
72.4564550424
 21
742.2564485795
 31
0.0
  0
LINE
  5
13F
330
1F
100
AcDbEntity
  8
0
  6
Continuous
 62
     7
370
    25
100
AcDbLine
 10
51.1433244105
 20
711.1479288461
 30
0.0
 11
72.4564550424
 21
735.6824448339
 31
0.0
  0
LINE
  5
140
330
1F
100
AcDbEntity
  8
0
  6
Continuous
 62
     7
370
    25
100
AcDbLine
 10
117.7
 20
487.8366054062
 30
0.0
 11
72.4564550424
 21
735.6824448339
 31
0.0
  0
LINE
  5
141
330
1F
100
AcDbEntity
  8
0
  6
Continuous
 62
     7
370
    25
100
AcDbLine
 10
117.7
 20
487.8366054062
 30
0.0
 11
92.3
 21
485.6901133921
 31
0.0
  0
LINE
  5
142
330
1F
100
AcDbEntity
  8
0
  6
Continuous
 62
     7
370
    25
100
AcDbLine
 10
92.3
 20
485.6901133921
 30
0.0
 11
51.1433244105
 21
711.1479288461
 31
0.0
  0
LINE
  5
143
330
1F
100
AcDbEntity
  8
0
  6
Continuous
 62
     7
370
    25
100
AcDbLine
 10
117.7
 20
494.4106091518
 30
0.0
 11
72.4564550424
 21
742.2564485795
 31
0.0
  0
LINE
  5
144
330
1F
100
AcDbEntity
  8
0
  6
Continuous
 62
     7
370
    25
100
AcDbLine
 10
117.7
 20
251.214326526
 30
0.0
 11
117.7
 21
494.4106091518
 31
0.0
  0
LINE
  5
145
330
1F
100
AcDbEntity
  8
0
  6
Continuous
 62
     7
370
    25
100
AcDbLine
 10
72.4564550424
 20
742.2564485795
 30
0.0
 11
-72.4564550424
 21
742.2564485795
 31
0.0
  0
LINE
  5
146
330
1F
100
AcDbEntity
  8
0
  6
Continuous
 62
     7
370
    25
100
AcDbLine
 10
72.4564550424
 20
735.6824448339
 30
0.0
 11
-72.4564550424
 21
735.6824448339
 31
0.0
  0
LINE
  5
147
330
1F
100
AcDbEntity
  8
0
  6
Continuous
 62
     7
370
    25
100
AcDbLine
 10
-72.4564550424
 20
742.2564485795
 30
0.0
 11
-72.4564550424
 21
735.6824448339
 31
0.0
  0
LINE
  5
148
330
1F
100
AcDbEntity
  8
0
  6
Continuous
 62
     7
370
    25
100
AcDbLine
 10
51.1433244105
 20
711.1479288461
 30
0.0
 11
-51.1433244105
 21
711.1479288461
 31
0.0
  0
LINE
  5
149
330
1F
100
AcDbEntity
  8
0
  6
Continuous
 62
     7
370
    25
100
AcDbLine
 10
-51.1433244105
 20
711.1479288461
 30
0.0
 11
-72.4564550424
 21
735.6824448339
 31
0.0
  0
LINE
  5
14A
330
1F
100
AcDbEntity
  8
0
  6
Continuous
 62
     7
370
    25
100
AcDbLine
 10
-72.4564550424
 20
735.6824448339
 30
0.0
 11
-117.7
 21
487.8366054062
 31
0.0
  0
LINE
  5
14B
330
1F
100
AcDbEntity
  8
0
  6
Continuous
 62
     7
370
    25
100
AcDbLine
 10
-51.1433244105
 20
711.1479288461
 30
0.0
 11
-92.3
 21
485.6901133921
 31
0.0
  0
LINE
  5
14C
330
1F
100
AcDbEntity
  8
0
  6
Continuous
 62
     7
370
    25
100
AcDbLine
 10
-92.3
 20
485.6901133921
 30
0.0
 11
-117.7
 21
487.8366054062
 31
0.0
  0
LINE
  5
14D
330
1F
100
AcDbEntity
  8
0
  6
Continuous
 62
     7
370
    25
100
AcDbLine
 10
-72.4564550424
 20
742.2564485795
 30
0.0
 11
-117.7
 21
494.4106091518
 31
0.0
  0
LINE
  5
14E
330
1F
100
AcDbEntity
  8
0
  6
Continuous
 62
     7
370
    25
100
AcDbLine
 10
-117.7
 20
494.4106091518
 30
0.0
 11
-117.7
 21
251.214326526
 31
0.0
  0
LINE
  5
14F
330
1F
100
AcDbEntity
  8
0
  6
Continuous
 62
     7
370
    25
100
AcDbLine
 10
-41.5
 20
445.5183266166
 30
0.0
 11
-41.5
 21
324.8306709211
 31
0.0
  0
LINE
  5
150
330
1F
100
AcDbEntity
  8
0
  6
Continuous
 62
     7
370
    25
100
AcDbLine
 10
-66.9
 20
445.5183266166
 30
0.0
 11
-66.9
 21
324.8306709211
 31
0.0
  0
LINE
  5
151
330
1F
100
AcDbEntity
  8
0
  6
Continuous
 62
     7
370
    25
100
AcDbLine
 10
66.9
 20
445.5183266166
 30
0.0
 11
66.9
 21
324.8306709211
 31
0.0
  0
LINE
  5
152
330
1F
100
AcDbEntity
  8
0
  6
Continuous
 62
     7
370
    25
100
AcDbLine
 10
41.5
 20
445.5183266166
 30
0.0
 11
41.4999999999
 21
324.8306709211
 31
0.0
  0
LINE
  5
153
330
1F
100
AcDbEntity
  8
0
  6
Continuous
 62
     7
370
    25
100
AcDbLine
 10
117.7
 20
252.5286698728
 30
0.0
 11
92.3
 21
252.5286698728
 31
0.0
  0
LINE
  5
154
330
1F
100
AcDbEntity
  8
0
  6
Continuous
 62
     7
370
    25
100
AcDbLine
 10
-92.3
 20
252.5286698728
 30
0.0
 11
-117.7
 21
252.5286698728
 31
0.0
  0
ARC
  5
155
330
1F
100
AcDbEntity
  8
0
  6
Continuous
 62
     7
370
    25
100
AcDbCircle
 10
20.7266149526
 20
-335.2262769877
 30
0.0
 40
17.37401554090084
100
AcDbArc
 50
359.5118771486
 51
13.8952721967
  0
ARC
  5
156
330
1F
100
AcDbEntity
  8
0
  6
Continuous
 62
     7
370
    25
100
AcDbCircle
 10
-20.7266149526
 20
-335.2262769877
 30
0.0
 40
17.37401554090434
100
AcDbArc
 50
166.1047278033
 51
180.4881228514
  0
MTEXT
  5
627
330
1F
100
AcDbEntity
  8
0
  6
Continuous
 62
     7
100
AcDbMText
 10
-165.4013272924
 20
-452.1341544845
 30
0.0
 40
4.83362
 41
0.0
 71
     1
 72
     1
  1
SOLIDWORKS Educational Product.
  7
SLDTEXTSTYLE0
 73
     1
 44
1.0
  0
MTEXT
  5
628
330
1F
100
AcDbEntity
  8
0
  6
Continuous
 62
     7
100
AcDbMText
 10
-165.4013272924
 20
-459.3845844845
 30
0.0
 40
4.83362
 41
0.0
 71
     1
 72
     1
  1
For Instructional Use Only.
  7
SLDTEXTSTYLE0
 73
     1
 44
1.0
  0
LWPOLYLINE
  5
1BC
330
1B
100
AcDbEntity
 67
     1
  8
0
  6
Continuous
 62
     7
370
    25
100
AcDbPolyline
 90
       66
 70
   128
 43
0.0
 10
0.0
 20
364.5829036527
 10
3.6771803868
 20
364.6718360113
 10
7.3200279312
 20
364.9378027497
 10
10.894530347
 20
365.3783206081
 10
14.3673134683
 20
365.98927659
 10
17.7059528549
 20
366.764966364
 10
20.8792765302
 20
367.6981475236
 10
23.8576560262
 20
368.7801072078
 10
26.613283016
 20
370.0007434505
 10
29.1204289528
 20
371.3486595
 10
31.3556852905
 20
372.8112702274
 10
33.2981820431
 20
374.3749196304
 10
34.9297826416
 20
376.0250083357
 10
36.2352532708
 20
377.7461299098
 10
37.2024051034
 20
379.5222147042
 10
37.8222081031
 20
381.3366798938
 10
38.0888753364
 20
383.1725843059
 10
37.9999170032
 20
385.0127865958
 10
37.5561636835
 20
386.8401052903
 10
36.7617585824
 20
388.6374792074
 10
35.6241188463
 20
390.3881267508
 10
34.153866311
 20
392.0757025963
 10
32.3647283281
 20
393.6844503029
 10
30.2734095971
 20
395.1993494266
 10
27.8994361974
 20
396.6062557626
 10
25.264973279
 20
397.8920334053
 10
22.3946181123
 20
399.0446773955
 10
19.3151704303
 20
400.0534258067
 10
16.0553822061
 20
400.9088602269
 10
12.6456892042
 20
401.6029936952
 10
9.1179268093
 20
402.1293452746
 10
5.5050327886
 20
402.4830005622
 10
1.8407397599
 20
402.6606575738
 10
-1.8407397599
 20
402.6606575738
 10
-5.5050327886
 20
402.4830005622
 10
-9.1179268094
 20
402.1293452746
 10
-12.6456892042
 20
401.6029936952
 10
-16.0553822061
 20
400.9088602269
 10
-19.3151704303
 20
400.0534258067
 10
-22.3946181123
 20
399.0446773955
 10
-25.264973279
 20
397.8920334053
 10
-27.8994361974
 20
396.6062557626
 10
-30.2734095971
 20
395.1993494266
 10
-32.3647283281
 20
393.6844503029
 10
-34.153866311
 20
392.0757025963
 10
-35.6241188463
 20
390.3881267508
 10
-36.7617585824
 20
388.6374792074
 10
-37.5561636835
 20
386.8401052903
 10
-37.9999170033
 20
385.0127865958
 10
-38.0888753365
 20
383.1725843059
 10
-37.8222081031
 20
381.3366798938
 10
-37.2024051034
 20
379.5222147042
 10
-36.2352532709
 20
377.7461299098
 10
-34.9297826416
 20
376.0250083357
 10
-33.2981820431
 20
374.3749196304
 10
-31.3556852906
 20
372.8112702274
 10
-29.1204289528
 20
371.3486595
 10
-26.613283016
 20
370.0007434505
 10
-23.8576560262
 20
368.7801072078
 10
-20.8792765302
 20
367.6981475236
 10
-17.7059528549
 20
366.764966364
 10
-14.3673134683
 20
365.98927659
 10
-10.894530347
 20
365.3783206081
 10
-7.3200279312
 20
364.9378027497
 10
-3.6771803868
 20
364.6718360113
 10
0.0
 20
364.5829036527
  0
LWPOLYLINE
  5
1BD
330
1B
100
AcDbEntity
 67
     1
  8
0
  6
Continuous
 62
     7
370
    25
100
AcDbPolyline
 90
       34
 70
   128
 43
0.0
 10
38.1
 20
552.5078573906
 10
37.9999170032
 20
553.8877403337
 10
37.5561636835
 20
555.7150590283
 10
36.7617585824
 20
557.5124329453
 10
35.6241188463
 20
559.2630804888
 10
34.153866311
 20
560.9506563343
 10
32.3647283281
 20
562.5594040409
 10
30.2734095971
 20
564.0743031646
 10
27.8994361974
 20
565.4812095005
 10
25.264973279
 20
566.7669871433
 10
22.3946181123
 20
567.9196311335
 10
19.3151704303
 20
568.9283795447
 10
16.0553822061
 20
569.7838139648
 10
12.6456892042
 20
570.4779474332
 10
9.1179268094
 20
571.0042990126
 10
5.5050327886
 20
571.3579543002
 10
1.8407397599
 20
571.5356113118
 10
-1.8407397599
 20
571.5356113118
 10
-5.5050327886
 20
571.3579543002
 10
-9.1179268094
 20
571.0042990126
 10
-12.6456892042
 20
570.4779474332
 10
-16.0553822061
 20
569.7838139648
 10
-19.3151704303
 20
568.9283795447
 10
-22.3946181123
 20
567.9196311335
 10
-25.264973279
 20
566.7669871433
 10
-27.8994361974
 20
565.4812095005
 10
-30.2734095971
 20
564.0743031646
 10
-32.3647283281
 20
562.5594040409
 10
-34.153866311
 20
560.9506563343
 10
-35.6241188463
 20
559.2630804888
 10
-36.7617585824
 20
557.5124329453
 10
-37.5561636835
 20
555.7150590283
 10
-37.9999170033
 20
553.8877403337
 10
-38.1
 20
552.5078573906
  0
LWPOLYLINE
  5
1C5
330
1B
100
AcDbEntity
 67
     1
  8
0
  6
Continuous
 62
     7
370
    25
100
AcDbPolyline
 90
        3
 70
   128
 43
0.0
 10
38.1
 20
400.0797848164
 10
38.0983349463
 20
400.5167330625
 10
37.9248335827
 20
404.5563594972
  0
LWPOLYLINE
  5
1C8
330
1B
100
AcDbEntity
 67
     1
  8
0
  6
Continuous
 62
     7
370
    25
100
AcDbPolyline
 90
        3
 70
   128
 43
0.0
 10
37.9248335827
 20
404.5563594972
 10
38.0810668218
 20
405.5946814933
 10
38.1
 20
406.201564702
  0
LWPOLYLINE
  5
1D2
330
1B
100
AcDbEntity
 67
     1
  8
0
  6
Continuous
 62
     7
370
    25
100
AcDbPolyline
 90
        3
 70
   128
 43
0.0
 10
-38.1
 20
406.201564702
 10
-38.0810668218
 20
405.5946814933
 10
-37.9248335827
 20
404.5563594972
  0
LWPOLYLINE
  5
1D5
330
1B
100
AcDbEntity
 67
     1
  8
0
  6
Continuous
 62
     7
370
    25
100
AcDbPolyline
 90
        3
 70
   128
 43
0.0
 10
-37.9248335827
 20
404.5563594972
 10
-38.0983349464
 20
400.5167330625
 10
-38.1
 20
400.0797848164
  0
LINE
  5
1EC
330
1B
100
AcDbEntity
 67
     1
  8
0
  6
Continuous
 62
     7
370
    25
100
AcDbLine
 10
-38.1
 20
552.5078573906
 30
0.0
 11
-38.1
 21
546.8410298885
 31
0.0
  0
LINE
  5
1ED
330
1B
100
AcDbEntity
 67
     1
  8
0
  6
Continuous
 62
     7
370
    25
100
AcDbLine
 10
-38.1
 20
527.0177177472
 30
0.0
 11
-38.1
 21
406.201564702
 31
0.0
  0
LINE
  5
1EE
330
1B
100
AcDbEntity
 67
     1
  8
0
  6
Continuous
 62
     7
370
    25
100
AcDbLine
 10
-38.1
 20
400.0797848164
 30
0.0
 11
-38.1
 21
383.6329036527
 31
0.0
  0
LINE
  5
1EF
330
1B
100
AcDbEntity
 67
     1
  8
0
  6
Continuous
 62
     7
370
    25
100
AcDbLine
 10
38.1
 20
383.6329036527
 30
0.0
 11
38.1
 21
400.0797848164
 31
0.0
  0
LINE
  5
1F0
330
1B
100
AcDbEntity
 67
     1
  8
0
  6
Continuous
 62
     7
370
    25
100
AcDbLine
 10
38.1
 20
406.201564702
 30
0.0
 11
38.1
 21
527.0177177472
 31
0.0
  0
LINE
  5
1F1
330
1B
100
AcDbEntity
 67
     1
  8
0
  6
Continuous
 62
     7
370
    25
100
AcDbLine
 10
38.1
 20
546.8410298885
 30
0.0
 11
38.1
 21
552.5078573906
 31
0.0
  0
LINE
  5
1F2
330
1B
100
AcDbEntity
 67
     1
  8
0
  6
Continuous
 62
     7
370
    25
100
AcDbLine
 10
140.0013257671
 20
-38.1
 30
0.0
 11
-140.0013273078
 21
-38.1
 31
0.0
  0
LINE
  5
1F3
330
1B
100
AcDbEntity
 67
     1
  8
0
  6
Continuous
 62
     7
370
    25
100
AcDbLine
 10
140.0013272924
 20
233.8262840198
 30
0.0
 11
-140.0013272924
 21
233.8262840198
 31
0.0
  0
LINE
  5
1F4
330
1B
100
AcDbEntity
 67
     1
  8
0
  6
Continuous
 62
     7
370
    25
100
AcDbLine
 10
140.0013272924
 20
209.9580914518
 30
0.0
 11
-140.0013272924
 21
209.9580914518
 31
0.0
  0
LINE
  5
1F5
330
1B
100
AcDbEntity
 67
     1
  8
0
  6
Continuous
 62
     7
370
    25
100
AcDbLine
 10
128.1450154505
 20
259.8882189412
 30
0.0
 11
-128.1450154505
 21
259.8882189412
 31
0.0
  0
LINE
  5
1F6
330
1B
100
AcDbEntity
 67
     1
  8
0
  6
Continuous
 62
     7
370
    25
100
AcDbLine
 10
-140.0013272924
 20
233.8262840198
 30
0.0
 11
-140.0000964051
 21
245.9107045083
 31
0.0
  0
LINE
  5
1F7
330
1B
100
AcDbEntity
 67
     1
  8
0
  6
Continuous
 62
     7
370
    25
100
AcDbLine
 10
140.0000964051
 20
245.9107045083
 30
0.0
 11
140.0013272924
 21
233.8262840198
 31
0.0
  0
LINE
  5
1F8
330
1B
100
AcDbEntity
 67
     1
  8
0
  6
Continuous
 62
     7
370
    25
100
AcDbLine
 10
92.3
 20
280.4723079889
 30
0.0
 11
-92.3
 21
280.4723079889
 31
0.0
  0
LINE
  5
1F9
330
1B
100
AcDbEntity
 67
     1
  8
0
  6
Continuous
 62
     7
370
    25
100
AcDbLine
 10
92.3
 20
204.2723079889
 30
0.0
 11
-92.3
 21
204.2723079889
 31
0.0
  0
LINE
  5
1FA
330
1B
100
AcDbEntity
 67
     1
  8
0
  6
Continuous
 62
     7
370
    25
100
AcDbLine
 10
122.1432741984
 20
-38.1
 30
0.0
 11
122.1432785058
 21
-38.1221124837
 31
0.0
  0
LINE
  5
1FB
330
1B
100
AcDbEntity
 67
     1
  8
0
  6
Continuous
 62
     7
370
    25
100
AcDbLine
 10
-122.1432785058
 20
-38.1221124837
 30
0.0
 11
-122.1432741984
 21
-38.1
 31
0.0
  0
LINE
  5
1FC
330
1B
100
AcDbEntity
 67
     1
  8
0
  6
Continuous
 62
     7
370
    25
100
AcDbLine
 10
122.1432785058
 20
-38.1221124837
 30
0.0
 11
-122.1432785058
 21
-38.1221124837
 31
0.0
  0
LINE
  5
1FD
330
1B
100
AcDbEntity
 67
     1
  8
0
  6
Continuous
 62
     7
370
    25
100
AcDbLine
 10
109.7947894175
 20
345.8773468993
 30
0.0
 11
140.0
 21
356.1108807165
 31
0.0
  0
LINE
  5
1FE
330
1B
100
AcDbEntity
 67
     1
  8
0
  6
Continuous
 62
     7
370
    25
100
AcDbLine
 10
92.3
 20
399.4061801468
 30
0.0
 11
92.3
 21
459.8457497268
 31
0.0
  0
LINE
  5
1FF
330
1B
100
AcDbEntity
 67
     1
  8
0
  6
Continuous
 62
     7
370
    25
100
AcDbLine
 10
92.3
 20
414.1971062744
 30
0.0
 11
140.0
 21
430.3578796532
 31
0.0
  0
LINE
  5
200
330
1B
100
AcDbEntity
 67
     1
  8
0
  6
Continuous
 62
     7
370
    25
100
AcDbLine
 10
117.7
 20
338.2259629459
 30
0.0
 11
140.0
 21
345.7812092005
 31
0.0
  0
LINE
  5
201
330
1B
100
AcDbEntity
 67
     1
  8
0
  6
Continuous
 62
     7
370
    25
100
AcDbLine
 10
117.7
 20
338.2259629459
 30
0.0
 11
116.1978572355
 21
338.3279279468
 31
0.0
  0
LINE
  5
202
330
1B
100
AcDbEntity
 67
     1
  8
0
  6
Continuous
 62
     7
370
    25
100
AcDbLine
 10
165.4
 20
457.7646583133
 30
0.0
 11
140.0
 21
454.28910342
 31
0.0
  0
LINE
  5
203
330
1B
100
AcDbEntity
 67
     1
  8
0
  6
Continuous
 62
     7
370
    25
100
AcDbLine
 10
165.4
 20
267.2880074078
 30
0.0
 11
165.4
 21
532.01165725
 31
0.0
  0
LINE
  5
204
330
1B
100
AcDbEntity
 67
     1
  8
0
  6
Continuous
 62
     7
370
    25
100
AcDbLine
 10
140.0
 20
454.28910342
 30
0.0
 11
140.0
 21
310.2644507508
 31
0.0
  0
LINE
  5
205
330
1B
100
AcDbEntity
 67
     1
  8
0
  6
Continuous
 62
     7
370
    25
100
AcDbLine
 10
-140.0
 20
454.28910342
 30
0.0
 11
-165.4
 21
457.7646583133
 31
0.0
  0
LINE
  5
206
330
1B
100
AcDbEntity
 67
     1
  8
0
  6
Continuous
 62
     7
370
    25
100
AcDbLine
 10
-165.4000000001
 20
532.01165725
 30
0.0
 11
-165.4
 21
267.2880074925
 31
0.0
  0
LINE
  5
207
330
1B
100
AcDbEntity
 67
     1
  8
0
  6
Continuous
 62
     7
370
    25
100
AcDbLine
 10
-140.0
 20
454.28910342
 30
0.0
 11
-140.0
 21
310.2644507508
 31
0.0
  0
LINE
  5
208
330
1B
100
AcDbEntity
 67
     1
  8
0
  6
Continuous
 62
     7
370
    25
100
AcDbLine
 10
-140.0
 20
356.1108807165
 30
0.0
 11
-109.7947894175
 21
345.8773468993
 31
0.0
  0
LINE
  5
209
330
1B
100
AcDbEntity
 67
     1
  8
0
  6
Continuous
 62
     7
370
    25
100
AcDbLine
 10
-140.0
 20
430.3578796532
 30
0.0
 11
-92.3
 21
414.1971062744
 31
0.0
  0
LINE
  5
20A
330
1B
100
AcDbEntity
 67
     1
  8
0
  6
Continuous
 62
     7
370
    25
100
AcDbLine
 10
-92.3
 20
459.8457497268
 30
0.0
 11
-92.3
 21
399.4061801468
 31
0.0
  0
LINE
  5
20B
330
1B
100
AcDbEntity
 67
     1
  8
0
  6
Continuous
 62
     7
370
    25
100
AcDbLine
 10
-140.0
 20
345.7812092005
 30
0.0
 11
-117.7
 21
338.2259629459
 31
0.0
  0
LINE
  5
20C
330
1B
100
AcDbEntity
 67
     1
  8
0
  6
Continuous
 62
     7
370
    25
100
AcDbLine
 10
-116.1978572355
 20
338.3279279468
 30
0.0
 11
-117.7
 21
338.2259629459
 31
0.0
  0
LINE
  5
20D
330
1B
100
AcDbEntity
 67
     1
  8
0
  6
Continuous
 62
     7
370
    25
100
AcDbLine
 10
-140.0013273078
 20
-38.144226198
 30
0.0
 11
-165.4013272924
 21
-38.144226198
 31
0.0
  0
LINE
  5
20E
330
1B
100
AcDbEntity
 67
     1
  8
0
  6
Continuous
 62
     7
370
    25
100
AcDbLine
 10
-116.1500000002
 20
-38.1221124837
 30
0.0
 11
-140.0013273078
 21
-38.144226198
 31
0.0
  0
LINE
  5
20F
330
1B
100
AcDbEntity
 67
     1
  8
0
  6
Continuous
 62
     7
370
    25
100
AcDbLine
 10
-140.0013273078
 20
-38.0974281856
 30
0.0
 11
-140.0006318266
 21
-18.1352990027
 31
0.0
  0
LINE
  5
210
330
1B
100
AcDbEntity
 67
     1
  8
0
  6
Continuous
 62
     7
370
    25
100
AcDbLine
 10
-140.0013273078
 20
-38.0974281856
 30
0.0
 11
-165.4013272924
 21
-38.0965433889
 31
0.0
  0
LINE
  5
211
330
1B
100
AcDbEntity
 67
     1
  8
0
  6
Continuous
 62
     7
370
    25
100
AcDbLine
 10
-165.4013272924
 20
-38.144226198
 30
0.0
 11
-165.4013272924
 21
254.2575519636
 31
0.0
  0
LINE
  5
212
330
1B
100
AcDbEntity
 67
     1
  8
0
  6
Continuous
 62
     7
370
    25
100
AcDbLine
 10
-140.0013273078
 20
-38.144226198
 30
0.0
 11
-140.0013273078
 21
245.9092532351
 31
0.0
  0
LINE
  5
213
330
1B
100
AcDbEntity
 67
     1
  8
0
  6
Continuous
 62
     7
370
    25
100
AcDbLine
 10
-140.0013273078
 20
245.9092532351
 30
0.0
 11
-165.4013272924
 21
254.2575519636
 31
0.0
  0
LINE
  5
214
330
1B
100
AcDbEntity
 67
     1
  8
0
  6
Continuous
 62
     7
370
    25
100
AcDbLine
 10
-165.3986726922
 20
280.318614405
 30
0.0
 11
-165.4013272924
 21
254.2575519636
 31
0.0
  0
LINE
  5
215
330
1B
100
AcDbEntity
 67
     1
  8
0
  6
Continuous
 62
     7
370
    25
100
AcDbLine
 10
-139.9986727076
 20
38.1
 30
0.0
 11
-139.9986727076
 21
209.9580914518
 31
0.0
  0
LINE
  5
216
330
1B
100
AcDbEntity
 67
     1
  8
0
  6
Continuous
 62
     7
370
    25
100
AcDbLine
 10
140.0013273078
 20
245.9092532351
 30
0.0
 11
165.4013272924
 21
254.2575519636
 31
0.0
  0
LINE
  5
217
330
1B
100
AcDbEntity
 67
     1
  8
0
  6
Continuous
 62
     7
370
    25
100
AcDbLine
 10
165.3986726922
 20
280.318614405
 30
0.0
 11
165.4013272924
 21
254.2575519636
 31
0.0
  0
LINE
  5
218
330
1B
100
AcDbEntity
 67
     1
  8
0
  6
Continuous
 62
     7
370
    25
100
AcDbLine
 10
140.0013273078
 20
245.9092532351
 30
0.0
 11
140.0013273078
 21
-38.144226198
 31
0.0
  0
LINE
  5
219
330
1B
100
AcDbEntity
 67
     1
  8
0
  6
Continuous
 62
     7
370
    25
100
AcDbLine
 10
140.0013273078
 20
-38.0974281856
 30
0.0
 11
165.4013272924
 21
-38.0965433889
 31
0.0
  0
LINE
  5
21A
330
1B
100
AcDbEntity
 67
     1
  8
0
  6
Continuous
 62
     7
370
    25
100
AcDbLine
 10
165.4013272924
 20
254.2575519636
 30
0.0
 11
165.4013272924
 21
-38.144226198
 31
0.0
  0
LINE
  5
21B
330
1B
100
AcDbEntity
 67
     1
  8
0
  6
Continuous
 62
     7
370
    25
100
AcDbLine
 10
139.9986727076
 20
209.9580914518
 30
0.0
 11
139.9986727076
 21
38.1
 31
0.0
  0
LINE
  5
21C
330
1B
100
AcDbEntity
 67
     1
  8
0
  6
Continuous
 62
     7
370
    25
100
AcDbLine
 10
140.0006318266
 20
-18.1352990007
 30
0.0
 11
140.0013273078
 21
-38.0974281856
 31
0.0
  0
LINE
  5
21D
330
1B
100
AcDbEntity
 67
     1
  8
0
  6
Continuous
 62
     7
370
    25
100
AcDbLine
 10
139.9999617803
 20
38.1
 30
0.0
 11
-139.9999617803
 21
38.1
 31
0.0
  0
LINE
  5
21E
330
1B
100
AcDbEntity
 67
     1
  8
0
  6
Continuous
 62
     7
370
    25
100
AcDbLine
 10
139.9999617803
 20
38.1
 30
0.0
 11
140.000869707
 21
-38.1
 31
0.0
  0
LINE
  5
21F
330
1B
100
AcDbEntity
 67
     1
  8
0
  6
Continuous
 62
     7
370
    25
100
AcDbLine
 10
-140.000869707
 20
-38.1
 30
0.0
 11
-139.9999617803
 21
38.1
 31
0.0
  0
LINE
  5
220
330
1B
100
AcDbEntity
 67
     1
  8
0
  6
Continuous
 62
     7
370
    25
100
AcDbLine
 10
140.0013273078
 20
-38.144226198
 30
0.0
 11
165.4013272924
 21
-38.144226198
 31
0.0
  0
LINE
  5
221
330
1B
100
AcDbEntity
 67
     1
  8
0
  6
Continuous
 62
     7
370
    25
100
AcDbLine
 10
140.0013273078
 20
-38.144226198
 30
0.0
 11
116.1500000001
 21
-38.1221124837
 31
0.0
  0
LINE
  5
222
330
1B
100
AcDbEntity
 67
     1
  8
0
  6
Continuous
 62
     7
370
    25
100
AcDbLine
 10
-117.7
 20
338.2259629459
 30
0.0
 11
-117.7
 21
336.55685424
 31
0.0
  0
LINE
  5
223
330
1B
100
AcDbEntity
 67
     1
  8
0
  6
Continuous
 62
     7
370
    25
100
AcDbLine
 10
117.7
 20
336.55685424
 30
0.0
 11
117.7
 21
338.2259629459
 31
0.0
  0
LINE
  5
224
330
1B
100
AcDbEntity
 67
     1
  8
0
  6
Continuous
 62
     7
370
    25
100
AcDbLine
 10
-69.7420983895
 20
328.7471005696
 30
0.0
 11
69.7420983895
 21
328.7471005696
 31
0.0
  0
LINE
  5
225
330
1B
100
AcDbEntity
 67
     1
  8
0
  6
Continuous
 62
     7
370
    25
100
AcDbLine
 10
-54.5088230001
 20
346.7076128117
 30
0.0
 11
54.5088230001
 21
346.7076128117
 31
0.0
  0
LINE
  5
226
330
1B
100
AcDbEntity
 67
     1
  8
0
  6
Continuous
 62
     7
370
    25
100
AcDbLine
 10
-92.3
 20
400.5891495381
 30
0.0
 11
-63.3907701216
 21
400.5891495381
 31
0.0
  0
LINE
  5
227
330
1B
100
AcDbEntity
 67
     1
  8
0
  6
Continuous
 62
     7
370
    25
100
AcDbLine
 10
63.3907701216
 20
400.5891495381
 30
0.0
 11
92.3
 21
400.5891495381
 31
0.0
  0
LINE
  5
228
330
1B
100
AcDbEntity
 67
     1
  8
0
  6
Continuous
 62
     7
370
    25
100
AcDbLine
 10
92.3
 20
38.1
 30
0.0
 11
92.3
 21
209.9580914518
 31
0.0
  0
LINE
  5
229
330
1B
100
AcDbEntity
 67
     1
  8
0
  6
Continuous
 62
     7
370
    25
100
AcDbLine
 10
92.3
 20
259.8882189412
 30
0.0
 11
92.3
 21
302.1506229457
 31
0.0
  0
LINE
  5
22A
330
1B
100
AcDbEntity
 67
     1
  8
0
  6
Continuous
 62
     7
370
    25
100
AcDbLine
 10
117.7
 20
38.1
 30
0.0
 11
117.7
 21
209.9580914518
 31
0.0
  0
LINE
  5
22B
330
1B
100
AcDbEntity
 67
     1
  8
0
  6
Continuous
 62
     7
370
    25
100
AcDbLine
 10
117.7
 20
259.8882189412
 30
0.0
 11
117.7
 21
272.203221662
 31
0.0
  0
LINE
  5
22C
330
1B
100
AcDbEntity
 67
     1
  8
0
  6
Continuous
 62
     7
370
    25
100
AcDbLine
 10
-117.7
 20
272.203221662
 30
0.0
 11
-117.7
 21
259.8882189412
 31
0.0
  0
LINE
  5
22D
330
1B
100
AcDbEntity
 67
     1
  8
0
  6
Continuous
 62
     7
370
    25
100
AcDbLine
 10
-117.7
 20
209.9580914518
 30
0.0
 11
-117.7
 21
38.1
 31
0.0
  0
LINE
  5
22E
330
1B
100
AcDbEntity
 67
     1
  8
0
  6
Continuous
 62
     7
370
    25
100
AcDbLine
 10
-92.3
 20
302.1506229457
 30
0.0
 11
-92.3
 21
259.8882189412
 31
0.0
  0
LINE
  5
22F
330
1B
100
AcDbEntity
 67
     1
  8
0
  6
Continuous
 62
     7
370
    25
100
AcDbLine
 10
-92.3
 20
209.9580914518
 30
0.0
 11
-92.3
 21
38.1
 31
0.0
  0
LINE
  5
230
330
1B
100
AcDbEntity
 67
     1
  8
0
  6
Continuous
 62
     7
370
    25
100
AcDbLine
 10
121.6921643275
 20
374.6571805013
 30
0.0
 11
85.3850662977
 21
374.6571805013
 31
0.0
  0
LINE
  5
231
330
1B
100
AcDbEntity
 67
     1
  8
0
  6
Continuous
 62
     7
370
    25
100
AcDbLine
 10
-85.3850662977
 20
374.6571805013
 30
0.0
 11
-121.6921643275
 21
374.6571805013
 31
0.0
  0
LINE
  5
232
330
1B
100
AcDbEntity
 67
     1
  8
0
  6
Continuous
 62
     7
370
    25
100
AcDbLine
 10
-121.6921643275
 20
374.6571805013
 30
0.0
 11
-121.6921643275
 21
399.4061801468
 31
0.0
  0
LINE
  5
233
330
1B
100
AcDbEntity
 67
     1
  8
0
  6
Continuous
 62
     7
370
    25
100
AcDbLine
 10
121.6921643275
 20
399.4061801468
 30
0.0
 11
64.3941100192
 21
399.4061801468
 31
0.0
  0
LINE
  5
234
330
1B
100
AcDbEntity
 67
     1
  8
0
  6
Continuous
 62
     7
370
    25
100
AcDbLine
 10
-64.3941100192
 20
399.4061801468
 30
0.0
 11
-121.6921643275
 21
399.4061801468
 31
0.0
  0
LINE
  5
235
330
1B
100
AcDbEntity
 67
     1
  8
0
  6
Continuous
 62
     7
370
    25
100
AcDbLine
 10
121.6921643275
 20
399.4061801468
 30
0.0
 11
121.6921643275
 21
374.6571805013
 31
0.0
  0
LINE
  5
236
330
1B
100
AcDbEntity
 67
     1
  8
0
  6
Continuous
 62
     7
370
    25
100
AcDbLine
 10
-94.4197802605
 20
365.4172891301
 30
0.0
 11
-121.6921643275
 21
374.6571805013
 31
0.0
  0
LINE
  5
237
330
1B
100
AcDbEntity
 67
     1
  8
0
  6
Continuous
 62
     7
370
    25
100
AcDbLine
 10
45.3417253259
 20
357.5159101603
 30
0.0
 11
-45.3417253259
 21
357.5159101603
 31
0.0
  0
LINE
  5
238
330
1B
100
AcDbEntity
 67
     1
  8
0
  6
Continuous
 62
     7
370
    25
100
AcDbLine
 10
121.6921643275
 20
374.6571805013
 30
0.0
 11
94.4197802605
 21
365.4172891301
 31
0.0
  0
LINE
  5
239
330
1B
100
AcDbEntity
 67
     1
  8
0
  6
Continuous
 62
     7
370
    25
100
AcDbLine
 10
-165.4
 20
386.6161409332
 30
0.0
 11
-140.0
 21
386.6161409332
 31
0.0
  0
LINE
  5
23A
330
1B
100
AcDbEntity
 67
     1
  8
0
  6
Continuous
 62
     7
370
    25
100
AcDbLine
 10
140.0
 20
386.6161409332
 30
0.0
 11
165.4
 21
386.6161409332
 31
0.0
  0
LINE
  5
23B
330
1B
100
AcDbEntity
 67
     1
  8
0
  6
Continuous
 62
     7
370
    25
100
AcDbLine
 10
165.4
 20
457.7646583133
 30
0.0
 11
38.1
 21
472.5940309519
 31
0.0
  0
LINE
  5
23C
330
1B
100
AcDbEntity
 67
     1
  8
0
  6
Continuous
 62
     7
370
    25
100
AcDbLine
 10
165.4
 20
532.01165725
 30
0.0
 11
37.5922025299
 21
546.9001839962
 31
0.0
  0
LINE
  5
23D
330
1B
100
AcDbEntity
 67
     1
  8
0
  6
Continuous
 62
     7
370
    25
100
AcDbLine
 10
140.0
 20
454.28910342
 30
0.0
 11
38.1
 21
466.159591023
 31
0.0
  0
LINE
  5
23E
330
1B
100
AcDbEntity
 67
     1
  8
0
  6
Continuous
 62
     7
370
    25
100
AcDbLine
 10
31.9757596032
 20
373.2748053982
 30
0.0
 11
140.0013273078
 21
245.9092532351
 31
0.0
  0
LINE
  5
23F
330
1B
100
AcDbEntity
 67
     1
  8
0
  6
Continuous
 62
     7
370
    25
100
AcDbLine
 10
37.9248335827
 20
404.5563594972
 30
0.0
 11
165.4013272924
 21
254.2575519636
 31
0.0
  0
LINE
  5
240
330
1B
100
AcDbEntity
 67
     1
  8
0
  6
Continuous
 62
     7
370
    25
100
AcDbLine
 10
38.1
 20
430.4077653493
 30
0.0
 11
165.3986726922
 21
280.318614405
 31
0.0
  0
LINE
  5
241
330
1B
100
AcDbEntity
 67
     1
  8
0
  6
Continuous
 62
     7
370
    25
100
AcDbLine
 10
-38.1
 20
472.5940309519
 30
0.0
 11
-165.4
 21
457.7646583133
 31
0.0
  0
LINE
  5
242
330
1B
100
AcDbEntity
 67
     1
  8
0
  6
Continuous
 62
     7
370
    25
100
AcDbLine
 10
-38.1
 20
466.159591023
 30
0.0
 11
-140.0
 21
454.28910342
 31
0.0
  0
LINE
  5
243
330
1B
100
AcDbEntity
 67
     1
  8
0
  6
Continuous
 62
     7
370
    25
100
AcDbLine
 10
-37.59220253
 20
546.9001839962
 30
0.0
 11
-165.4
 21
532.01165725
 31
0.0
  0
LINE
  5
244
330
1B
100
AcDbEntity
 67
     1
  8
0
  6
Continuous
 62
     7
370
    25
100
AcDbLine
 10
-165.3986726922
 20
280.318614405
 30
0.0
 11
-38.1
 21
430.4077653493
 31
0.0
  0
LINE
  5
245
330
1B
100
AcDbEntity
 67
     1
  8
0
  6
Continuous
 62
     7
370
    25
100
AcDbLine
 10
-165.4013272924
 20
254.2575519636
 30
0.0
 11
-37.9248335827
 21
404.5563594972
 31
0.0
  0
LINE
  5
246
330
1B
100
AcDbEntity
 67
     1
  8
0
  6
Continuous
 62
     7
370
    25
100
AcDbLine
 10
-140.0013273078
 20
245.9092532351
 30
0.0
 11
-31.9757596032
 21
373.2748053982
 31
0.0
  0
LINE
  5
247
330
1B
100
AcDbEntity
 67
     1
  8
0
  6
Continuous
 62
     7
370
    25
100
AcDbLine
 10
92.3
 20
439.3464284958
 30
0.0
 11
66.9
 21
439.3464284958
 31
0.0
  0
LINE
  5
248
330
1B
100
AcDbEntity
 67
     1
  8
0
  6
Continuous
 62
     7
370
    25
100
AcDbLine
 10
41.5
 20
439.3464284958
 30
0.0
 11
38.1
 21
439.3464284958
 31
0.0
  0
LINE
  5
249
330
1B
100
AcDbEntity
 67
     1
  8
0
  6
Continuous
 62
     7
370
    25
100
AcDbLine
 10
-38.1
 20
439.3464284958
 30
0.0
 11
-41.5
 21
439.3464284958
 31
0.0
  0
LINE
  5
24A
330
1B
100
AcDbEntity
 67
     1
  8
0
  6
Continuous
 62
     7
370
    25
100
AcDbLine
 10
-66.9
 20
439.3464284958
 30
0.0
 11
-92.3
 21
439.3464284958
 31
0.0
  0
LINE
  5
24B
330
1B
100
AcDbEntity
 67
     1
  8
0
  6
Continuous
 62
     7
370
    25
100
AcDbLine
 10
57.6606187491
 20
463.8809444836
 30
0.0
 11
38.1
 21
463.8809444836
 31
0.0
  0
LINE
  5
24C
330
1B
100
AcDbEntity
 67
     1
  8
0
  6
Continuous
 62
     7
370
    25
100
AcDbLine
 10
-38.1
 20
463.8809444836
 30
0.0
 11
-57.6606187491
 21
463.8809444836
 31
0.0
  0
LINE
  5
24D
330
1B
100
AcDbEntity
 67
     1
  8
0
  6
Continuous
 62
     7
370
    25
100
AcDbLine
 10
-41.5
 20
458.3512438131
 30
0.0
 11
-41.5
 21
426.3990580908
 31
0.0
  0
LINE
  5
24E
330
1B
100
AcDbEntity
 67
     1
  8
0
  6
Continuous
 62
     7
370
    25
100
AcDbLine
 10
-41.5
 20
328.7471005696
 30
0.0
 11
-41.5
 21
280.4723079889
 31
0.0
  0
LINE
  5
24F
330
1B
100
AcDbEntity
 67
     1
  8
0
  6
Continuous
 62
     7
370
    25
100
AcDbLine
 10
-66.9
 20
458.3512438131
 30
0.0
 11
-41.5
 21
458.3512438131
 31
0.0
  0
LINE
  5
250
330
1B
100
AcDbEntity
 67
     1
  8
0
  6
Continuous
 62
     7
370
    25
100
AcDbLine
 10
-66.9
 20
458.3512438131
 30
0.0
 11
-66.9
 21
400.5891495381
 31
0.0
  0
LINE
  5
251
330
1B
100
AcDbEntity
 67
     1
  8
0
  6
Continuous
 62
     7
370
    25
100
AcDbLine
 10
-66.9
 20
328.7471005696
 30
0.0
 11
-66.9
 21
280.4723079889
 31
0.0
  0
LINE
  5
252
330
1B
100
AcDbEntity
 67
     1
  8
0
  6
Continuous
 62
     7
370
    25
100
AcDbLine
 10
66.9
 20
458.3512438131
 30
0.0
 11
66.9
 21
400.5891495381
 31
0.0
  0
LINE
  5
253
330
1B
100
AcDbEntity
 67
     1
  8
0
  6
Continuous
 62
     7
370
    25
100
AcDbLine
 10
66.9
 20
328.7471005696
 30
0.0
 11
66.9
 21
280.4723079889
 31
0.0
  0
LINE
  5
254
330
1B
100
AcDbEntity
 67
     1
  8
0
  6
Continuous
 62
     7
370
    25
100
AcDbLine
 10
41.5
 20
458.3512438131
 30
0.0
 11
41.5
 21
426.3990580908
 31
0.0
  0
LINE
  5
255
330
1B
100
AcDbEntity
 67
     1
  8
0
  6
Continuous
 62
     7
370
    25
100
AcDbLine
 10
41.4999999999
 20
328.7471005696
 30
0.0
 11
41.4999999998
 21
280.4723079889
 31
0.0
  0
LINE
  5
256
330
1B
100
AcDbEntity
 67
     1
  8
0
  6
Continuous
 62
     7
370
    25
100
AcDbLine
 10
41.5
 20
458.3512438131
 30
0.0
 11
66.9
 21
458.3512438131
 31
0.0
  0
LINE
  5
257
330
1B
100
AcDbEntity
 67
     1
  8
0
  6
Continuous
 62
     7
370
    25
100
AcDbLine
 10
117.7
 20
422.8026333985
 30
0.0
 11
117.7
 21
456.8868646913
 31
0.0
  0
LINE
  5
258
330
1B
100
AcDbEntity
 67
     1
  8
0
  6
Continuous
 62
     7
370
    25
100
AcDbLine
 10
-117.7
 20
456.8868646913
 30
0.0
 11
-117.7
 21
422.8026333985
 31
0.0
  0
ARC
  5
259
330
1B
100
AcDbEntity
 67
     1
  8
0
  6
Continuous
 62
     7
370
    25
100
AcDbCircle
 10
-339.0108589369
 20
527.3340377163
 30
0.0
 40
377.1109916011912
100
AcDbArc
 50
359.9519404055
 51
2.9740877787
  0
ARC
  5
25A
330
1B
100
AcDbEntity
 67
     1
  8
0
  6
Continuous
 62
     7
370
    25
100
AcDbCircle
 10
339.010858937
 20
527.3340377163
 30
0.0
 40
377.1109916012845
100
AcDbArc
 50
177.0259122213
 51
180.0480595945
  0
VIEWPORT
  5
61C
330
1B
100
AcDbEntity
 67
     1
  8
0
100
AcDbViewport
 10
0.0
 20
0.0
 30
0.0
 40
205.6
 41
156.0
 68
     1
 69
     1
 12
0.0
 22
145.5709302433
 13
0.0
 23
0.0
 14
10.0
 24
10.0
 15
10.0
 25
10.0
 16
0.0
 26
0.0
 36
1.0
 17
0.0
 27
0.0
 37
0.0
 42
50.0
 43
0.0
 44
0.0
 45
1217.2384574058
 50
0.0
 51
0.0
 72
   100
 90
   557152
  1

281
     0
 71
     1
 74
     0
110
0.0
120
0.0
130
0.0
111
1.0
121
0.0
131
0.0
112
0.0
122
1.0
132
0.0
 79
     0
146
0.0
  0
MTEXT
  5
625
330
1B
100
AcDbEntity
 67
     1
  8
0
  6
Continuous
 62
     7
100
AcDbMText
 10
-165.4013272924
 20
-39.1637925897
 30
0.0
 40
4.83362
 41
0.0
 71
     1
 72
     1
  1
SOLIDWORKS Educational Product.
  7
SLDTEXTSTYLE0
 73
     1
 44
1.0
  0
MTEXT
  5
626
330
1B
100
AcDbEntity
 67
     1
  8
0
  6
Continuous
 62
     7
100
AcDbMText
 10
-165.4013272924
 20
-46.4142225897
 30
0.0
 40
4.83362
 41
0.0
 71
     1
 72
     1
  1
For Instructional Use Only.
  7
SLDTEXTSTYLE0
 73
     1
 44
1.0
  0
ENDSEC
  0
SECTION
  2
OBJECTS
  0
DICTIONARY
  5
C
330
0
100
AcDbDictionary
281
     1
  3
ACAD_GROUP
350
D
  3
ACAD_LAYOUT
350
1A
  3
ACAD_MLINESTYLE
350
17
  3
ACAD_PLOTSETTINGS
350
19
  3
ACAD_PLOTSTYLENAME
350
E
  3
ACAD_SCALELIST
350
47
  3
DWGPROPS
350
62F
  0
DICTIONARY
  5
D
102
{ACAD_REACTORS
330
C
102
}
330
C
100
AcDbDictionary
281
     1
  0
DICTIONARY
  5
1A
102
{ACAD_REACTORS
330
C
102
}
330
C
100
AcDbDictionary
281
     1
  3
_Back
350
2F6
  3
_Front
350
1E
  3
_Isometric
350
443
  3
_Left
350
26
  3
Model
350
22
  0
DICTIONARY
  5
17
102
{ACAD_REACTORS
330
C
102
}
330
C
100
AcDbDictionary
281
     1
  3
Standard
350
18
  0
DICTIONARY
  5
19
102
{ACAD_REACTORS
330
C
102
}
330
C
100
AcDbDictionary
281
     1
  0
ACDBDICTIONARYWDFLT
  5
E
102
{ACAD_REACTORS
330
C
102
}
330
C
100
AcDbDictionary
281
     1
  3
Normal
350
F
100
AcDbDictionaryWithDefault
340
F
  0
DICTIONARY
  5
47
102
{ACAD_REACTORS
330
C
102
}
330
C
100
AcDbDictionary
281
     1
  3
A0
350
48
  3
A1
350
49
  3
A2
350
4A
  3
A3
350
4B
  3
A4
350
4C
  3
A5
350
4D
  3
A6
350
4E
  3
A7
350
4F
  3
A8
350
50
  3
A9
350
51
  3
B0
350
52
  3
B1
350
53
  3
B2
350
54
  3
B3
350
55
  3
B4
350
56
  3
B5
350
57
  3
B6
350
58
  0
XRECORD
  5
62F
102
{ACAD_REACTORS
330
C
102
}
330
C
100
AcDbXrecord
280
     1
  1
DWGPROPS COOKIE
  2

  3

  4

  6

  7

  8
odett
  9

300
=
301
=
302
=
303
=
304
=
305
=
306
=
307
=
308
=
309
=
 40
0.0
 41
2460322.809244965
 42
2460322.809465857
  1

 90
        0
  0
LAYOUT
  5
2F6
102
{ACAD_REACTORS
330
1A
102
}
330
1A
100
AcDbPlotSettings
  1

  2
none_device
  4
ISO_A4_(210.00_x_297.00_MM)
  6

 40
7.5
 41
20.0
 42
7.5
 43
20.0
 44
210.0
 45
297.0
 46
0.0
 47
0.0
 48
0.0
 49
0.0
140
0.0
141
0.0
142
1.0
143
3.1265632693
 70
   688
 72
     1
 73
     1
 74
     1
  7

 75
     0
147
0.3198400013
148
165.4013272924
149
38.144226198
100
AcDbLayout
  1
_Back
 70
     1
 71
     3
 10
0.0
 20
0.0
 11
0.0
 21
0.0
 12
0.0
 22
0.0
 32
0.0
 14
0.0
 24
0.0
 34
0.0
 15
0.0
 25
0.0
 35
0.0
146
0.0
 13
0.0
 23
0.0
 33
0.0
 16
1.0
 26
0.0
 36
0.0
 17
0.0
 27
1.0
 37
0.0
 76
     0
330
2F5
331
620
  0
LAYOUT
  5
1E
102
{ACAD_REACTORS
330
1A
102
}
330
1A
100
AcDbPlotSettings
  1

  2
none_device
  4
ISO_A4_(210.00_x_297.00_MM)
  6

 40
7.5
 41
20.0
 42
7.5
 43
20.0
 44
210.0
 45
297.0
 46
0.0
 47
0.0
 48
0.0
 49
0.0
140
0.0
141
0.0
142
1.0
143
3.1265632693
 70
   688
 72
     1
 73
     1
 74
     1
  7

 75
     0
147
0.3198400013
148
165.4013272924
149
38.144226198
100
AcDbLayout
  1
_Front
 70
     1
 71
     1
 10
-227.932592678
 20
-61.5934507176
 11
700.6566982985
 21
594.9848358314
 12
0.0
 22
0.0
 32
0.0
 14
-165.4013272924
 24
-38.144226198
 34
0.0
 15
165.4013272924
 25
571.5356113118
 35
0.0
146
0.0
 13
0.0
 23
0.0
 33
0.0
 16
1.0
 26
0.0
 36
0.0
 17
0.0
 27
1.0
 37
0.0
 76
     0
330
1B
331
61C
  0
LAYOUT
  5
443
102
{ACAD_REACTORS
330
1A
102
}
330
1A
100
AcDbPlotSettings
  1

  2
none_device
  4
ISO_A4_(210.00_x_297.00_MM)
  6

 40
7.5
 41
20.0
 42
7.5
 43
20.0
 44
210.0
 45
297.0
 46
0.0
 47
0.0
 48
0.0
 49
0.0
140
0.0
141
0.0
142
1.0
143
3.1265632693
 70
   688
 72
     1
 73
     1
 74
     1
  7

 75
     0
147
0.3198400013
148
165.4013272924
149
38.144226198
100
AcDbLayout
  1
_Isometric
 70
     1
 71
     4
 10
0.0
 20
0.0
 11
0.0
 21
0.0
 12
0.0
 22
0.0
 32
0.0
 14
0.0
 24
0.0
 34
0.0
 15
0.0
 25
0.0
 35
0.0
146
0.0
 13
0.0
 23
0.0
 33
0.0
 16
1.0
 26
0.0
 36
0.0
 17
0.0
 27
1.0
 37
0.0
 76
     0
330
442
331
622
  0
LAYOUT
  5
26
102
{ACAD_REACTORS
330
1A
102
}
330
1A
100
AcDbPlotSettings
  1

  2
none_device
  4
ISO_A4_(210.00_x_297.00_MM)
  6

 40
7.5
 41
20.0
 42
7.5
 43
20.0
 44
210.0
 45
297.0
 46
0.0
 47
0.0
 48
0.0
 49
0.0
140
0.0
141
0.0
142
1.0
143
3.1265632693
 70
   688
 72
     1
 73
     1
 74
     1
  7

 75
     0
147
0.3198400013
148
165.4013272924
149
38.144226198
100
AcDbLayout
  1
_Left
 70
     1
 71
     2
 10
0.0
 20
0.0
 11
0.0
 21
0.0
 12
0.0
 22
0.0
 32
0.0
 14
0.0
 24
0.0
 34
0.0
 15
0.0
 25
0.0
 35
0.0
146
0.0
 13
0.0
 23
0.0
 33
0.0
 16
1.0
 26
0.0
 36
0.0
 17
0.0
 27
1.0
 37
0.0
 76
     0
330
23
331
61E
  0
LAYOUT
  5
22
102
{ACAD_REACTORS
330
1A
102
}
330
1A
100
AcDbPlotSettings
  1

  2
none_device
  4
ANSI_A_(11.00_x_8.50_Inches)
  6

 40
6.35
 41
19.05
 42
6.35000508
 43
19.05000254
 44
279.4
 45
215.9
 46
133.34999746
 47
62.8272390895
 48
0.0
 49
0.0
140
0.0
141
0.0
142
0.0070514532
143
1.0
 70
  1696
 72
     0
 73
     0
 74
     0
  7

 75
     0
147
0.0179189148
148
-1300.4909072572
149
0.0
100
AcDbLayout
  1
Model
 70
     1
 71
     0
 10
0.0
 20
0.0
 11
420.0
 21
297.0
 12
0.0
 22
0.0
 32
0.0
 14
-165.4013272924
 24
-451.1145880929
 34
0.0
 15
165.4013272924
 25
742.2564485795
 35
0.0
146
0.0
 13
0.0
 23
0.0
 33
0.0
 16
1.0
 26
0.0
 36
0.0
 17
0.0
 27
1.0
 37
0.0
 76
     0
330
1F
331
29
  0
MLINESTYLE
  5
18
102
{ACAD_REACTORS
330
17
102
}
330
17
100
AcDbMlineStyle
  2
Standard
 70
     0
  3

 62
   256
 51
90.0
 52
90.0
 71
     2
 49
0.5
 62
   256
  6
BYLAYER
 49
-0.5
 62
   256
  6
BYLAYER
  0
ACDBPLACEHOLDER
  5
F
102
{ACAD_REACTORS
330
E
102
}
330
E
  0
SCALE
  5
48
102
{ACAD_REACTORS
330
47
102
}
330
47
100
AcDbScale
 70
     0
300
1:1
140
1.0
141
1.0
290
     1
  0
SCALE
  5
49
102
{ACAD_REACTORS
330
47
102
}
330
47
100
AcDbScale
 70
     0
300
1:2
140
1.0
141
2.0
290
     0
  0
SCALE
  5
4A
102
{ACAD_REACTORS
330
47
102
}
330
47
100
AcDbScale
 70
     0
300
1:4
140
1.0
141
4.0
290
     0
  0
SCALE
  5
4B
102
{ACAD_REACTORS
330
47
102
}
330
47
100
AcDbScale
 70
     0
300
1:5
140
1.0
141
5.0
290
     0
  0
SCALE
  5
4C
102
{ACAD_REACTORS
330
47
102
}
330
47
100
AcDbScale
 70
     0
300
1:8
140
1.0
141
8.0
290
     0
  0
SCALE
  5
4D
102
{ACAD_REACTORS
330
47
102
}
330
47
100
AcDbScale
 70
     0
300
1:10
140
1.0
141
10.0
290
     0
  0
SCALE
  5
4E
102
{ACAD_REACTORS
330
47
102
}
330
47
100
AcDbScale
 70
     0
300
1:16
140
1.0
141
16.0
290
     0
  0
SCALE
  5
4F
102
{ACAD_REACTORS
330
47
102
}
330
47
100
AcDbScale
 70
     0
300
1:20
140
1.0
141
20.0
290
     0
  0
SCALE
  5
50
102
{ACAD_REACTORS
330
47
102
}
330
47
100
AcDbScale
 70
     0
300
1:30
140
1.0
141
30.0
290
     0
  0
SCALE
  5
51
102
{ACAD_REACTORS
330
47
102
}
330
47
100
AcDbScale
 70
     0
300
1:40
140
1.0
141
40.0
290
     0
  0
SCALE
  5
52
102
{ACAD_REACTORS
330
47
102
}
330
47
100
AcDbScale
 70
     0
300
1:50
140
1.0
141
50.0
290
     0
  0
SCALE
  5
53
102
{ACAD_REACTORS
330
47
102
}
330
47
100
AcDbScale
 70
     0
300
1:100
140
1.0
141
100.0
290
     0
  0
SCALE
  5
54
102
{ACAD_REACTORS
330
47
102
}
330
47
100
AcDbScale
 70
     0
300
2:1
140
2.0
141
1.0
290
     0
  0
SCALE
  5
55
102
{ACAD_REACTORS
330
47
102
}
330
47
100
AcDbScale
 70
     0
300
4:1
140
4.0
141
1.0
290
     0
  0
SCALE
  5
56
102
{ACAD_REACTORS
330
47
102
}
330
47
100
AcDbScale
 70
     0
300
8:1
140
8.0
141
1.0
290
     0
  0
SCALE
  5
57
102
{ACAD_REACTORS
330
47
102
}
330
47
100
AcDbScale
 70
     0
300
10:1
140
10.0
141
1.0
290
     0
  0
SCALE
  5
58
102
{ACAD_REACTORS
330
47
102
}
330
47
100
AcDbScale
 70
     0
300
100:1
140
100.0
141
1.0
290
     0
  0
ENDSEC
  0
EOF
